M48
;DRILL file {Pcbnew (22-Jun-2014 BZR 4027)-stable} date Paz 19 Nis 2020 21:47:52 +03
;FORMAT={-:-/ absolute / inch / decimal}
FMAT,2
INCH,TZ
T1C0.032
T2C0.035
T3C0.040
%
G90
G05
M72
T1
X1.15Y-1.5
X1.15Y-1.8
X1.15Y-2.
X1.15Y-2.3
X1.15Y-2.5
X1.15Y-2.8
X1.4Y-1.5
X1.4Y-1.8
X1.45Y-2.8
X1.5Y-1.5
X1.5Y-1.8
X1.5Y-2.2
X1.5Y-2.5
X1.6Y-1.5
X1.6Y-1.8
X1.6Y-2.2
X1.6Y-2.5
X1.7Y-1.5
X1.7Y-1.8
X1.7Y-2.2
X1.7Y-2.5
X1.75Y-2.8
X1.8Y-1.5
X1.8Y-1.8
X1.8Y-2.2
X1.8Y-2.5
X1.9Y-1.5
X1.9Y-1.8
X1.9Y-2.2
X1.9Y-2.5
X1.95Y-2.8
X2.Y-1.5
X2.Y-1.8
X2.Y-2.2
X2.Y-2.5
X2.05Y-2.8
X2.1Y-1.5
X2.1Y-1.8
X2.1Y-2.2
X2.1Y-2.5
X2.25Y-2.8
X2.45Y-1.5
X2.45Y-1.8
X2.55Y-1.5
X2.55Y-1.8
X2.55Y-2.2
X2.55Y-2.5
X2.55Y-2.8
X2.65Y-1.5
X2.65Y-1.8
X2.65Y-2.2
X2.65Y-2.5
X2.7Y-2.8
X2.75Y-1.5
X2.75Y-1.8
X2.75Y-2.2
X2.75Y-2.5
X2.85Y-1.5
X2.85Y-1.8
X2.85Y-2.2
X2.85Y-2.5
X2.95Y-1.5
X2.95Y-1.8
X2.95Y-2.2
X2.95Y-2.5
X3.Y-2.8
X3.05Y-1.5
X3.05Y-1.8
X3.05Y-2.2
X3.05Y-2.5
X3.15Y-1.5
X3.15Y-1.8
X3.15Y-2.2
X3.15Y-2.5
X3.15Y-2.8
X3.25Y-1.5
X3.25Y-1.8
X3.35Y-1.5
X3.35Y-1.8
X3.45Y-2.8
X3.6Y-2.2
X3.6Y-2.5
X3.6Y-2.8
X3.7Y-1.5
X3.7Y-1.8
X3.7Y-2.2
X3.7Y-2.5
X3.8Y-1.5
X3.8Y-1.8
X3.8Y-2.2
X3.8Y-2.5
X3.9Y-1.5
X3.9Y-1.8
X3.9Y-2.2
X3.9Y-2.5
X3.9Y-2.8
X4.Y-1.5
X4.Y-1.8
X4.Y-2.2
X4.Y-2.5
X4.05Y-2.8
X4.1Y-1.5
X4.1Y-1.8
X4.1Y-2.2
X4.1Y-2.5
X4.2Y-1.5
X4.2Y-1.8
X4.2Y-2.2
X4.2Y-2.5
X4.3Y-1.5
X4.3Y-1.8
X4.3Y-2.2
X4.3Y-2.5
X4.35Y-2.8
T2
X1.425Y-0.7
X1.425Y-3.6
X1.475Y-0.6
X1.475Y-3.5
X1.525Y-0.7
X1.525Y-3.6
X1.575Y-0.6
X1.575Y-3.5
X1.625Y-0.7
X1.625Y-3.6
X1.675Y-0.6
X1.675Y-3.5
X1.725Y-0.7
X1.725Y-3.6
X1.775Y-0.6
X1.775Y-3.5
X2.125Y-0.7
X2.125Y-3.6
X2.175Y-0.6
X2.175Y-3.5
X2.225Y-0.7
X2.225Y-3.6
X2.275Y-0.6
X2.275Y-3.5
X2.325Y-0.7
X2.325Y-3.6
X2.375Y-0.6
X2.375Y-3.5
X2.425Y-0.7
X2.425Y-3.6
X2.475Y-0.6
X2.475Y-3.5
X2.825Y-0.7
X2.825Y-3.6
X2.875Y-0.6
X2.875Y-3.5
X2.925Y-0.7
X2.925Y-3.6
X2.975Y-0.6
X2.975Y-3.5
X3.025Y-0.7
X3.025Y-3.6
X3.075Y-0.6
X3.075Y-3.5
X3.125Y-0.7
X3.125Y-3.6
X3.175Y-0.6
X3.175Y-3.5
X3.525Y-0.7
X3.525Y-3.6
X3.575Y-0.6
X3.575Y-3.5
X3.625Y-0.7
X3.625Y-3.6
X3.675Y-0.6
X3.675Y-3.5
X3.725Y-0.7
X3.725Y-3.6
X3.775Y-0.6
X3.775Y-3.5
X3.825Y-0.7
X3.825Y-3.6
X3.875Y-0.6
X3.875Y-3.5
T3
X0.7Y-1.15
X0.7Y-1.25
X0.7Y-1.35
X0.7Y-1.45
X0.7Y-1.55
X0.7Y-1.65
X0.7Y-1.75
X0.7Y-1.85
X0.7Y-1.95
X0.7Y-2.05
X0.7Y-2.15
X0.7Y-2.25
X0.7Y-2.35
X0.7Y-2.45
X0.7Y-2.55
X0.7Y-2.65
X0.7Y-2.75
X0.7Y-2.85
X0.7Y-2.95
X0.7Y-3.05
X0.8Y-1.15
X0.8Y-1.25
X0.8Y-1.35
X0.8Y-1.45
X0.8Y-1.55
X0.8Y-1.65
X0.8Y-1.75
X0.8Y-1.85
X0.8Y-1.95
X0.8Y-2.05
X0.8Y-2.15
X0.8Y-2.25
X0.8Y-2.35
X0.8Y-2.45
X0.8Y-2.55
X0.8Y-2.65
X0.8Y-2.75
X0.8Y-2.85
X0.8Y-2.95
X0.8Y-3.05
T0
M30
