G04 (created by PCBNEW (22-Jun-2014 BZR 4027)-stable) date Paz 19 Nis 2020 21:47:35 +03*
%MOIN*%
G04 Gerber Fmt 3.4, Leading zero omitted, Abs format*
%FSLAX34Y34*%
G01*
G70*
G90*
G04 APERTURE LIST*
%ADD10C,0.00590551*%
%ADD11C,0.005*%
%ADD12C,0.008*%
%ADD13C,0.012*%
%ADD14C,0.015*%
%ADD15C,0.01*%
%ADD16C,0.0108*%
%ADD17C,0.01125*%
G04 APERTURE END LIST*
G54D10*
G54D11*
X34000Y-12600D02*
X40000Y-12600D01*
X40000Y-12600D02*
X40000Y-5500D01*
X40000Y-5500D02*
X34000Y-5500D01*
X34000Y-5500D02*
X34000Y-12600D01*
X27000Y-12600D02*
X33000Y-12600D01*
X33000Y-12600D02*
X33000Y-5500D01*
X33000Y-5500D02*
X27000Y-5500D01*
X27000Y-5500D02*
X27000Y-12600D01*
X20000Y-12600D02*
X26000Y-12600D01*
X26000Y-12600D02*
X26000Y-5500D01*
X26000Y-5500D02*
X20000Y-5500D01*
X20000Y-5500D02*
X20000Y-12600D01*
X13000Y-12600D02*
X19000Y-12600D01*
X19000Y-12600D02*
X19000Y-5500D01*
X19000Y-5500D02*
X13000Y-5500D01*
X13000Y-5500D02*
X13000Y-12600D01*
G54D12*
X11500Y-18000D02*
X11500Y-17800D01*
X11500Y-15000D02*
X11500Y-15200D01*
X11500Y-15200D02*
X11100Y-15200D01*
X11100Y-15200D02*
X11100Y-17800D01*
X11100Y-17800D02*
X11900Y-17800D01*
X11900Y-17800D02*
X11900Y-15200D01*
X11900Y-15200D02*
X11500Y-15200D01*
X11300Y-17800D02*
X11100Y-17600D01*
X39000Y-28000D02*
X38800Y-28000D01*
X36000Y-28000D02*
X36200Y-28000D01*
X36200Y-28000D02*
X36200Y-28400D01*
X36200Y-28400D02*
X38800Y-28400D01*
X38800Y-28400D02*
X38800Y-27600D01*
X38800Y-27600D02*
X36200Y-27600D01*
X36200Y-27600D02*
X36200Y-28000D01*
X38800Y-28200D02*
X38600Y-28400D01*
X43500Y-28000D02*
X43300Y-28000D01*
X40500Y-28000D02*
X40700Y-28000D01*
X40700Y-28000D02*
X40700Y-28400D01*
X40700Y-28400D02*
X43300Y-28400D01*
X43300Y-28400D02*
X43300Y-27600D01*
X43300Y-27600D02*
X40700Y-27600D01*
X40700Y-27600D02*
X40700Y-28000D01*
X43300Y-28200D02*
X43100Y-28400D01*
X27000Y-28000D02*
X27200Y-28000D01*
X30000Y-28000D02*
X29800Y-28000D01*
X29800Y-28000D02*
X29800Y-27600D01*
X29800Y-27600D02*
X27200Y-27600D01*
X27200Y-27600D02*
X27200Y-28400D01*
X27200Y-28400D02*
X29800Y-28400D01*
X29800Y-28400D02*
X29800Y-28000D01*
X27200Y-27800D02*
X27400Y-27600D01*
X14500Y-28000D02*
X14700Y-28000D01*
X17500Y-28000D02*
X17300Y-28000D01*
X17300Y-28000D02*
X17300Y-27600D01*
X17300Y-27600D02*
X14700Y-27600D01*
X14700Y-27600D02*
X14700Y-28400D01*
X14700Y-28400D02*
X17300Y-28400D01*
X17300Y-28400D02*
X17300Y-28000D01*
X14700Y-27800D02*
X14900Y-27600D01*
X25500Y-28000D02*
X25300Y-28000D01*
X22500Y-28000D02*
X22700Y-28000D01*
X22700Y-28000D02*
X22700Y-28400D01*
X22700Y-28400D02*
X25300Y-28400D01*
X25300Y-28400D02*
X25300Y-27600D01*
X25300Y-27600D02*
X22700Y-27600D01*
X22700Y-27600D02*
X22700Y-28000D01*
X25300Y-28200D02*
X25100Y-28400D01*
G54D13*
X6500Y-31000D02*
X6500Y-11000D01*
X8500Y-31000D02*
X8500Y-11000D01*
X8500Y-31000D02*
X6500Y-31000D01*
X8500Y-11000D02*
X6500Y-11000D01*
G54D14*
X23500Y-16000D02*
X24000Y-16000D01*
X24000Y-16000D02*
X24000Y-17000D01*
X24000Y-17000D02*
X23500Y-17000D01*
X23500Y-15500D02*
X34500Y-15500D01*
X34500Y-15500D02*
X34500Y-17500D01*
X34500Y-17500D02*
X23500Y-17500D01*
X23500Y-17500D02*
X23500Y-15500D01*
X35000Y-23000D02*
X35000Y-23000D01*
X35000Y-23000D02*
X35500Y-23000D01*
X35500Y-23000D02*
X35500Y-24000D01*
X35500Y-24000D02*
X35000Y-24000D01*
X35000Y-22500D02*
X44000Y-22500D01*
X44000Y-22500D02*
X44000Y-24500D01*
X44000Y-24500D02*
X35000Y-24500D01*
X35000Y-24500D02*
X35000Y-22500D01*
X13000Y-16000D02*
X13000Y-16000D01*
X13000Y-16000D02*
X13500Y-16000D01*
X13500Y-16000D02*
X13500Y-17000D01*
X13500Y-17000D02*
X13000Y-17000D01*
X13000Y-15500D02*
X22000Y-15500D01*
X22000Y-15500D02*
X22000Y-17500D01*
X22000Y-17500D02*
X13000Y-17500D01*
X13000Y-17500D02*
X13000Y-15500D01*
X36000Y-15500D02*
X44000Y-15500D01*
X44000Y-17500D02*
X36000Y-17500D01*
X36000Y-17500D02*
X36000Y-15500D01*
X36000Y-16000D02*
X36500Y-16000D01*
X36500Y-16000D02*
X36500Y-17000D01*
X36500Y-17000D02*
X36000Y-17000D01*
X44000Y-15500D02*
X44000Y-17500D01*
X24500Y-22500D02*
X32500Y-22500D01*
X32500Y-24500D02*
X24500Y-24500D01*
X24500Y-24500D02*
X24500Y-22500D01*
X24500Y-23000D02*
X25000Y-23000D01*
X25000Y-23000D02*
X25000Y-24000D01*
X25000Y-24000D02*
X24500Y-24000D01*
X32500Y-22500D02*
X32500Y-24500D01*
X14000Y-22500D02*
X22000Y-22500D01*
X22000Y-24500D02*
X14000Y-24500D01*
X14000Y-24500D02*
X14000Y-22500D01*
X14000Y-23000D02*
X14500Y-23000D01*
X14500Y-23000D02*
X14500Y-24000D01*
X14500Y-24000D02*
X14000Y-24000D01*
X22000Y-22500D02*
X22000Y-24500D01*
G54D13*
X11500Y-20000D02*
X11500Y-20300D01*
X11500Y-20300D02*
X11100Y-20300D01*
X11100Y-20300D02*
X11100Y-22700D01*
X11100Y-22700D02*
X11500Y-22700D01*
X11500Y-22700D02*
X11500Y-23000D01*
X11500Y-22700D02*
X11900Y-22700D01*
X11900Y-22700D02*
X11900Y-20300D01*
X11900Y-20300D02*
X11500Y-20300D01*
X11100Y-20500D02*
X11900Y-20500D01*
X11900Y-20600D02*
X11100Y-20600D01*
X11500Y-28000D02*
X11500Y-27700D01*
X11500Y-27700D02*
X11900Y-27700D01*
X11900Y-27700D02*
X11900Y-25300D01*
X11900Y-25300D02*
X11500Y-25300D01*
X11500Y-25300D02*
X11500Y-25000D01*
X11500Y-25300D02*
X11100Y-25300D01*
X11100Y-25300D02*
X11100Y-27700D01*
X11100Y-27700D02*
X11500Y-27700D01*
X11900Y-27500D02*
X11100Y-27500D01*
X11100Y-27400D02*
X11900Y-27400D01*
X34500Y-28000D02*
X34200Y-28000D01*
X34200Y-28000D02*
X34200Y-27600D01*
X34200Y-27600D02*
X31800Y-27600D01*
X31800Y-27600D02*
X31800Y-28000D01*
X31800Y-28000D02*
X31500Y-28000D01*
X31800Y-28000D02*
X31800Y-28400D01*
X31800Y-28400D02*
X34200Y-28400D01*
X34200Y-28400D02*
X34200Y-28000D01*
X34000Y-27600D02*
X34000Y-28400D01*
X33900Y-28400D02*
X33900Y-27600D01*
X19020Y-27500D02*
X21000Y-27500D01*
X21000Y-27500D02*
X21000Y-28500D01*
X21000Y-28500D02*
X19000Y-28500D01*
X19000Y-28500D02*
X19000Y-27500D01*
X19000Y-27750D02*
X19250Y-27500D01*
G54D11*
X40000Y-29400D02*
X34000Y-29400D01*
X34000Y-29400D02*
X34000Y-36500D01*
X34000Y-36500D02*
X40000Y-36500D01*
X40000Y-36500D02*
X40000Y-29400D01*
X33000Y-29400D02*
X27000Y-29400D01*
X27000Y-29400D02*
X27000Y-36500D01*
X27000Y-36500D02*
X33000Y-36500D01*
X33000Y-36500D02*
X33000Y-29400D01*
X26000Y-29400D02*
X20000Y-29400D01*
X20000Y-29400D02*
X20000Y-36500D01*
X20000Y-36500D02*
X26000Y-36500D01*
X26000Y-36500D02*
X26000Y-29400D01*
X19000Y-29400D02*
X13000Y-29400D01*
X13000Y-29400D02*
X13000Y-36500D01*
X13000Y-36500D02*
X19000Y-36500D01*
X19000Y-36500D02*
X19000Y-29400D01*
G54D13*
X36900Y-11042D02*
X36900Y-11471D01*
X36871Y-11557D01*
X36814Y-11614D01*
X36728Y-11642D01*
X36671Y-11642D01*
X37471Y-11042D02*
X37185Y-11042D01*
X37157Y-11328D01*
X37185Y-11300D01*
X37242Y-11271D01*
X37385Y-11271D01*
X37442Y-11300D01*
X37471Y-11328D01*
X37500Y-11385D01*
X37500Y-11528D01*
X37471Y-11585D01*
X37442Y-11614D01*
X37385Y-11642D01*
X37242Y-11642D01*
X37185Y-11614D01*
X37157Y-11585D01*
G54D12*
X36314Y-9619D02*
X36183Y-9431D01*
X36089Y-9619D02*
X36089Y-9225D01*
X36239Y-9225D01*
X36277Y-9244D01*
X36296Y-9263D01*
X36314Y-9300D01*
X36314Y-9356D01*
X36296Y-9394D01*
X36277Y-9413D01*
X36239Y-9431D01*
X36089Y-9431D01*
X36596Y-9225D02*
X36596Y-9506D01*
X36577Y-9563D01*
X36540Y-9600D01*
X36483Y-9619D01*
X36446Y-9619D01*
X36952Y-9356D02*
X36952Y-9619D01*
X36859Y-9206D02*
X36765Y-9488D01*
X37009Y-9488D01*
X37346Y-9225D02*
X37159Y-9225D01*
X37140Y-9413D01*
X37159Y-9394D01*
X37196Y-9375D01*
X37290Y-9375D01*
X37328Y-9394D01*
X37346Y-9413D01*
X37365Y-9450D01*
X37365Y-9544D01*
X37346Y-9581D01*
X37328Y-9600D01*
X37290Y-9619D01*
X37196Y-9619D01*
X37159Y-9600D01*
X37140Y-9581D01*
X37440Y-9657D02*
X37740Y-9657D01*
X37815Y-9263D02*
X37834Y-9244D01*
X37872Y-9225D01*
X37965Y-9225D01*
X38003Y-9244D01*
X38022Y-9263D01*
X38041Y-9300D01*
X38041Y-9338D01*
X38022Y-9394D01*
X37797Y-9619D01*
X38041Y-9619D01*
G54D13*
X29900Y-11042D02*
X29900Y-11471D01*
X29871Y-11557D01*
X29814Y-11614D01*
X29728Y-11642D01*
X29671Y-11642D01*
X30442Y-11242D02*
X30442Y-11642D01*
X30300Y-11014D02*
X30157Y-11442D01*
X30528Y-11442D01*
G54D12*
X29314Y-9619D02*
X29183Y-9431D01*
X29089Y-9619D02*
X29089Y-9225D01*
X29239Y-9225D01*
X29277Y-9244D01*
X29296Y-9263D01*
X29314Y-9300D01*
X29314Y-9356D01*
X29296Y-9394D01*
X29277Y-9413D01*
X29239Y-9431D01*
X29089Y-9431D01*
X29596Y-9225D02*
X29596Y-9506D01*
X29577Y-9563D01*
X29540Y-9600D01*
X29483Y-9619D01*
X29446Y-9619D01*
X29952Y-9356D02*
X29952Y-9619D01*
X29859Y-9206D02*
X29765Y-9488D01*
X30009Y-9488D01*
X30346Y-9225D02*
X30159Y-9225D01*
X30140Y-9413D01*
X30159Y-9394D01*
X30196Y-9375D01*
X30290Y-9375D01*
X30328Y-9394D01*
X30346Y-9413D01*
X30365Y-9450D01*
X30365Y-9544D01*
X30346Y-9581D01*
X30328Y-9600D01*
X30290Y-9619D01*
X30196Y-9619D01*
X30159Y-9600D01*
X30140Y-9581D01*
X30440Y-9657D02*
X30740Y-9657D01*
X30815Y-9263D02*
X30834Y-9244D01*
X30872Y-9225D01*
X30965Y-9225D01*
X31003Y-9244D01*
X31022Y-9263D01*
X31041Y-9300D01*
X31041Y-9338D01*
X31022Y-9394D01*
X30797Y-9619D01*
X31041Y-9619D01*
G54D13*
X22800Y-11142D02*
X22800Y-11571D01*
X22771Y-11657D01*
X22714Y-11714D01*
X22628Y-11742D01*
X22571Y-11742D01*
X23028Y-11142D02*
X23400Y-11142D01*
X23200Y-11371D01*
X23285Y-11371D01*
X23342Y-11400D01*
X23371Y-11428D01*
X23400Y-11485D01*
X23400Y-11628D01*
X23371Y-11685D01*
X23342Y-11714D01*
X23285Y-11742D01*
X23114Y-11742D01*
X23057Y-11714D01*
X23028Y-11685D01*
G54D12*
X22314Y-9619D02*
X22183Y-9431D01*
X22089Y-9619D02*
X22089Y-9225D01*
X22239Y-9225D01*
X22277Y-9244D01*
X22296Y-9263D01*
X22314Y-9300D01*
X22314Y-9356D01*
X22296Y-9394D01*
X22277Y-9413D01*
X22239Y-9431D01*
X22089Y-9431D01*
X22596Y-9225D02*
X22596Y-9506D01*
X22577Y-9563D01*
X22540Y-9600D01*
X22483Y-9619D01*
X22446Y-9619D01*
X22952Y-9356D02*
X22952Y-9619D01*
X22859Y-9206D02*
X22765Y-9488D01*
X23009Y-9488D01*
X23346Y-9225D02*
X23159Y-9225D01*
X23140Y-9413D01*
X23159Y-9394D01*
X23196Y-9375D01*
X23290Y-9375D01*
X23328Y-9394D01*
X23346Y-9413D01*
X23365Y-9450D01*
X23365Y-9544D01*
X23346Y-9581D01*
X23328Y-9600D01*
X23290Y-9619D01*
X23196Y-9619D01*
X23159Y-9600D01*
X23140Y-9581D01*
X23440Y-9657D02*
X23740Y-9657D01*
X23815Y-9263D02*
X23834Y-9244D01*
X23872Y-9225D01*
X23965Y-9225D01*
X24003Y-9244D01*
X24022Y-9263D01*
X24041Y-9300D01*
X24041Y-9338D01*
X24022Y-9394D01*
X23797Y-9619D01*
X24041Y-9619D01*
G54D13*
X15900Y-11042D02*
X15900Y-11471D01*
X15871Y-11557D01*
X15814Y-11614D01*
X15728Y-11642D01*
X15671Y-11642D01*
X16157Y-11100D02*
X16185Y-11071D01*
X16242Y-11042D01*
X16385Y-11042D01*
X16442Y-11071D01*
X16471Y-11100D01*
X16500Y-11157D01*
X16500Y-11214D01*
X16471Y-11300D01*
X16128Y-11642D01*
X16500Y-11642D01*
G54D12*
X15314Y-9619D02*
X15183Y-9431D01*
X15089Y-9619D02*
X15089Y-9225D01*
X15239Y-9225D01*
X15277Y-9244D01*
X15296Y-9263D01*
X15314Y-9300D01*
X15314Y-9356D01*
X15296Y-9394D01*
X15277Y-9413D01*
X15239Y-9431D01*
X15089Y-9431D01*
X15596Y-9225D02*
X15596Y-9506D01*
X15577Y-9563D01*
X15540Y-9600D01*
X15483Y-9619D01*
X15446Y-9619D01*
X15952Y-9356D02*
X15952Y-9619D01*
X15859Y-9206D02*
X15765Y-9488D01*
X16009Y-9488D01*
X16346Y-9225D02*
X16159Y-9225D01*
X16140Y-9413D01*
X16159Y-9394D01*
X16196Y-9375D01*
X16290Y-9375D01*
X16328Y-9394D01*
X16346Y-9413D01*
X16365Y-9450D01*
X16365Y-9544D01*
X16346Y-9581D01*
X16328Y-9600D01*
X16290Y-9619D01*
X16196Y-9619D01*
X16159Y-9600D01*
X16140Y-9581D01*
X16440Y-9657D02*
X16740Y-9657D01*
X16815Y-9263D02*
X16834Y-9244D01*
X16872Y-9225D01*
X16965Y-9225D01*
X17003Y-9244D01*
X17022Y-9263D01*
X17041Y-9300D01*
X17041Y-9338D01*
X17022Y-9394D01*
X16797Y-9619D01*
X17041Y-9619D01*
X11722Y-16845D02*
X11722Y-17130D01*
X11722Y-16988D02*
X11172Y-16988D01*
X11251Y-17035D01*
X11303Y-17083D01*
X11329Y-17130D01*
X11172Y-16535D02*
X11172Y-16488D01*
X11198Y-16440D01*
X11225Y-16416D01*
X11277Y-16392D01*
X11382Y-16369D01*
X11513Y-16369D01*
X11617Y-16392D01*
X11670Y-16416D01*
X11696Y-16440D01*
X11722Y-16488D01*
X11722Y-16535D01*
X11696Y-16583D01*
X11670Y-16607D01*
X11617Y-16630D01*
X11513Y-16654D01*
X11382Y-16654D01*
X11277Y-16630D01*
X11225Y-16607D01*
X11198Y-16583D01*
X11172Y-16535D01*
X11722Y-16154D02*
X11172Y-16154D01*
X11722Y-15869D02*
X11408Y-16083D01*
X11172Y-15869D02*
X11486Y-16154D01*
X36726Y-27622D02*
X37035Y-27622D01*
X36869Y-27832D01*
X36940Y-27832D01*
X36988Y-27858D01*
X37011Y-27884D01*
X37035Y-27936D01*
X37035Y-28067D01*
X37011Y-28120D01*
X36988Y-28146D01*
X36940Y-28172D01*
X36797Y-28172D01*
X36750Y-28146D01*
X36726Y-28120D01*
X37250Y-28120D02*
X37273Y-28146D01*
X37250Y-28172D01*
X37226Y-28146D01*
X37250Y-28120D01*
X37250Y-28172D01*
X37440Y-27622D02*
X37750Y-27622D01*
X37583Y-27832D01*
X37654Y-27832D01*
X37702Y-27858D01*
X37726Y-27884D01*
X37750Y-27936D01*
X37750Y-28067D01*
X37726Y-28120D01*
X37702Y-28146D01*
X37654Y-28172D01*
X37511Y-28172D01*
X37464Y-28146D01*
X37440Y-28120D01*
X37964Y-28172D02*
X37964Y-27622D01*
X38250Y-28172D02*
X38035Y-27858D01*
X38250Y-27622D02*
X37964Y-27936D01*
X41250Y-27675D02*
X41273Y-27648D01*
X41321Y-27622D01*
X41440Y-27622D01*
X41488Y-27648D01*
X41511Y-27675D01*
X41535Y-27727D01*
X41535Y-27779D01*
X41511Y-27858D01*
X41226Y-28172D01*
X41535Y-28172D01*
X41750Y-28120D02*
X41773Y-28146D01*
X41750Y-28172D01*
X41726Y-28146D01*
X41750Y-28120D01*
X41750Y-28172D01*
X41964Y-27675D02*
X41988Y-27648D01*
X42035Y-27622D01*
X42154Y-27622D01*
X42202Y-27648D01*
X42226Y-27675D01*
X42250Y-27727D01*
X42250Y-27779D01*
X42226Y-27858D01*
X41940Y-28172D01*
X42250Y-28172D01*
X42464Y-28172D02*
X42464Y-27622D01*
X42750Y-28172D02*
X42535Y-27858D01*
X42750Y-27622D02*
X42464Y-27936D01*
X28154Y-28272D02*
X27869Y-28272D01*
X28011Y-28272D02*
X28011Y-27722D01*
X27964Y-27801D01*
X27916Y-27853D01*
X27869Y-27879D01*
X28464Y-27722D02*
X28511Y-27722D01*
X28559Y-27748D01*
X28583Y-27775D01*
X28607Y-27827D01*
X28630Y-27932D01*
X28630Y-28063D01*
X28607Y-28167D01*
X28583Y-28220D01*
X28559Y-28246D01*
X28511Y-28272D01*
X28464Y-28272D01*
X28416Y-28246D01*
X28392Y-28220D01*
X28369Y-28167D01*
X28345Y-28063D01*
X28345Y-27932D01*
X28369Y-27827D01*
X28392Y-27775D01*
X28416Y-27748D01*
X28464Y-27722D01*
X28845Y-28272D02*
X28845Y-27722D01*
X29130Y-28272D02*
X28916Y-27958D01*
X29130Y-27722D02*
X28845Y-28036D01*
X15654Y-28222D02*
X15369Y-28222D01*
X15511Y-28222D02*
X15511Y-27672D01*
X15464Y-27751D01*
X15416Y-27803D01*
X15369Y-27829D01*
X15964Y-27672D02*
X16011Y-27672D01*
X16059Y-27698D01*
X16083Y-27725D01*
X16107Y-27777D01*
X16130Y-27882D01*
X16130Y-28013D01*
X16107Y-28117D01*
X16083Y-28170D01*
X16059Y-28196D01*
X16011Y-28222D01*
X15964Y-28222D01*
X15916Y-28196D01*
X15892Y-28170D01*
X15869Y-28117D01*
X15845Y-28013D01*
X15845Y-27882D01*
X15869Y-27777D01*
X15892Y-27725D01*
X15916Y-27698D01*
X15964Y-27672D01*
X16345Y-28222D02*
X16345Y-27672D01*
X16630Y-28222D02*
X16416Y-27908D01*
X16630Y-27672D02*
X16345Y-27986D01*
X23654Y-28172D02*
X23369Y-28172D01*
X23511Y-28172D02*
X23511Y-27622D01*
X23464Y-27701D01*
X23416Y-27753D01*
X23369Y-27779D01*
X23964Y-27622D02*
X24011Y-27622D01*
X24059Y-27648D01*
X24083Y-27675D01*
X24107Y-27727D01*
X24130Y-27832D01*
X24130Y-27963D01*
X24107Y-28067D01*
X24083Y-28120D01*
X24059Y-28146D01*
X24011Y-28172D01*
X23964Y-28172D01*
X23916Y-28146D01*
X23892Y-28120D01*
X23869Y-28067D01*
X23845Y-27963D01*
X23845Y-27832D01*
X23869Y-27727D01*
X23892Y-27675D01*
X23916Y-27648D01*
X23964Y-27622D01*
X24345Y-28172D02*
X24345Y-27622D01*
X24630Y-28172D02*
X24416Y-27858D01*
X24630Y-27622D02*
X24345Y-27936D01*
G54D15*
X9161Y-21295D02*
X8761Y-21295D01*
X8761Y-21142D01*
X8780Y-21104D01*
X8800Y-21085D01*
X8838Y-21066D01*
X8895Y-21066D01*
X8933Y-21085D01*
X8952Y-21104D01*
X8971Y-21142D01*
X8971Y-21295D01*
X9161Y-20685D02*
X9161Y-20914D01*
X9161Y-20799D02*
X8761Y-20799D01*
X8819Y-20838D01*
X8857Y-20876D01*
X8876Y-20914D01*
G54D16*
G54D12*
X6161Y-23076D02*
X5971Y-23209D01*
X6161Y-23304D02*
X5761Y-23304D01*
X5761Y-23152D01*
X5780Y-23114D01*
X5800Y-23095D01*
X5838Y-23076D01*
X5895Y-23076D01*
X5933Y-23095D01*
X5952Y-23114D01*
X5971Y-23152D01*
X5971Y-23304D01*
X6047Y-22923D02*
X6047Y-22733D01*
X6161Y-22961D02*
X5761Y-22828D01*
X6161Y-22695D01*
X6142Y-22580D02*
X6161Y-22523D01*
X6161Y-22428D01*
X6142Y-22390D01*
X6123Y-22371D01*
X6085Y-22352D01*
X6047Y-22352D01*
X6009Y-22371D01*
X5990Y-22390D01*
X5971Y-22428D01*
X5952Y-22504D01*
X5933Y-22542D01*
X5914Y-22561D01*
X5876Y-22580D01*
X5838Y-22580D01*
X5800Y-22561D01*
X5780Y-22542D01*
X5761Y-22504D01*
X5761Y-22409D01*
X5780Y-22352D01*
X6161Y-22180D02*
X5761Y-22180D01*
X5761Y-22028D01*
X5780Y-21990D01*
X5800Y-21971D01*
X5838Y-21952D01*
X5895Y-21952D01*
X5933Y-21971D01*
X5952Y-21990D01*
X5971Y-22028D01*
X5971Y-22180D01*
X5952Y-21647D02*
X5971Y-21590D01*
X5990Y-21571D01*
X6028Y-21552D01*
X6085Y-21552D01*
X6123Y-21571D01*
X6142Y-21590D01*
X6161Y-21628D01*
X6161Y-21780D01*
X5761Y-21780D01*
X5761Y-21647D01*
X5780Y-21609D01*
X5800Y-21590D01*
X5838Y-21571D01*
X5876Y-21571D01*
X5914Y-21590D01*
X5933Y-21609D01*
X5952Y-21647D01*
X5952Y-21780D01*
X5952Y-21380D02*
X5952Y-21247D01*
X6161Y-21190D02*
X6161Y-21380D01*
X5761Y-21380D01*
X5761Y-21190D01*
X6161Y-20790D02*
X5971Y-20923D01*
X6161Y-21019D02*
X5761Y-21019D01*
X5761Y-20866D01*
X5780Y-20828D01*
X5800Y-20809D01*
X5838Y-20790D01*
X5895Y-20790D01*
X5933Y-20809D01*
X5952Y-20828D01*
X5971Y-20866D01*
X5971Y-21019D01*
X6161Y-20390D02*
X5971Y-20523D01*
X6161Y-20619D02*
X5761Y-20619D01*
X5761Y-20466D01*
X5780Y-20428D01*
X5800Y-20409D01*
X5838Y-20390D01*
X5895Y-20390D01*
X5933Y-20409D01*
X5952Y-20428D01*
X5971Y-20466D01*
X5971Y-20619D01*
X5971Y-20142D02*
X6161Y-20142D01*
X5761Y-20276D02*
X5971Y-20142D01*
X5761Y-20009D01*
X6200Y-19971D02*
X6200Y-19666D01*
X6161Y-19571D02*
X5761Y-19571D01*
X5952Y-19571D02*
X5952Y-19342D01*
X6161Y-19342D02*
X5761Y-19342D01*
X6047Y-19171D02*
X6047Y-18980D01*
X6161Y-19209D02*
X5761Y-19076D01*
X6161Y-18942D01*
X5761Y-18866D02*
X5761Y-18638D01*
X6161Y-18752D02*
X5761Y-18752D01*
G54D17*
X25157Y-15583D02*
X25157Y-16150D01*
X25178Y-16216D01*
X25200Y-16250D01*
X25242Y-16283D01*
X25328Y-16283D01*
X25371Y-16250D01*
X25392Y-16216D01*
X25414Y-16150D01*
X25414Y-15583D01*
X25821Y-15816D02*
X25821Y-16283D01*
X25714Y-15550D02*
X25607Y-16050D01*
X25885Y-16050D01*
G54D13*
G54D17*
X28996Y-16483D02*
X29296Y-16483D01*
X29103Y-17183D01*
X29660Y-16716D02*
X29660Y-17183D01*
X29553Y-16450D02*
X29446Y-16950D01*
X29725Y-16950D01*
X30110Y-17183D02*
X29896Y-17183D01*
X29896Y-16483D01*
X30239Y-17150D02*
X30303Y-17183D01*
X30410Y-17183D01*
X30453Y-17150D01*
X30475Y-17116D01*
X30496Y-17050D01*
X30496Y-16983D01*
X30475Y-16916D01*
X30453Y-16883D01*
X30410Y-16850D01*
X30325Y-16816D01*
X30282Y-16783D01*
X30260Y-16750D01*
X30239Y-16683D01*
X30239Y-16616D01*
X30260Y-16550D01*
X30282Y-16516D01*
X30325Y-16483D01*
X30432Y-16483D01*
X30496Y-16516D01*
X30646Y-16483D02*
X30925Y-16483D01*
X30775Y-16750D01*
X30839Y-16750D01*
X30882Y-16783D01*
X30903Y-16816D01*
X30925Y-16883D01*
X30925Y-17050D01*
X30903Y-17116D01*
X30882Y-17150D01*
X30839Y-17183D01*
X30710Y-17183D01*
X30667Y-17150D01*
X30646Y-17116D01*
X31075Y-16483D02*
X31375Y-16483D01*
X31182Y-17183D01*
X31503Y-16483D02*
X31782Y-16483D01*
X31632Y-16750D01*
X31696Y-16750D01*
X31739Y-16783D01*
X31760Y-16816D01*
X31782Y-16883D01*
X31782Y-17050D01*
X31760Y-17116D01*
X31739Y-17150D01*
X31696Y-17183D01*
X31567Y-17183D01*
X31524Y-17150D01*
X31503Y-17116D01*
G54D13*
G54D17*
X36657Y-22642D02*
X36657Y-23128D01*
X36678Y-23185D01*
X36700Y-23214D01*
X36742Y-23242D01*
X36828Y-23242D01*
X36871Y-23214D01*
X36892Y-23185D01*
X36914Y-23128D01*
X36914Y-22642D01*
X37321Y-22642D02*
X37235Y-22642D01*
X37192Y-22671D01*
X37171Y-22700D01*
X37128Y-22785D01*
X37107Y-22900D01*
X37107Y-23128D01*
X37128Y-23185D01*
X37150Y-23214D01*
X37192Y-23242D01*
X37278Y-23242D01*
X37321Y-23214D01*
X37342Y-23185D01*
X37364Y-23128D01*
X37364Y-22985D01*
X37342Y-22928D01*
X37321Y-22900D01*
X37278Y-22871D01*
X37192Y-22871D01*
X37150Y-22900D01*
X37128Y-22928D01*
X37107Y-22985D01*
G54D13*
G54D17*
X38596Y-23642D02*
X38896Y-23642D01*
X38703Y-24242D01*
X39260Y-23842D02*
X39260Y-24242D01*
X39153Y-23614D02*
X39046Y-24042D01*
X39325Y-24042D01*
X39710Y-24242D02*
X39496Y-24242D01*
X39496Y-23642D01*
X39839Y-24214D02*
X39903Y-24242D01*
X40010Y-24242D01*
X40053Y-24214D01*
X40075Y-24185D01*
X40096Y-24128D01*
X40096Y-24071D01*
X40075Y-24014D01*
X40053Y-23985D01*
X40010Y-23957D01*
X39925Y-23928D01*
X39882Y-23900D01*
X39860Y-23871D01*
X39839Y-23814D01*
X39839Y-23757D01*
X39860Y-23700D01*
X39882Y-23671D01*
X39925Y-23642D01*
X40032Y-23642D01*
X40096Y-23671D01*
X40525Y-24242D02*
X40267Y-24242D01*
X40396Y-24242D02*
X40396Y-23642D01*
X40353Y-23728D01*
X40310Y-23785D01*
X40267Y-23814D01*
X40910Y-23642D02*
X40825Y-23642D01*
X40782Y-23671D01*
X40760Y-23700D01*
X40717Y-23785D01*
X40696Y-23900D01*
X40696Y-24128D01*
X40717Y-24185D01*
X40739Y-24214D01*
X40782Y-24242D01*
X40867Y-24242D01*
X40910Y-24214D01*
X40932Y-24185D01*
X40953Y-24128D01*
X40953Y-23985D01*
X40932Y-23928D01*
X40910Y-23900D01*
X40867Y-23871D01*
X40782Y-23871D01*
X40739Y-23900D01*
X40717Y-23928D01*
X40696Y-23985D01*
X41360Y-23642D02*
X41146Y-23642D01*
X41124Y-23928D01*
X41146Y-23900D01*
X41189Y-23871D01*
X41296Y-23871D01*
X41339Y-23900D01*
X41360Y-23928D01*
X41382Y-23985D01*
X41382Y-24128D01*
X41360Y-24185D01*
X41339Y-24214D01*
X41296Y-24242D01*
X41189Y-24242D01*
X41146Y-24214D01*
X41124Y-24185D01*
G54D13*
G54D17*
X14657Y-15642D02*
X14657Y-16128D01*
X14678Y-16185D01*
X14700Y-16214D01*
X14742Y-16242D01*
X14828Y-16242D01*
X14871Y-16214D01*
X14892Y-16185D01*
X14914Y-16128D01*
X14914Y-15642D01*
X15107Y-15700D02*
X15128Y-15671D01*
X15171Y-15642D01*
X15278Y-15642D01*
X15321Y-15671D01*
X15342Y-15700D01*
X15364Y-15757D01*
X15364Y-15814D01*
X15342Y-15900D01*
X15085Y-16242D01*
X15364Y-16242D01*
G54D13*
G54D17*
X16596Y-16642D02*
X16896Y-16642D01*
X16703Y-17242D01*
X17260Y-16842D02*
X17260Y-17242D01*
X17153Y-16614D02*
X17046Y-17042D01*
X17325Y-17042D01*
X17710Y-17242D02*
X17496Y-17242D01*
X17496Y-16642D01*
X17839Y-17214D02*
X17903Y-17242D01*
X18010Y-17242D01*
X18053Y-17214D01*
X18075Y-17185D01*
X18096Y-17128D01*
X18096Y-17071D01*
X18075Y-17014D01*
X18053Y-16985D01*
X18010Y-16957D01*
X17925Y-16928D01*
X17882Y-16900D01*
X17860Y-16871D01*
X17839Y-16814D01*
X17839Y-16757D01*
X17860Y-16700D01*
X17882Y-16671D01*
X17925Y-16642D01*
X18032Y-16642D01*
X18096Y-16671D01*
X18525Y-17242D02*
X18267Y-17242D01*
X18396Y-17242D02*
X18396Y-16642D01*
X18353Y-16728D01*
X18310Y-16785D01*
X18267Y-16814D01*
X18675Y-16642D02*
X18953Y-16642D01*
X18803Y-16871D01*
X18867Y-16871D01*
X18910Y-16900D01*
X18932Y-16928D01*
X18953Y-16985D01*
X18953Y-17128D01*
X18932Y-17185D01*
X18910Y-17214D01*
X18867Y-17242D01*
X18739Y-17242D01*
X18696Y-17214D01*
X18675Y-17185D01*
X19210Y-16900D02*
X19167Y-16871D01*
X19146Y-16842D01*
X19124Y-16785D01*
X19124Y-16757D01*
X19146Y-16700D01*
X19167Y-16671D01*
X19210Y-16642D01*
X19296Y-16642D01*
X19339Y-16671D01*
X19360Y-16700D01*
X19382Y-16757D01*
X19382Y-16785D01*
X19360Y-16842D01*
X19339Y-16871D01*
X19296Y-16900D01*
X19210Y-16900D01*
X19167Y-16928D01*
X19146Y-16957D01*
X19124Y-17014D01*
X19124Y-17128D01*
X19146Y-17185D01*
X19167Y-17214D01*
X19210Y-17242D01*
X19296Y-17242D01*
X19339Y-17214D01*
X19360Y-17185D01*
X19382Y-17128D01*
X19382Y-17014D01*
X19360Y-16957D01*
X19339Y-16928D01*
X19296Y-16900D01*
G54D13*
G54D17*
X37657Y-15642D02*
X37657Y-16128D01*
X37678Y-16185D01*
X37700Y-16214D01*
X37742Y-16242D01*
X37828Y-16242D01*
X37871Y-16214D01*
X37892Y-16185D01*
X37914Y-16128D01*
X37914Y-15642D01*
X38342Y-15642D02*
X38128Y-15642D01*
X38107Y-15928D01*
X38128Y-15900D01*
X38171Y-15871D01*
X38278Y-15871D01*
X38321Y-15900D01*
X38342Y-15928D01*
X38364Y-15985D01*
X38364Y-16128D01*
X38342Y-16185D01*
X38321Y-16214D01*
X38278Y-16242D01*
X38171Y-16242D01*
X38128Y-16214D01*
X38107Y-16185D01*
G54D13*
G54D17*
X39310Y-16642D02*
X39610Y-16642D01*
X39417Y-17242D01*
X39975Y-16842D02*
X39975Y-17242D01*
X39867Y-16614D02*
X39760Y-17042D01*
X40039Y-17042D01*
X40425Y-17242D02*
X40210Y-17242D01*
X40210Y-16642D01*
X40553Y-17214D02*
X40617Y-17242D01*
X40725Y-17242D01*
X40767Y-17214D01*
X40789Y-17185D01*
X40810Y-17128D01*
X40810Y-17071D01*
X40789Y-17014D01*
X40767Y-16985D01*
X40725Y-16957D01*
X40639Y-16928D01*
X40596Y-16900D01*
X40575Y-16871D01*
X40553Y-16814D01*
X40553Y-16757D01*
X40575Y-16700D01*
X40596Y-16671D01*
X40639Y-16642D01*
X40746Y-16642D01*
X40810Y-16671D01*
X40960Y-16642D02*
X41260Y-16642D01*
X41067Y-17242D01*
X41625Y-16842D02*
X41625Y-17242D01*
X41517Y-16614D02*
X41410Y-17042D01*
X41689Y-17042D01*
G54D13*
G54D17*
X26157Y-22642D02*
X26157Y-23128D01*
X26178Y-23185D01*
X26200Y-23214D01*
X26242Y-23242D01*
X26328Y-23242D01*
X26371Y-23214D01*
X26392Y-23185D01*
X26414Y-23128D01*
X26414Y-22642D01*
X26585Y-22642D02*
X26864Y-22642D01*
X26714Y-22871D01*
X26778Y-22871D01*
X26821Y-22900D01*
X26842Y-22928D01*
X26864Y-22985D01*
X26864Y-23128D01*
X26842Y-23185D01*
X26821Y-23214D01*
X26778Y-23242D01*
X26650Y-23242D01*
X26607Y-23214D01*
X26585Y-23185D01*
G54D13*
G54D17*
X27596Y-23642D02*
X27896Y-23642D01*
X27703Y-24242D01*
X28260Y-23842D02*
X28260Y-24242D01*
X28153Y-23614D02*
X28046Y-24042D01*
X28325Y-24042D01*
X28710Y-24242D02*
X28496Y-24242D01*
X28496Y-23642D01*
X28839Y-24214D02*
X28903Y-24242D01*
X29010Y-24242D01*
X29053Y-24214D01*
X29075Y-24185D01*
X29096Y-24128D01*
X29096Y-24071D01*
X29075Y-24014D01*
X29053Y-23985D01*
X29010Y-23957D01*
X28925Y-23928D01*
X28882Y-23900D01*
X28860Y-23871D01*
X28839Y-23814D01*
X28839Y-23757D01*
X28860Y-23700D01*
X28882Y-23671D01*
X28925Y-23642D01*
X29032Y-23642D01*
X29096Y-23671D01*
X29525Y-24242D02*
X29267Y-24242D01*
X29396Y-24242D02*
X29396Y-23642D01*
X29353Y-23728D01*
X29310Y-23785D01*
X29267Y-23814D01*
X29910Y-23642D02*
X29825Y-23642D01*
X29782Y-23671D01*
X29760Y-23700D01*
X29717Y-23785D01*
X29696Y-23900D01*
X29696Y-24128D01*
X29717Y-24185D01*
X29739Y-24214D01*
X29782Y-24242D01*
X29867Y-24242D01*
X29910Y-24214D01*
X29932Y-24185D01*
X29953Y-24128D01*
X29953Y-23985D01*
X29932Y-23928D01*
X29910Y-23900D01*
X29867Y-23871D01*
X29782Y-23871D01*
X29739Y-23900D01*
X29717Y-23928D01*
X29696Y-23985D01*
X30339Y-23842D02*
X30339Y-24242D01*
X30232Y-23614D02*
X30124Y-24042D01*
X30403Y-24042D01*
G54D13*
G54D17*
X15657Y-22642D02*
X15657Y-23128D01*
X15678Y-23185D01*
X15700Y-23214D01*
X15742Y-23242D01*
X15828Y-23242D01*
X15871Y-23214D01*
X15892Y-23185D01*
X15914Y-23128D01*
X15914Y-22642D01*
X16364Y-23242D02*
X16107Y-23242D01*
X16235Y-23242D02*
X16235Y-22642D01*
X16192Y-22728D01*
X16150Y-22785D01*
X16107Y-22814D01*
G54D13*
G54D17*
X16810Y-23142D02*
X17110Y-23142D01*
X16917Y-23742D01*
X17475Y-23342D02*
X17475Y-23742D01*
X17367Y-23114D02*
X17260Y-23542D01*
X17539Y-23542D01*
X17925Y-23742D02*
X17710Y-23742D01*
X17710Y-23142D01*
X18053Y-23714D02*
X18117Y-23742D01*
X18225Y-23742D01*
X18267Y-23714D01*
X18289Y-23685D01*
X18310Y-23628D01*
X18310Y-23571D01*
X18289Y-23514D01*
X18267Y-23485D01*
X18225Y-23457D01*
X18139Y-23428D01*
X18096Y-23400D01*
X18075Y-23371D01*
X18053Y-23314D01*
X18053Y-23257D01*
X18075Y-23200D01*
X18096Y-23171D01*
X18139Y-23142D01*
X18246Y-23142D01*
X18310Y-23171D01*
X18589Y-23142D02*
X18632Y-23142D01*
X18675Y-23171D01*
X18696Y-23200D01*
X18717Y-23257D01*
X18739Y-23371D01*
X18739Y-23514D01*
X18717Y-23628D01*
X18696Y-23685D01*
X18675Y-23714D01*
X18632Y-23742D01*
X18589Y-23742D01*
X18546Y-23714D01*
X18525Y-23685D01*
X18503Y-23628D01*
X18482Y-23514D01*
X18482Y-23371D01*
X18503Y-23257D01*
X18525Y-23200D01*
X18546Y-23171D01*
X18589Y-23142D01*
X19125Y-23342D02*
X19125Y-23742D01*
X19017Y-23114D02*
X18910Y-23542D01*
X19189Y-23542D01*
G54D13*
G54D12*
X11661Y-21795D02*
X11261Y-21795D01*
X11261Y-21699D01*
X11280Y-21642D01*
X11319Y-21604D01*
X11357Y-21585D01*
X11433Y-21566D01*
X11490Y-21566D01*
X11566Y-21585D01*
X11604Y-21604D01*
X11642Y-21642D01*
X11661Y-21699D01*
X11661Y-21795D01*
X11661Y-21185D02*
X11661Y-21414D01*
X11661Y-21299D02*
X11261Y-21299D01*
X11319Y-21338D01*
X11357Y-21376D01*
X11376Y-21414D01*
X11661Y-26795D02*
X11261Y-26795D01*
X11261Y-26699D01*
X11280Y-26642D01*
X11319Y-26604D01*
X11357Y-26585D01*
X11433Y-26566D01*
X11490Y-26566D01*
X11566Y-26585D01*
X11604Y-26604D01*
X11642Y-26642D01*
X11661Y-26699D01*
X11661Y-26795D01*
X11300Y-26414D02*
X11280Y-26395D01*
X11261Y-26357D01*
X11261Y-26261D01*
X11280Y-26223D01*
X11300Y-26204D01*
X11338Y-26185D01*
X11376Y-26185D01*
X11433Y-26204D01*
X11661Y-26433D01*
X11661Y-26185D01*
X32704Y-28161D02*
X32704Y-27761D01*
X32800Y-27761D01*
X32857Y-27780D01*
X32895Y-27819D01*
X32914Y-27857D01*
X32933Y-27933D01*
X32933Y-27990D01*
X32914Y-28066D01*
X32895Y-28104D01*
X32857Y-28142D01*
X32800Y-28161D01*
X32704Y-28161D01*
X33066Y-27761D02*
X33314Y-27761D01*
X33180Y-27914D01*
X33238Y-27914D01*
X33276Y-27933D01*
X33295Y-27952D01*
X33314Y-27990D01*
X33314Y-28085D01*
X33295Y-28123D01*
X33276Y-28142D01*
X33238Y-28161D01*
X33123Y-28161D01*
X33085Y-28142D01*
X33066Y-28123D01*
X20033Y-27223D02*
X20014Y-27242D01*
X19957Y-27261D01*
X19919Y-27261D01*
X19861Y-27242D01*
X19823Y-27204D01*
X19804Y-27166D01*
X19785Y-27090D01*
X19785Y-27033D01*
X19804Y-26957D01*
X19823Y-26919D01*
X19861Y-26880D01*
X19919Y-26861D01*
X19957Y-26861D01*
X20014Y-26880D01*
X20033Y-26900D01*
X20414Y-27261D02*
X20185Y-27261D01*
X20300Y-27261D02*
X20300Y-26861D01*
X20261Y-26919D01*
X20223Y-26957D01*
X20185Y-26976D01*
G54D13*
X36700Y-30242D02*
X36700Y-30671D01*
X36671Y-30757D01*
X36614Y-30814D01*
X36528Y-30842D01*
X36471Y-30842D01*
X37014Y-30842D02*
X37128Y-30842D01*
X37185Y-30814D01*
X37214Y-30785D01*
X37271Y-30700D01*
X37300Y-30585D01*
X37300Y-30357D01*
X37271Y-30300D01*
X37242Y-30271D01*
X37185Y-30242D01*
X37071Y-30242D01*
X37014Y-30271D01*
X36985Y-30300D01*
X36957Y-30357D01*
X36957Y-30500D01*
X36985Y-30557D01*
X37014Y-30585D01*
X37071Y-30614D01*
X37185Y-30614D01*
X37242Y-30585D01*
X37271Y-30557D01*
X37300Y-30500D01*
G54D12*
X36202Y-32699D02*
X36071Y-32511D01*
X35977Y-32699D02*
X35977Y-32305D01*
X36127Y-32305D01*
X36165Y-32324D01*
X36184Y-32343D01*
X36202Y-32380D01*
X36202Y-32436D01*
X36184Y-32474D01*
X36165Y-32493D01*
X36127Y-32511D01*
X35977Y-32511D01*
X36484Y-32305D02*
X36484Y-32586D01*
X36465Y-32643D01*
X36428Y-32680D01*
X36371Y-32699D01*
X36334Y-32699D01*
X36840Y-32436D02*
X36840Y-32699D01*
X36747Y-32286D02*
X36653Y-32568D01*
X36897Y-32568D01*
X37234Y-32305D02*
X37047Y-32305D01*
X37028Y-32493D01*
X37047Y-32474D01*
X37084Y-32455D01*
X37178Y-32455D01*
X37216Y-32474D01*
X37234Y-32493D01*
X37253Y-32530D01*
X37253Y-32624D01*
X37234Y-32661D01*
X37216Y-32680D01*
X37178Y-32699D01*
X37084Y-32699D01*
X37047Y-32680D01*
X37028Y-32661D01*
X37328Y-32737D02*
X37628Y-32737D01*
X37703Y-32343D02*
X37722Y-32324D01*
X37760Y-32305D01*
X37853Y-32305D01*
X37891Y-32324D01*
X37910Y-32343D01*
X37929Y-32380D01*
X37929Y-32418D01*
X37910Y-32474D01*
X37685Y-32699D01*
X37929Y-32699D01*
G54D13*
X29700Y-30242D02*
X29700Y-30671D01*
X29671Y-30757D01*
X29614Y-30814D01*
X29528Y-30842D01*
X29471Y-30842D01*
X30071Y-30500D02*
X30014Y-30471D01*
X29985Y-30442D01*
X29957Y-30385D01*
X29957Y-30357D01*
X29985Y-30300D01*
X30014Y-30271D01*
X30071Y-30242D01*
X30185Y-30242D01*
X30242Y-30271D01*
X30271Y-30300D01*
X30300Y-30357D01*
X30300Y-30385D01*
X30271Y-30442D01*
X30242Y-30471D01*
X30185Y-30500D01*
X30071Y-30500D01*
X30014Y-30528D01*
X29985Y-30557D01*
X29957Y-30614D01*
X29957Y-30728D01*
X29985Y-30785D01*
X30014Y-30814D01*
X30071Y-30842D01*
X30185Y-30842D01*
X30242Y-30814D01*
X30271Y-30785D01*
X30300Y-30728D01*
X30300Y-30614D01*
X30271Y-30557D01*
X30242Y-30528D01*
X30185Y-30500D01*
G54D12*
X29202Y-32699D02*
X29071Y-32511D01*
X28977Y-32699D02*
X28977Y-32305D01*
X29127Y-32305D01*
X29165Y-32324D01*
X29184Y-32343D01*
X29202Y-32380D01*
X29202Y-32436D01*
X29184Y-32474D01*
X29165Y-32493D01*
X29127Y-32511D01*
X28977Y-32511D01*
X29484Y-32305D02*
X29484Y-32586D01*
X29465Y-32643D01*
X29428Y-32680D01*
X29371Y-32699D01*
X29334Y-32699D01*
X29840Y-32436D02*
X29840Y-32699D01*
X29747Y-32286D02*
X29653Y-32568D01*
X29897Y-32568D01*
X30234Y-32305D02*
X30047Y-32305D01*
X30028Y-32493D01*
X30047Y-32474D01*
X30084Y-32455D01*
X30178Y-32455D01*
X30216Y-32474D01*
X30234Y-32493D01*
X30253Y-32530D01*
X30253Y-32624D01*
X30234Y-32661D01*
X30216Y-32680D01*
X30178Y-32699D01*
X30084Y-32699D01*
X30047Y-32680D01*
X30028Y-32661D01*
X30328Y-32737D02*
X30628Y-32737D01*
X30703Y-32343D02*
X30722Y-32324D01*
X30760Y-32305D01*
X30853Y-32305D01*
X30891Y-32324D01*
X30910Y-32343D01*
X30929Y-32380D01*
X30929Y-32418D01*
X30910Y-32474D01*
X30685Y-32699D01*
X30929Y-32699D01*
G54D13*
X22700Y-30242D02*
X22700Y-30671D01*
X22671Y-30757D01*
X22614Y-30814D01*
X22528Y-30842D01*
X22471Y-30842D01*
X22928Y-30242D02*
X23328Y-30242D01*
X23071Y-30842D01*
G54D12*
X22202Y-32699D02*
X22071Y-32511D01*
X21977Y-32699D02*
X21977Y-32305D01*
X22127Y-32305D01*
X22165Y-32324D01*
X22184Y-32343D01*
X22202Y-32380D01*
X22202Y-32436D01*
X22184Y-32474D01*
X22165Y-32493D01*
X22127Y-32511D01*
X21977Y-32511D01*
X22484Y-32305D02*
X22484Y-32586D01*
X22465Y-32643D01*
X22428Y-32680D01*
X22371Y-32699D01*
X22334Y-32699D01*
X22840Y-32436D02*
X22840Y-32699D01*
X22747Y-32286D02*
X22653Y-32568D01*
X22897Y-32568D01*
X23234Y-32305D02*
X23047Y-32305D01*
X23028Y-32493D01*
X23047Y-32474D01*
X23084Y-32455D01*
X23178Y-32455D01*
X23216Y-32474D01*
X23234Y-32493D01*
X23253Y-32530D01*
X23253Y-32624D01*
X23234Y-32661D01*
X23216Y-32680D01*
X23178Y-32699D01*
X23084Y-32699D01*
X23047Y-32680D01*
X23028Y-32661D01*
X23328Y-32737D02*
X23628Y-32737D01*
X23703Y-32343D02*
X23722Y-32324D01*
X23760Y-32305D01*
X23853Y-32305D01*
X23891Y-32324D01*
X23910Y-32343D01*
X23929Y-32380D01*
X23929Y-32418D01*
X23910Y-32474D01*
X23685Y-32699D01*
X23929Y-32699D01*
G54D13*
X15700Y-30242D02*
X15700Y-30671D01*
X15671Y-30757D01*
X15614Y-30814D01*
X15528Y-30842D01*
X15471Y-30842D01*
X16242Y-30242D02*
X16128Y-30242D01*
X16071Y-30271D01*
X16042Y-30300D01*
X15985Y-30385D01*
X15957Y-30500D01*
X15957Y-30728D01*
X15985Y-30785D01*
X16014Y-30814D01*
X16071Y-30842D01*
X16185Y-30842D01*
X16242Y-30814D01*
X16271Y-30785D01*
X16300Y-30728D01*
X16300Y-30585D01*
X16271Y-30528D01*
X16242Y-30500D01*
X16185Y-30471D01*
X16071Y-30471D01*
X16014Y-30500D01*
X15985Y-30528D01*
X15957Y-30585D01*
G54D12*
X15202Y-32699D02*
X15071Y-32511D01*
X14977Y-32699D02*
X14977Y-32305D01*
X15127Y-32305D01*
X15165Y-32324D01*
X15184Y-32343D01*
X15202Y-32380D01*
X15202Y-32436D01*
X15184Y-32474D01*
X15165Y-32493D01*
X15127Y-32511D01*
X14977Y-32511D01*
X15484Y-32305D02*
X15484Y-32586D01*
X15465Y-32643D01*
X15428Y-32680D01*
X15371Y-32699D01*
X15334Y-32699D01*
X15840Y-32436D02*
X15840Y-32699D01*
X15747Y-32286D02*
X15653Y-32568D01*
X15897Y-32568D01*
X16234Y-32305D02*
X16047Y-32305D01*
X16028Y-32493D01*
X16047Y-32474D01*
X16084Y-32455D01*
X16178Y-32455D01*
X16216Y-32474D01*
X16234Y-32493D01*
X16253Y-32530D01*
X16253Y-32624D01*
X16234Y-32661D01*
X16216Y-32680D01*
X16178Y-32699D01*
X16084Y-32699D01*
X16047Y-32680D01*
X16028Y-32661D01*
X16328Y-32737D02*
X16628Y-32737D01*
X16703Y-32343D02*
X16722Y-32324D01*
X16760Y-32305D01*
X16853Y-32305D01*
X16891Y-32324D01*
X16910Y-32343D01*
X16929Y-32380D01*
X16929Y-32418D01*
X16910Y-32474D01*
X16685Y-32699D01*
X16929Y-32699D01*
M02*
