G04 (created by PCBNEW (22-Jun-2014 BZR 4027)-stable) date Paz 19 Nis 2020 21:47:35 +03*
%MOIN*%
G04 Gerber Fmt 3.4, Leading zero omitted, Abs format*
%FSLAX34Y34*%
G01*
G70*
G90*
G04 APERTURE LIST*
%ADD10C,0.00590551*%
%ADD11C,0.1437*%
%ADD12R,0.0591X0.0591*%
%ADD13C,0.0591*%
%ADD14C,0.055*%
%ADD15R,0.06X0.06*%
%ADD16C,0.06*%
%ADD17R,0.062X0.09*%
%ADD18O,0.062X0.09*%
%ADD19R,0.055X0.055*%
G04 APERTURE END LIST*
G54D10*
G54D11*
X39338Y-9500D03*
X34665Y-9500D03*
G54D12*
X35250Y-7000D03*
G54D13*
X35750Y-6000D03*
X36250Y-7000D03*
X36750Y-6000D03*
X37250Y-7000D03*
X37750Y-6000D03*
X38250Y-7000D03*
X38750Y-6000D03*
G54D11*
X32338Y-9500D03*
X27665Y-9500D03*
G54D12*
X28250Y-7000D03*
G54D13*
X28750Y-6000D03*
X29250Y-7000D03*
X29750Y-6000D03*
X30250Y-7000D03*
X30750Y-6000D03*
X31250Y-7000D03*
X31750Y-6000D03*
G54D11*
X25338Y-9500D03*
X20665Y-9500D03*
G54D12*
X21250Y-7000D03*
G54D13*
X21750Y-6000D03*
X22250Y-7000D03*
X22750Y-6000D03*
X23250Y-7000D03*
X23750Y-6000D03*
X24250Y-7000D03*
X24750Y-6000D03*
G54D11*
X18338Y-9500D03*
X13665Y-9500D03*
G54D12*
X14250Y-7000D03*
G54D13*
X14750Y-6000D03*
X15250Y-7000D03*
X15750Y-6000D03*
X16250Y-7000D03*
X16750Y-6000D03*
X17250Y-7000D03*
X17750Y-6000D03*
G54D14*
X11500Y-18000D03*
X11500Y-15000D03*
X39000Y-28000D03*
X36000Y-28000D03*
X43500Y-28000D03*
X40500Y-28000D03*
X27000Y-28000D03*
X30000Y-28000D03*
X14500Y-28000D03*
X17500Y-28000D03*
X25500Y-28000D03*
X22500Y-28000D03*
G54D15*
X7000Y-11500D03*
G54D16*
X8000Y-11500D03*
X7000Y-16500D03*
X8000Y-12500D03*
X7000Y-17500D03*
X8000Y-13500D03*
X7000Y-18500D03*
X8000Y-14500D03*
X7000Y-19500D03*
X8000Y-15500D03*
X7000Y-20500D03*
X8000Y-16500D03*
X7000Y-21500D03*
X8000Y-17500D03*
X7000Y-22500D03*
X8000Y-18500D03*
X7000Y-23500D03*
X8000Y-19500D03*
X7000Y-24500D03*
X8000Y-20500D03*
X7000Y-25500D03*
X8000Y-21500D03*
X7000Y-26500D03*
X8000Y-22500D03*
X8000Y-23500D03*
X7000Y-27500D03*
X8000Y-24500D03*
X8000Y-26500D03*
X8000Y-27500D03*
X8000Y-28500D03*
X8000Y-29500D03*
X7000Y-28500D03*
X7000Y-29500D03*
X7000Y-12500D03*
X7000Y-13500D03*
X7000Y-14500D03*
X7000Y-15500D03*
X7000Y-30500D03*
X8000Y-30500D03*
X8000Y-25500D03*
G54D17*
X24500Y-18000D03*
G54D18*
X25500Y-18000D03*
X26500Y-18000D03*
X27500Y-18000D03*
X28500Y-18000D03*
X29500Y-18000D03*
X30500Y-18000D03*
X31500Y-18000D03*
X32500Y-18000D03*
X33500Y-18000D03*
X33500Y-15000D03*
X32500Y-15000D03*
X31500Y-15000D03*
X30500Y-15000D03*
X29500Y-15000D03*
X28500Y-15000D03*
X27500Y-15000D03*
X26500Y-15000D03*
X25500Y-15000D03*
X24500Y-15000D03*
G54D17*
X36000Y-25000D03*
G54D18*
X37000Y-25000D03*
X38000Y-25000D03*
X39000Y-25000D03*
X40000Y-25000D03*
X41000Y-25000D03*
X42000Y-25000D03*
X43000Y-25000D03*
X43000Y-22000D03*
X42000Y-22000D03*
X41000Y-22000D03*
X40000Y-22000D03*
X39000Y-22000D03*
X38000Y-22000D03*
X37000Y-22000D03*
X36000Y-22000D03*
G54D17*
X14000Y-18000D03*
G54D18*
X15000Y-18000D03*
X16000Y-18000D03*
X17000Y-18000D03*
X18000Y-18000D03*
X19000Y-18000D03*
X20000Y-18000D03*
X21000Y-18000D03*
X21000Y-15000D03*
X20000Y-15000D03*
X19000Y-15000D03*
X18000Y-15000D03*
X17000Y-15000D03*
X16000Y-15000D03*
X15000Y-15000D03*
X14000Y-15000D03*
G54D17*
X37000Y-18000D03*
G54D18*
X38000Y-18000D03*
X39000Y-18000D03*
X40000Y-18000D03*
X41000Y-18000D03*
X42000Y-18000D03*
X43000Y-18000D03*
X43000Y-15000D03*
X42000Y-15000D03*
X41000Y-15000D03*
X40000Y-15000D03*
X39000Y-15000D03*
X38000Y-15000D03*
X37000Y-15000D03*
G54D17*
X25500Y-25000D03*
G54D18*
X26500Y-25000D03*
X27500Y-25000D03*
X28500Y-25000D03*
X29500Y-25000D03*
X30500Y-25000D03*
X31500Y-25000D03*
X31500Y-22000D03*
X30500Y-22000D03*
X29500Y-22000D03*
X28500Y-22000D03*
X27500Y-22000D03*
X26500Y-22000D03*
X25500Y-22000D03*
G54D17*
X15000Y-25000D03*
G54D18*
X16000Y-25000D03*
X17000Y-25000D03*
X18000Y-25000D03*
X19000Y-25000D03*
X20000Y-25000D03*
X21000Y-25000D03*
X21000Y-22000D03*
X20000Y-22000D03*
X19000Y-22000D03*
X18000Y-22000D03*
X17000Y-22000D03*
X16000Y-22000D03*
X15000Y-22000D03*
G54D19*
X11500Y-20000D03*
G54D14*
X11500Y-23000D03*
G54D19*
X11500Y-28000D03*
G54D14*
X11500Y-25000D03*
G54D19*
X34500Y-28000D03*
G54D14*
X31500Y-28000D03*
X19500Y-28000D03*
X20500Y-28000D03*
G54D11*
X34662Y-32500D03*
X39335Y-32500D03*
G54D12*
X38750Y-35000D03*
G54D13*
X38250Y-36000D03*
X37750Y-35000D03*
X37250Y-36000D03*
X36750Y-35000D03*
X36250Y-36000D03*
X35750Y-35000D03*
X35250Y-36000D03*
G54D11*
X27662Y-32500D03*
X32335Y-32500D03*
G54D12*
X31750Y-35000D03*
G54D13*
X31250Y-36000D03*
X30750Y-35000D03*
X30250Y-36000D03*
X29750Y-35000D03*
X29250Y-36000D03*
X28750Y-35000D03*
X28250Y-36000D03*
G54D11*
X20662Y-32500D03*
X25335Y-32500D03*
G54D12*
X24750Y-35000D03*
G54D13*
X24250Y-36000D03*
X23750Y-35000D03*
X23250Y-36000D03*
X22750Y-35000D03*
X22250Y-36000D03*
X21750Y-35000D03*
X21250Y-36000D03*
G54D11*
X13662Y-32500D03*
X18335Y-32500D03*
G54D12*
X17750Y-35000D03*
G54D13*
X17250Y-36000D03*
X16750Y-35000D03*
X16250Y-36000D03*
X15750Y-35000D03*
X15250Y-36000D03*
X14750Y-35000D03*
X14250Y-36000D03*
M02*
