G04 (created by PCBNEW (22-Jun-2014 BZR 4027)-stable) date Cts 25 Nis 2020 13:20:02 +03*
%MOIN*%
G04 Gerber Fmt 3.4, Leading zero omitted, Abs format*
%FSLAX34Y34*%
G01*
G70*
G90*
G04 APERTURE LIST*
%ADD10C,0.00590551*%
%ADD11C,0.00393701*%
%ADD12C,0.1437*%
%ADD13R,0.0591X0.0591*%
%ADD14C,0.0591*%
%ADD15C,0.055*%
%ADD16R,0.06X0.06*%
%ADD17C,0.06*%
%ADD18C,0.066*%
%ADD19R,0.055X0.055*%
G04 APERTURE END LIST*
G54D10*
G54D11*
X8700Y-6600D02*
X8750Y-6600D01*
X8700Y-39650D02*
X8700Y-6600D01*
X22200Y-39650D02*
X8700Y-39650D01*
X22200Y-6600D02*
X22200Y-39650D01*
X8750Y-6600D02*
X22200Y-6600D01*
G54D12*
X11000Y-12400D03*
X11000Y-7600D03*
G54D13*
X11900Y-11400D03*
G54D14*
X12700Y-10950D03*
X11900Y-10600D03*
X12700Y-10150D03*
X11900Y-9800D03*
X12700Y-9350D03*
X11900Y-9000D03*
X12700Y-8550D03*
G54D12*
X11000Y-19400D03*
X11000Y-14600D03*
G54D13*
X11900Y-18400D03*
G54D14*
X12700Y-17950D03*
X11900Y-17600D03*
X12700Y-17150D03*
X11900Y-16800D03*
X12700Y-16350D03*
X11900Y-16000D03*
X12700Y-15550D03*
G54D12*
X11000Y-26400D03*
X11000Y-21600D03*
G54D13*
X11900Y-25400D03*
G54D14*
X12700Y-24950D03*
X11900Y-24600D03*
X12700Y-24150D03*
X11900Y-23800D03*
X12700Y-23350D03*
X11900Y-23000D03*
X12700Y-22550D03*
G54D12*
X11000Y-33400D03*
X11000Y-28600D03*
G54D13*
X11900Y-32400D03*
G54D14*
X12700Y-31950D03*
X11900Y-31600D03*
X12700Y-31150D03*
X11900Y-30800D03*
X12700Y-30350D03*
X11900Y-30000D03*
X12700Y-29550D03*
G54D12*
X20000Y-7600D03*
X20000Y-12400D03*
G54D13*
X19100Y-8600D03*
G54D14*
X18300Y-9050D03*
X19100Y-9400D03*
X18300Y-9850D03*
X19100Y-10200D03*
X18300Y-10650D03*
X19100Y-11000D03*
X18300Y-11450D03*
G54D12*
X20000Y-14600D03*
X20000Y-19400D03*
G54D13*
X19100Y-15600D03*
G54D14*
X18300Y-16050D03*
X19100Y-16400D03*
X18300Y-16850D03*
X19100Y-17200D03*
X18300Y-17650D03*
X19100Y-18000D03*
X18300Y-18450D03*
G54D12*
X20000Y-21600D03*
X20000Y-26400D03*
G54D13*
X19100Y-22600D03*
G54D14*
X18300Y-23050D03*
X19100Y-23400D03*
X18300Y-23850D03*
X19100Y-24200D03*
X18300Y-24650D03*
X19100Y-25000D03*
X18300Y-25450D03*
G54D12*
X20000Y-28600D03*
X20000Y-33400D03*
G54D13*
X19100Y-29600D03*
G54D14*
X18300Y-30050D03*
X19100Y-30400D03*
X18300Y-30850D03*
X19100Y-31200D03*
X18300Y-31650D03*
X19100Y-32000D03*
X18300Y-32450D03*
G54D15*
X18500Y-35500D03*
X21500Y-35500D03*
G54D16*
X14250Y-36000D03*
G54D17*
X12750Y-36000D03*
X11500Y-36000D03*
G54D18*
X20500Y-37500D03*
X20500Y-38500D03*
G54D19*
X17000Y-38000D03*
G54D15*
X17000Y-37000D03*
M02*
