M48
;DRILL file {Pcbnew (22-Jun-2014 BZR 4027)-stable} date Cts 25 Nis 2020 13:20:10 +03
;FORMAT={-:-/ absolute / inch / decimal}
FMAT,2
INCH,TZ
T1C0.032
T2C0.035
T3C0.040
T4C0.128
%
G90
G05
M72
T1
X1.7Y-3.7
X1.7Y-3.8
X1.85Y-3.55
X2.05Y-3.75
X2.05Y-3.85
X2.15Y-3.55
T2
X1.19Y-0.9
X1.19Y-0.98
X1.19Y-1.06
X1.19Y-1.14
X1.19Y-1.6
X1.19Y-1.68
X1.19Y-1.76
X1.19Y-1.84
X1.19Y-2.3
X1.19Y-2.38
X1.19Y-2.46
X1.19Y-2.54
X1.19Y-3.
X1.19Y-3.08
X1.19Y-3.16
X1.19Y-3.24
X1.27Y-0.855
X1.27Y-0.935
X1.27Y-1.015
X1.27Y-1.095
X1.27Y-1.555
X1.27Y-1.635
X1.27Y-1.715
X1.27Y-1.795
X1.27Y-2.255
X1.27Y-2.335
X1.27Y-2.415
X1.27Y-2.495
X1.27Y-2.955
X1.27Y-3.035
X1.27Y-3.115
X1.27Y-3.195
X1.83Y-0.905
X1.83Y-0.985
X1.83Y-1.065
X1.83Y-1.145
X1.83Y-1.605
X1.83Y-1.685
X1.83Y-1.765
X1.83Y-1.845
X1.83Y-2.305
X1.83Y-2.385
X1.83Y-2.465
X1.83Y-2.545
X1.83Y-3.005
X1.83Y-3.085
X1.83Y-3.165
X1.83Y-3.245
X1.91Y-0.86
X1.91Y-0.94
X1.91Y-1.02
X1.91Y-1.1
X1.91Y-1.56
X1.91Y-1.64
X1.91Y-1.72
X1.91Y-1.8
X1.91Y-2.26
X1.91Y-2.34
X1.91Y-2.42
X1.91Y-2.5
X1.91Y-2.96
X1.91Y-3.04
X1.91Y-3.12
X1.91Y-3.2
T3
X1.15Y-3.6
X1.275Y-3.6
X1.425Y-3.6
T4
X1.1Y-0.76
X1.1Y-1.24
X1.1Y-1.46
X1.1Y-1.94
X1.1Y-2.16
X1.1Y-2.64
X1.1Y-2.86
X1.1Y-3.34
X2.Y-0.76
X2.Y-1.24
X2.Y-1.46
X2.Y-1.94
X2.Y-2.16
X2.Y-2.64
X2.Y-2.86
X2.Y-3.34
T0
M30
