G04 (created by PCBNEW (22-Jun-2014 BZR 4027)-stable) date Cts 25 Nis 2020 13:20:02 +03*
%MOIN*%
G04 Gerber Fmt 3.4, Leading zero omitted, Abs format*
%FSLAX34Y34*%
G01*
G70*
G90*
G04 APERTURE LIST*
%ADD10C,0.00590551*%
%ADD11C,0.00393701*%
%ADD12C,0.005*%
%ADD13C,0.008*%
%ADD14C,0.01*%
%ADD15C,0.006*%
%ADD16C,0.012*%
%ADD17C,0.0035*%
G04 APERTURE END LIST*
G54D10*
G54D11*
X8700Y-6600D02*
X8750Y-6600D01*
X8700Y-39650D02*
X8700Y-6600D01*
X22200Y-39650D02*
X8700Y-39650D01*
X22200Y-6600D02*
X22200Y-39650D01*
X8750Y-6600D02*
X22200Y-6600D01*
G54D10*
X15000Y-13000D02*
X9000Y-13000D01*
X9000Y-7000D02*
X9000Y-13000D01*
X15000Y-7000D02*
X9000Y-7000D01*
G54D12*
X15000Y-13000D02*
X15000Y-7000D01*
G54D10*
X15000Y-20000D02*
X9000Y-20000D01*
X9000Y-14000D02*
X9000Y-20000D01*
X15000Y-14000D02*
X9000Y-14000D01*
G54D12*
X15000Y-20000D02*
X15000Y-14000D01*
G54D10*
X15000Y-27000D02*
X9000Y-27000D01*
X9000Y-21000D02*
X9000Y-27000D01*
X15000Y-21000D02*
X9000Y-21000D01*
G54D12*
X15000Y-27000D02*
X15000Y-21000D01*
G54D10*
X15000Y-34000D02*
X9000Y-34000D01*
X9000Y-28000D02*
X9000Y-34000D01*
X15000Y-28000D02*
X9000Y-28000D01*
G54D12*
X15000Y-34000D02*
X15000Y-28000D01*
G54D10*
X16000Y-7000D02*
X22000Y-7000D01*
X22000Y-13000D02*
X22000Y-7000D01*
X16000Y-13000D02*
X22000Y-13000D01*
G54D12*
X16000Y-7000D02*
X16000Y-13000D01*
G54D10*
X16000Y-14000D02*
X22000Y-14000D01*
X22000Y-20000D02*
X22000Y-14000D01*
X16000Y-20000D02*
X22000Y-20000D01*
G54D12*
X16000Y-14000D02*
X16000Y-20000D01*
G54D10*
X16000Y-21000D02*
X22000Y-21000D01*
X22000Y-27000D02*
X22000Y-21000D01*
X16000Y-27000D02*
X22000Y-27000D01*
G54D12*
X16000Y-21000D02*
X16000Y-27000D01*
G54D10*
X16000Y-28000D02*
X22000Y-28000D01*
X22000Y-34000D02*
X22000Y-28000D01*
X16000Y-34000D02*
X22000Y-34000D01*
G54D12*
X16000Y-28000D02*
X16000Y-34000D01*
G54D13*
X18500Y-35500D02*
X18700Y-35500D01*
X21500Y-35500D02*
X21300Y-35500D01*
X21300Y-35500D02*
X21300Y-35100D01*
X21300Y-35100D02*
X18700Y-35100D01*
X18700Y-35100D02*
X18700Y-35900D01*
X18700Y-35900D02*
X21300Y-35900D01*
X21300Y-35900D02*
X21300Y-35500D01*
X18700Y-35300D02*
X18900Y-35100D01*
G54D10*
X15000Y-35000D02*
X10500Y-35000D01*
X10500Y-35000D02*
X10500Y-39500D01*
X10500Y-39500D02*
X15000Y-39500D01*
X15000Y-39500D02*
X15000Y-35000D01*
G54D14*
X20000Y-38720D02*
X21000Y-38720D01*
G54D15*
X20884Y-37639D02*
G75*
G03X20500Y-37500I-384J-460D01*
G74*
G01*
X20500Y-37500D02*
G75*
G03X20102Y-37651I0J-599D01*
G74*
G01*
X20500Y-38699D02*
G75*
G03X20889Y-38555I0J599D01*
G74*
G01*
X20115Y-38560D02*
G75*
G03X20500Y-38700I384J460D01*
G74*
G01*
X20849Y-38587D02*
G75*
G03X21100Y-38100I-349J487D01*
G74*
G01*
X21100Y-38100D02*
G75*
G03X20860Y-37620I-600J0D01*
G74*
G01*
X19900Y-38100D02*
G75*
G03X20131Y-38572I599J0D01*
G74*
G01*
X20131Y-37626D02*
G75*
G03X19900Y-38100I368J-473D01*
G74*
G01*
X20750Y-38100D02*
G75*
G03X20500Y-37850I-250J0D01*
G74*
G01*
X20900Y-38100D02*
G75*
G03X20500Y-37700I-400J0D01*
G74*
G01*
X20250Y-38100D02*
G75*
G03X20500Y-38350I250J0D01*
G74*
G01*
X20100Y-38100D02*
G75*
G03X20500Y-38500I400J0D01*
G74*
G01*
G54D14*
X21013Y-38713D02*
G75*
G03X21300Y-38100I-513J613D01*
G74*
G01*
X21299Y-38100D02*
G75*
G03X20876Y-37395I-799J0D01*
G74*
G01*
X19701Y-38101D02*
G75*
G03X19984Y-38710I798J1D01*
G74*
G01*
X20102Y-37405D02*
G75*
G03X19700Y-38100I397J-694D01*
G74*
G01*
X20879Y-37395D02*
G75*
G03X20500Y-37300I-379J-704D01*
G74*
G01*
X20500Y-37300D02*
G75*
G03X20081Y-37418I0J-799D01*
G74*
G01*
G54D12*
X18001Y-37500D02*
G75*
G03X18001Y-37500I-1001J0D01*
G74*
G01*
G54D16*
X9142Y-10200D02*
X9571Y-10200D01*
X9657Y-10228D01*
X9714Y-10285D01*
X9742Y-10371D01*
X9742Y-10428D01*
X9200Y-9942D02*
X9171Y-9914D01*
X9142Y-9857D01*
X9142Y-9714D01*
X9171Y-9657D01*
X9200Y-9628D01*
X9257Y-9600D01*
X9314Y-9600D01*
X9400Y-9628D01*
X9742Y-9971D01*
X9742Y-9600D01*
G54D13*
X11199Y-10797D02*
X11011Y-10928D01*
X11199Y-11022D02*
X10805Y-11022D01*
X10805Y-10872D01*
X10824Y-10834D01*
X10843Y-10815D01*
X10880Y-10797D01*
X10936Y-10797D01*
X10974Y-10815D01*
X10993Y-10834D01*
X11011Y-10872D01*
X11011Y-11022D01*
X10805Y-10515D02*
X11086Y-10515D01*
X11143Y-10534D01*
X11180Y-10571D01*
X11199Y-10628D01*
X11199Y-10665D01*
X10936Y-10159D02*
X11199Y-10159D01*
X10786Y-10253D02*
X11068Y-10346D01*
X11068Y-10102D01*
X10805Y-9765D02*
X10805Y-9952D01*
X10993Y-9971D01*
X10974Y-9952D01*
X10955Y-9915D01*
X10955Y-9821D01*
X10974Y-9783D01*
X10993Y-9765D01*
X11030Y-9746D01*
X11124Y-9746D01*
X11161Y-9765D01*
X11180Y-9783D01*
X11199Y-9821D01*
X11199Y-9915D01*
X11180Y-9952D01*
X11161Y-9971D01*
X11237Y-9671D02*
X11237Y-9371D01*
X10843Y-9296D02*
X10824Y-9277D01*
X10805Y-9239D01*
X10805Y-9146D01*
X10824Y-9108D01*
X10843Y-9089D01*
X10880Y-9070D01*
X10918Y-9070D01*
X10974Y-9089D01*
X11199Y-9314D01*
X11199Y-9070D01*
G54D16*
X9142Y-17200D02*
X9571Y-17200D01*
X9657Y-17228D01*
X9714Y-17285D01*
X9742Y-17371D01*
X9742Y-17428D01*
X9142Y-16971D02*
X9142Y-16600D01*
X9371Y-16800D01*
X9371Y-16714D01*
X9400Y-16657D01*
X9428Y-16628D01*
X9485Y-16600D01*
X9628Y-16600D01*
X9685Y-16628D01*
X9714Y-16657D01*
X9742Y-16714D01*
X9742Y-16885D01*
X9714Y-16942D01*
X9685Y-16971D01*
G54D13*
X11199Y-17797D02*
X11011Y-17928D01*
X11199Y-18022D02*
X10805Y-18022D01*
X10805Y-17872D01*
X10824Y-17834D01*
X10843Y-17815D01*
X10880Y-17797D01*
X10936Y-17797D01*
X10974Y-17815D01*
X10993Y-17834D01*
X11011Y-17872D01*
X11011Y-18022D01*
X10805Y-17515D02*
X11086Y-17515D01*
X11143Y-17534D01*
X11180Y-17571D01*
X11199Y-17628D01*
X11199Y-17665D01*
X10936Y-17159D02*
X11199Y-17159D01*
X10786Y-17253D02*
X11068Y-17346D01*
X11068Y-17102D01*
X10805Y-16765D02*
X10805Y-16952D01*
X10993Y-16971D01*
X10974Y-16952D01*
X10955Y-16915D01*
X10955Y-16821D01*
X10974Y-16783D01*
X10993Y-16765D01*
X11030Y-16746D01*
X11124Y-16746D01*
X11161Y-16765D01*
X11180Y-16783D01*
X11199Y-16821D01*
X11199Y-16915D01*
X11180Y-16952D01*
X11161Y-16971D01*
X11237Y-16671D02*
X11237Y-16371D01*
X10843Y-16296D02*
X10824Y-16277D01*
X10805Y-16239D01*
X10805Y-16146D01*
X10824Y-16108D01*
X10843Y-16089D01*
X10880Y-16070D01*
X10918Y-16070D01*
X10974Y-16089D01*
X11199Y-16314D01*
X11199Y-16070D01*
G54D16*
X9142Y-24200D02*
X9571Y-24200D01*
X9657Y-24228D01*
X9714Y-24285D01*
X9742Y-24371D01*
X9742Y-24428D01*
X9342Y-23657D02*
X9742Y-23657D01*
X9114Y-23800D02*
X9542Y-23942D01*
X9542Y-23571D01*
G54D13*
X11199Y-24797D02*
X11011Y-24928D01*
X11199Y-25022D02*
X10805Y-25022D01*
X10805Y-24872D01*
X10824Y-24834D01*
X10843Y-24815D01*
X10880Y-24797D01*
X10936Y-24797D01*
X10974Y-24815D01*
X10993Y-24834D01*
X11011Y-24872D01*
X11011Y-25022D01*
X10805Y-24515D02*
X11086Y-24515D01*
X11143Y-24534D01*
X11180Y-24571D01*
X11199Y-24628D01*
X11199Y-24665D01*
X10936Y-24159D02*
X11199Y-24159D01*
X10786Y-24253D02*
X11068Y-24346D01*
X11068Y-24102D01*
X10805Y-23765D02*
X10805Y-23952D01*
X10993Y-23971D01*
X10974Y-23952D01*
X10955Y-23915D01*
X10955Y-23821D01*
X10974Y-23783D01*
X10993Y-23765D01*
X11030Y-23746D01*
X11124Y-23746D01*
X11161Y-23765D01*
X11180Y-23783D01*
X11199Y-23821D01*
X11199Y-23915D01*
X11180Y-23952D01*
X11161Y-23971D01*
X11237Y-23671D02*
X11237Y-23371D01*
X10843Y-23296D02*
X10824Y-23277D01*
X10805Y-23239D01*
X10805Y-23146D01*
X10824Y-23108D01*
X10843Y-23089D01*
X10880Y-23070D01*
X10918Y-23070D01*
X10974Y-23089D01*
X11199Y-23314D01*
X11199Y-23070D01*
G54D16*
X9142Y-31200D02*
X9571Y-31200D01*
X9657Y-31228D01*
X9714Y-31285D01*
X9742Y-31371D01*
X9742Y-31428D01*
X9142Y-30628D02*
X9142Y-30914D01*
X9428Y-30942D01*
X9400Y-30914D01*
X9371Y-30857D01*
X9371Y-30714D01*
X9400Y-30657D01*
X9428Y-30628D01*
X9485Y-30600D01*
X9628Y-30600D01*
X9685Y-30628D01*
X9714Y-30657D01*
X9742Y-30714D01*
X9742Y-30857D01*
X9714Y-30914D01*
X9685Y-30942D01*
G54D13*
X11199Y-31797D02*
X11011Y-31928D01*
X11199Y-32022D02*
X10805Y-32022D01*
X10805Y-31872D01*
X10824Y-31834D01*
X10843Y-31815D01*
X10880Y-31797D01*
X10936Y-31797D01*
X10974Y-31815D01*
X10993Y-31834D01*
X11011Y-31872D01*
X11011Y-32022D01*
X10805Y-31515D02*
X11086Y-31515D01*
X11143Y-31534D01*
X11180Y-31571D01*
X11199Y-31628D01*
X11199Y-31665D01*
X10936Y-31159D02*
X11199Y-31159D01*
X10786Y-31253D02*
X11068Y-31346D01*
X11068Y-31102D01*
X10805Y-30765D02*
X10805Y-30952D01*
X10993Y-30971D01*
X10974Y-30952D01*
X10955Y-30915D01*
X10955Y-30821D01*
X10974Y-30783D01*
X10993Y-30765D01*
X11030Y-30746D01*
X11124Y-30746D01*
X11161Y-30765D01*
X11180Y-30783D01*
X11199Y-30821D01*
X11199Y-30915D01*
X11180Y-30952D01*
X11161Y-30971D01*
X11237Y-30671D02*
X11237Y-30371D01*
X10843Y-30296D02*
X10824Y-30277D01*
X10805Y-30239D01*
X10805Y-30146D01*
X10824Y-30108D01*
X10843Y-30089D01*
X10880Y-30070D01*
X10918Y-30070D01*
X10974Y-30089D01*
X11199Y-30314D01*
X11199Y-30070D01*
G54D16*
X21142Y-10200D02*
X21571Y-10200D01*
X21657Y-10228D01*
X21714Y-10285D01*
X21742Y-10371D01*
X21742Y-10428D01*
X21142Y-9657D02*
X21142Y-9771D01*
X21171Y-9828D01*
X21200Y-9857D01*
X21285Y-9914D01*
X21400Y-9942D01*
X21628Y-9942D01*
X21685Y-9914D01*
X21714Y-9885D01*
X21742Y-9828D01*
X21742Y-9714D01*
X21714Y-9657D01*
X21685Y-9628D01*
X21628Y-9600D01*
X21485Y-9600D01*
X21428Y-9628D01*
X21400Y-9657D01*
X21371Y-9714D01*
X21371Y-9828D01*
X21400Y-9885D01*
X21428Y-9914D01*
X21485Y-9942D01*
G54D13*
X20119Y-10685D02*
X19931Y-10816D01*
X20119Y-10910D02*
X19725Y-10910D01*
X19725Y-10760D01*
X19744Y-10722D01*
X19763Y-10703D01*
X19800Y-10685D01*
X19856Y-10685D01*
X19894Y-10703D01*
X19913Y-10722D01*
X19931Y-10760D01*
X19931Y-10910D01*
X19725Y-10403D02*
X20006Y-10403D01*
X20063Y-10422D01*
X20100Y-10459D01*
X20119Y-10516D01*
X20119Y-10553D01*
X19856Y-10047D02*
X20119Y-10047D01*
X19706Y-10141D02*
X19988Y-10234D01*
X19988Y-9990D01*
X19725Y-9653D02*
X19725Y-9840D01*
X19913Y-9859D01*
X19894Y-9840D01*
X19875Y-9803D01*
X19875Y-9709D01*
X19894Y-9671D01*
X19913Y-9653D01*
X19950Y-9634D01*
X20044Y-9634D01*
X20081Y-9653D01*
X20100Y-9671D01*
X20119Y-9709D01*
X20119Y-9803D01*
X20100Y-9840D01*
X20081Y-9859D01*
X20157Y-9559D02*
X20157Y-9259D01*
X19763Y-9184D02*
X19744Y-9165D01*
X19725Y-9127D01*
X19725Y-9034D01*
X19744Y-8996D01*
X19763Y-8977D01*
X19800Y-8958D01*
X19838Y-8958D01*
X19894Y-8977D01*
X20119Y-9202D01*
X20119Y-8958D01*
G54D16*
X21142Y-17200D02*
X21571Y-17200D01*
X21657Y-17228D01*
X21714Y-17285D01*
X21742Y-17371D01*
X21742Y-17428D01*
X21142Y-16971D02*
X21142Y-16571D01*
X21742Y-16828D01*
G54D13*
X20119Y-17685D02*
X19931Y-17816D01*
X20119Y-17910D02*
X19725Y-17910D01*
X19725Y-17760D01*
X19744Y-17722D01*
X19763Y-17703D01*
X19800Y-17685D01*
X19856Y-17685D01*
X19894Y-17703D01*
X19913Y-17722D01*
X19931Y-17760D01*
X19931Y-17910D01*
X19725Y-17403D02*
X20006Y-17403D01*
X20063Y-17422D01*
X20100Y-17459D01*
X20119Y-17516D01*
X20119Y-17553D01*
X19856Y-17047D02*
X20119Y-17047D01*
X19706Y-17141D02*
X19988Y-17234D01*
X19988Y-16990D01*
X19725Y-16653D02*
X19725Y-16840D01*
X19913Y-16859D01*
X19894Y-16840D01*
X19875Y-16803D01*
X19875Y-16709D01*
X19894Y-16671D01*
X19913Y-16653D01*
X19950Y-16634D01*
X20044Y-16634D01*
X20081Y-16653D01*
X20100Y-16671D01*
X20119Y-16709D01*
X20119Y-16803D01*
X20100Y-16840D01*
X20081Y-16859D01*
X20157Y-16559D02*
X20157Y-16259D01*
X19763Y-16184D02*
X19744Y-16165D01*
X19725Y-16127D01*
X19725Y-16034D01*
X19744Y-15996D01*
X19763Y-15977D01*
X19800Y-15958D01*
X19838Y-15958D01*
X19894Y-15977D01*
X20119Y-16202D01*
X20119Y-15958D01*
G54D16*
X21142Y-24200D02*
X21571Y-24200D01*
X21657Y-24228D01*
X21714Y-24285D01*
X21742Y-24371D01*
X21742Y-24428D01*
X21400Y-23828D02*
X21371Y-23885D01*
X21342Y-23914D01*
X21285Y-23942D01*
X21257Y-23942D01*
X21200Y-23914D01*
X21171Y-23885D01*
X21142Y-23828D01*
X21142Y-23714D01*
X21171Y-23657D01*
X21200Y-23628D01*
X21257Y-23600D01*
X21285Y-23600D01*
X21342Y-23628D01*
X21371Y-23657D01*
X21400Y-23714D01*
X21400Y-23828D01*
X21428Y-23885D01*
X21457Y-23914D01*
X21514Y-23942D01*
X21628Y-23942D01*
X21685Y-23914D01*
X21714Y-23885D01*
X21742Y-23828D01*
X21742Y-23714D01*
X21714Y-23657D01*
X21685Y-23628D01*
X21628Y-23600D01*
X21514Y-23600D01*
X21457Y-23628D01*
X21428Y-23657D01*
X21400Y-23714D01*
G54D13*
X20119Y-24685D02*
X19931Y-24816D01*
X20119Y-24910D02*
X19725Y-24910D01*
X19725Y-24760D01*
X19744Y-24722D01*
X19763Y-24703D01*
X19800Y-24685D01*
X19856Y-24685D01*
X19894Y-24703D01*
X19913Y-24722D01*
X19931Y-24760D01*
X19931Y-24910D01*
X19725Y-24403D02*
X20006Y-24403D01*
X20063Y-24422D01*
X20100Y-24459D01*
X20119Y-24516D01*
X20119Y-24553D01*
X19856Y-24047D02*
X20119Y-24047D01*
X19706Y-24141D02*
X19988Y-24234D01*
X19988Y-23990D01*
X19725Y-23653D02*
X19725Y-23840D01*
X19913Y-23859D01*
X19894Y-23840D01*
X19875Y-23803D01*
X19875Y-23709D01*
X19894Y-23671D01*
X19913Y-23653D01*
X19950Y-23634D01*
X20044Y-23634D01*
X20081Y-23653D01*
X20100Y-23671D01*
X20119Y-23709D01*
X20119Y-23803D01*
X20100Y-23840D01*
X20081Y-23859D01*
X20157Y-23559D02*
X20157Y-23259D01*
X19763Y-23184D02*
X19744Y-23165D01*
X19725Y-23127D01*
X19725Y-23034D01*
X19744Y-22996D01*
X19763Y-22977D01*
X19800Y-22958D01*
X19838Y-22958D01*
X19894Y-22977D01*
X20119Y-23202D01*
X20119Y-22958D01*
G54D16*
X21142Y-31200D02*
X21571Y-31200D01*
X21657Y-31228D01*
X21714Y-31285D01*
X21742Y-31371D01*
X21742Y-31428D01*
X21742Y-30885D02*
X21742Y-30771D01*
X21714Y-30714D01*
X21685Y-30685D01*
X21600Y-30628D01*
X21485Y-30600D01*
X21257Y-30600D01*
X21200Y-30628D01*
X21171Y-30657D01*
X21142Y-30714D01*
X21142Y-30828D01*
X21171Y-30885D01*
X21200Y-30914D01*
X21257Y-30942D01*
X21400Y-30942D01*
X21457Y-30914D01*
X21485Y-30885D01*
X21514Y-30828D01*
X21514Y-30714D01*
X21485Y-30657D01*
X21457Y-30628D01*
X21400Y-30600D01*
G54D13*
X20119Y-31685D02*
X19931Y-31816D01*
X20119Y-31910D02*
X19725Y-31910D01*
X19725Y-31760D01*
X19744Y-31722D01*
X19763Y-31703D01*
X19800Y-31685D01*
X19856Y-31685D01*
X19894Y-31703D01*
X19913Y-31722D01*
X19931Y-31760D01*
X19931Y-31910D01*
X19725Y-31403D02*
X20006Y-31403D01*
X20063Y-31422D01*
X20100Y-31459D01*
X20119Y-31516D01*
X20119Y-31553D01*
X19856Y-31047D02*
X20119Y-31047D01*
X19706Y-31141D02*
X19988Y-31234D01*
X19988Y-30990D01*
X19725Y-30653D02*
X19725Y-30840D01*
X19913Y-30859D01*
X19894Y-30840D01*
X19875Y-30803D01*
X19875Y-30709D01*
X19894Y-30671D01*
X19913Y-30653D01*
X19950Y-30634D01*
X20044Y-30634D01*
X20081Y-30653D01*
X20100Y-30671D01*
X20119Y-30709D01*
X20119Y-30803D01*
X20100Y-30840D01*
X20081Y-30859D01*
X20157Y-30559D02*
X20157Y-30259D01*
X19763Y-30184D02*
X19744Y-30165D01*
X19725Y-30127D01*
X19725Y-30034D01*
X19744Y-29996D01*
X19763Y-29977D01*
X19800Y-29958D01*
X19838Y-29958D01*
X19894Y-29977D01*
X20119Y-30202D01*
X20119Y-29958D01*
X19654Y-35722D02*
X19369Y-35722D01*
X19511Y-35722D02*
X19511Y-35172D01*
X19464Y-35251D01*
X19416Y-35303D01*
X19369Y-35329D01*
X19964Y-35172D02*
X20011Y-35172D01*
X20059Y-35198D01*
X20083Y-35225D01*
X20107Y-35277D01*
X20130Y-35382D01*
X20130Y-35513D01*
X20107Y-35617D01*
X20083Y-35670D01*
X20059Y-35696D01*
X20011Y-35722D01*
X19964Y-35722D01*
X19916Y-35696D01*
X19892Y-35670D01*
X19869Y-35617D01*
X19845Y-35513D01*
X19845Y-35382D01*
X19869Y-35277D01*
X19892Y-35225D01*
X19916Y-35198D01*
X19964Y-35172D01*
X20345Y-35722D02*
X20345Y-35172D01*
X20630Y-35722D02*
X20416Y-35408D01*
X20630Y-35172D02*
X20345Y-35486D01*
G54D15*
X12866Y-37261D02*
X12866Y-37547D01*
X12847Y-37604D01*
X12809Y-37642D01*
X12752Y-37661D01*
X12714Y-37661D01*
X13266Y-37661D02*
X13038Y-37661D01*
X13152Y-37661D02*
X13152Y-37261D01*
X13114Y-37319D01*
X13076Y-37357D01*
X13038Y-37376D01*
G54D17*
X21721Y-38921D02*
X21421Y-38921D01*
X21421Y-38850D01*
X21435Y-38807D01*
X21464Y-38778D01*
X21492Y-38764D01*
X21550Y-38750D01*
X21592Y-38750D01*
X21650Y-38764D01*
X21678Y-38778D01*
X21707Y-38807D01*
X21721Y-38850D01*
X21721Y-38921D01*
X21721Y-38464D02*
X21721Y-38635D01*
X21721Y-38550D02*
X21421Y-38550D01*
X21464Y-38578D01*
X21492Y-38607D01*
X21507Y-38635D01*
X19621Y-38192D02*
X19621Y-38335D01*
X19321Y-38335D01*
X19464Y-38092D02*
X19464Y-37992D01*
X19621Y-37950D02*
X19621Y-38092D01*
X19321Y-38092D01*
X19321Y-37950D01*
X19621Y-37821D02*
X19321Y-37821D01*
X19321Y-37750D01*
X19335Y-37707D01*
X19364Y-37678D01*
X19392Y-37664D01*
X19450Y-37650D01*
X19492Y-37650D01*
X19550Y-37664D01*
X19578Y-37678D01*
X19607Y-37707D01*
X19621Y-37750D01*
X19621Y-37821D01*
G54D12*
X16593Y-37550D02*
X16608Y-37564D01*
X16622Y-37607D01*
X16622Y-37635D01*
X16608Y-37678D01*
X16579Y-37707D01*
X16551Y-37721D01*
X16493Y-37735D01*
X16451Y-37735D01*
X16393Y-37721D01*
X16365Y-37707D01*
X16336Y-37678D01*
X16322Y-37635D01*
X16322Y-37607D01*
X16336Y-37564D01*
X16351Y-37550D01*
X16622Y-37264D02*
X16622Y-37435D01*
X16622Y-37350D02*
X16322Y-37350D01*
X16365Y-37378D01*
X16393Y-37407D01*
X16408Y-37435D01*
X17621Y-37886D02*
X17621Y-38029D01*
X17621Y-37958D02*
X17321Y-37958D01*
X17364Y-37982D01*
X17392Y-38005D01*
X17407Y-38029D01*
X17321Y-37732D02*
X17321Y-37708D01*
X17335Y-37684D01*
X17350Y-37672D01*
X17378Y-37660D01*
X17435Y-37648D01*
X17507Y-37648D01*
X17564Y-37660D01*
X17592Y-37672D01*
X17607Y-37684D01*
X17621Y-37708D01*
X17621Y-37732D01*
X17607Y-37755D01*
X17592Y-37767D01*
X17564Y-37779D01*
X17507Y-37791D01*
X17435Y-37791D01*
X17378Y-37779D01*
X17350Y-37767D01*
X17335Y-37755D01*
X17321Y-37732D01*
X17321Y-37494D02*
X17321Y-37470D01*
X17335Y-37446D01*
X17350Y-37434D01*
X17378Y-37422D01*
X17435Y-37410D01*
X17507Y-37410D01*
X17564Y-37422D01*
X17592Y-37434D01*
X17607Y-37446D01*
X17621Y-37470D01*
X17621Y-37494D01*
X17607Y-37517D01*
X17592Y-37529D01*
X17564Y-37541D01*
X17507Y-37553D01*
X17435Y-37553D01*
X17378Y-37541D01*
X17350Y-37529D01*
X17335Y-37517D01*
X17321Y-37494D01*
X17421Y-37196D02*
X17621Y-37196D01*
X17421Y-37303D02*
X17578Y-37303D01*
X17607Y-37291D01*
X17621Y-37267D01*
X17621Y-37232D01*
X17607Y-37208D01*
X17592Y-37196D01*
X17464Y-36994D02*
X17464Y-37077D01*
X17621Y-37077D02*
X17321Y-37077D01*
X17321Y-36958D01*
M02*
