G04 (created by PCBNEW (22-Jun-2014 BZR 4027)-stable) date Cts 25 Nis 2020 13:37:24 +03*
%MOIN*%
G04 Gerber Fmt 3.4, Leading zero omitted, Abs format*
%FSLAX34Y34*%
G01*
G70*
G90*
G04 APERTURE LIST*
%ADD10C,0.00590551*%
%ADD11C,0.00393701*%
%ADD12C,0.1437*%
%ADD13R,0.0591X0.0591*%
%ADD14C,0.0591*%
%ADD15R,0.055X0.055*%
%ADD16C,0.055*%
%ADD17R,0.06X0.06*%
%ADD18C,0.06*%
%ADD19C,0.066*%
G04 APERTURE END LIST*
G54D10*
G54D11*
X6450Y-6400D02*
X6450Y-6450D01*
X27650Y-6400D02*
X27650Y-6450D01*
X6450Y-6400D02*
X27650Y-6400D01*
X6450Y-6500D02*
X6450Y-6450D01*
X6450Y-20600D02*
X6450Y-6500D01*
X27650Y-20600D02*
X6450Y-20600D01*
X27650Y-6450D02*
X27650Y-20600D01*
G54D12*
X25500Y-7600D03*
X25500Y-12400D03*
G54D13*
X24600Y-8600D03*
G54D14*
X23800Y-9050D03*
X24600Y-9400D03*
X23800Y-9850D03*
X24600Y-10200D03*
X23800Y-10650D03*
X24600Y-11000D03*
X23800Y-11450D03*
G54D15*
X19500Y-20000D03*
G54D16*
X19500Y-19000D03*
X18500Y-19000D03*
G54D15*
X15500Y-20000D03*
G54D16*
X15500Y-19000D03*
X14500Y-19000D03*
X17500Y-14500D03*
X14500Y-14500D03*
X17500Y-13000D03*
X14500Y-13000D03*
X16100Y-9950D03*
X16100Y-6950D03*
X17500Y-6950D03*
X17500Y-9950D03*
X17500Y-11500D03*
X14500Y-11500D03*
G54D17*
X19200Y-7400D03*
G54D18*
X20200Y-7400D03*
X19200Y-8400D03*
X20200Y-8400D03*
X19200Y-9400D03*
X20200Y-9400D03*
X19200Y-10400D03*
X20200Y-10400D03*
X19200Y-11400D03*
X20200Y-11400D03*
X19200Y-12400D03*
X20200Y-12400D03*
X19200Y-13400D03*
X20200Y-13400D03*
X19200Y-14400D03*
X20200Y-14400D03*
G54D19*
X17500Y-16000D03*
X17500Y-17000D03*
G54D15*
X15000Y-17000D03*
G54D16*
X15000Y-16000D03*
G54D15*
X20000Y-16000D03*
G54D16*
X20000Y-17000D03*
G54D12*
X25500Y-14600D03*
X25500Y-19400D03*
G54D13*
X24600Y-15600D03*
G54D14*
X23800Y-16050D03*
X24600Y-16400D03*
X23800Y-16850D03*
X24600Y-17200D03*
X23800Y-17650D03*
X24600Y-18000D03*
X23800Y-18450D03*
G54D17*
X14250Y-7500D03*
G54D18*
X14250Y-9500D03*
G54D17*
X7500Y-13500D03*
G54D18*
X7500Y-18500D03*
X9750Y-19500D03*
X12000Y-18500D03*
X12000Y-13500D03*
M02*
