G04 (created by PCBNEW (22-Jun-2014 BZR 4027)-stable) date Cts 25 Nis 2020 13:37:24 +03*
%MOIN*%
G04 Gerber Fmt 3.4, Leading zero omitted, Abs format*
%FSLAX34Y34*%
G01*
G70*
G90*
G04 APERTURE LIST*
%ADD10C,0.00590551*%
%ADD11C,0.00393701*%
%ADD12C,0.1437*%
%ADD13R,0.0591X0.0591*%
%ADD14C,0.0591*%
%ADD15R,0.055X0.055*%
%ADD16C,0.055*%
%ADD17R,0.06X0.06*%
%ADD18C,0.06*%
%ADD19C,0.066*%
%ADD20C,0.035*%
%ADD21C,0.01*%
G04 APERTURE END LIST*
G54D10*
G54D11*
X6450Y-6400D02*
X6450Y-6450D01*
X27650Y-6400D02*
X27650Y-6450D01*
X6450Y-6400D02*
X27650Y-6400D01*
X6450Y-6500D02*
X6450Y-6450D01*
X6450Y-20600D02*
X6450Y-6500D01*
X27650Y-20600D02*
X6450Y-20600D01*
X27650Y-6450D02*
X27650Y-20600D01*
G54D12*
X25500Y-7600D03*
X25500Y-12400D03*
G54D13*
X24600Y-8600D03*
G54D14*
X23800Y-9050D03*
X24600Y-9400D03*
X23800Y-9850D03*
X24600Y-10200D03*
X23800Y-10650D03*
X24600Y-11000D03*
X23800Y-11450D03*
G54D15*
X19500Y-20000D03*
G54D16*
X19500Y-19000D03*
X18500Y-19000D03*
G54D15*
X15500Y-20000D03*
G54D16*
X15500Y-19000D03*
X14500Y-19000D03*
X17500Y-14500D03*
X14500Y-14500D03*
X17500Y-13000D03*
X14500Y-13000D03*
X16100Y-9950D03*
X16100Y-6950D03*
X17500Y-6950D03*
X17500Y-9950D03*
X17500Y-11500D03*
X14500Y-11500D03*
G54D17*
X19200Y-7400D03*
G54D18*
X20200Y-7400D03*
X19200Y-8400D03*
X20200Y-8400D03*
X19200Y-9400D03*
X20200Y-9400D03*
X19200Y-10400D03*
X20200Y-10400D03*
X19200Y-11400D03*
X20200Y-11400D03*
X19200Y-12400D03*
X20200Y-12400D03*
X19200Y-13400D03*
X20200Y-13400D03*
X19200Y-14400D03*
X20200Y-14400D03*
G54D19*
X17500Y-16000D03*
X17500Y-17000D03*
G54D15*
X15000Y-17000D03*
G54D16*
X15000Y-16000D03*
G54D15*
X20000Y-16000D03*
G54D16*
X20000Y-17000D03*
G54D12*
X25500Y-14600D03*
X25500Y-19400D03*
G54D13*
X24600Y-15600D03*
G54D14*
X23800Y-16050D03*
X24600Y-16400D03*
X23800Y-16850D03*
X24600Y-17200D03*
X23800Y-17650D03*
X24600Y-18000D03*
X23800Y-18450D03*
G54D17*
X14250Y-7500D03*
G54D18*
X14250Y-9500D03*
G54D17*
X7500Y-13500D03*
G54D18*
X7500Y-18500D03*
X9750Y-19500D03*
X12000Y-18500D03*
X12000Y-13500D03*
G54D20*
X21000Y-15300D03*
X23650Y-13450D03*
X13700Y-17600D03*
G54D21*
X14500Y-14500D02*
X14500Y-15500D01*
X14500Y-15500D02*
X15000Y-16000D01*
X20000Y-17000D02*
X20000Y-17600D01*
X20000Y-17600D02*
X20950Y-18550D01*
X20950Y-18550D02*
X20950Y-19300D01*
X20950Y-19300D02*
X20250Y-20000D01*
X20250Y-20000D02*
X19500Y-20000D01*
X23800Y-16050D02*
X22450Y-16050D01*
X22450Y-16050D02*
X21500Y-17000D01*
X21500Y-17000D02*
X20000Y-17000D01*
X14500Y-13000D02*
X15101Y-13024D01*
X16050Y-20000D02*
X16700Y-19350D01*
X16700Y-15950D02*
X16000Y-15250D01*
X16700Y-19350D02*
X16700Y-15950D01*
X16000Y-15250D02*
X15985Y-13914D01*
X15985Y-13914D02*
X15101Y-13024D01*
X16050Y-20000D02*
X15500Y-20000D01*
X20200Y-14400D02*
X20850Y-14400D01*
X20850Y-14400D02*
X23800Y-11450D01*
X24600Y-11000D02*
X24600Y-11650D01*
X23800Y-12450D02*
X21000Y-15250D01*
X21000Y-15250D02*
X21000Y-15300D01*
X24600Y-11650D02*
X23800Y-12450D01*
X20200Y-12400D02*
X21450Y-12400D01*
X23200Y-10650D02*
X23800Y-10650D01*
X21450Y-12400D02*
X23200Y-10650D01*
X24600Y-10200D02*
X25650Y-10200D01*
X26200Y-13450D02*
X23650Y-13450D01*
X26700Y-12950D02*
X26200Y-13450D01*
X26700Y-11250D02*
X26700Y-12950D01*
X25650Y-10200D02*
X26700Y-11250D01*
X20200Y-10400D02*
X21550Y-10400D01*
X22100Y-9850D02*
X23800Y-9850D01*
X21550Y-10400D02*
X22100Y-9850D01*
X16100Y-7975D02*
X16100Y-8400D01*
X16100Y-18400D02*
X15500Y-19000D01*
X16103Y-16050D02*
X16100Y-18400D01*
X15461Y-15398D02*
X16103Y-16050D01*
X15464Y-14250D02*
X15461Y-15398D01*
X14950Y-13750D02*
X15464Y-14250D01*
X14300Y-13750D02*
X14950Y-13750D01*
X13750Y-13200D02*
X14300Y-13750D01*
X13750Y-10950D02*
X13750Y-13200D01*
X14150Y-10550D02*
X13750Y-10950D01*
X15100Y-10550D02*
X14150Y-10550D01*
X15350Y-10300D02*
X15100Y-10550D01*
X15350Y-9150D02*
X15350Y-10300D01*
X16100Y-8400D02*
X15350Y-9150D01*
X16100Y-6950D02*
X16100Y-7975D01*
X16100Y-7975D02*
X16100Y-7950D01*
X17500Y-9350D02*
X17500Y-9950D01*
X16100Y-7950D02*
X17500Y-9350D01*
X23800Y-9050D02*
X23150Y-8400D01*
X23150Y-8400D02*
X20200Y-8400D01*
X24600Y-8600D02*
X23400Y-7400D01*
X23400Y-7400D02*
X20200Y-7400D01*
X19200Y-7400D02*
X18750Y-6950D01*
X18750Y-6950D02*
X17500Y-6950D01*
X19200Y-7400D02*
X19200Y-8400D01*
X19200Y-8400D02*
X19200Y-9400D01*
X19200Y-9400D02*
X19200Y-10400D01*
X19200Y-10400D02*
X19200Y-11400D01*
X19200Y-11400D02*
X19200Y-12400D01*
X19200Y-12400D02*
X19200Y-13400D01*
X19200Y-13400D02*
X19200Y-14400D01*
X19500Y-19000D02*
X19500Y-18100D01*
X19500Y-18100D02*
X18700Y-17300D01*
X18700Y-17300D02*
X18700Y-15700D01*
X17500Y-14500D02*
X17500Y-13000D01*
X18700Y-15700D02*
X17500Y-14500D01*
X17500Y-16000D02*
X17500Y-15800D01*
X15900Y-11500D02*
X14500Y-11500D01*
X16600Y-12200D02*
X15900Y-11500D01*
X16600Y-14900D02*
X16600Y-12200D01*
X17500Y-15800D02*
X16600Y-14900D01*
X7500Y-18500D02*
X8600Y-18500D01*
X9500Y-17600D02*
X13700Y-17600D01*
X8600Y-18500D02*
X9500Y-17600D01*
X18500Y-19000D02*
X17850Y-19000D01*
X17500Y-18650D02*
X17500Y-17000D01*
X17850Y-19000D02*
X17500Y-18650D01*
X17500Y-11500D02*
X17950Y-11500D01*
X17950Y-11500D02*
X18300Y-11850D01*
X18300Y-11850D02*
X18300Y-14550D01*
X18300Y-14550D02*
X19750Y-16000D01*
X19750Y-16000D02*
X20000Y-16000D01*
X17500Y-11500D02*
X17050Y-11500D01*
X16100Y-10550D02*
X17050Y-11500D01*
X16100Y-10550D02*
X16100Y-9950D01*
X14500Y-19000D02*
X14500Y-17500D01*
X14500Y-17500D02*
X15000Y-17000D01*
X12000Y-18500D02*
X14050Y-18500D01*
X14500Y-18950D02*
X14500Y-19000D01*
X14050Y-18500D02*
X14500Y-18950D01*
X24600Y-15600D02*
X24600Y-15550D01*
X21300Y-16000D02*
X20000Y-16000D01*
X22050Y-15250D02*
X21300Y-16000D01*
X24300Y-15250D02*
X22050Y-15250D01*
X24600Y-15550D02*
X24300Y-15250D01*
G54D10*
G36*
X13350Y-10429D02*
X12950Y-10829D01*
X12950Y-12550D01*
X11250Y-12550D01*
X11250Y-14400D01*
X12950Y-14400D01*
X12950Y-17250D01*
X6850Y-17250D01*
X6850Y-14400D01*
X8350Y-14400D01*
X8350Y-12550D01*
X6850Y-12550D01*
X6850Y-6850D01*
X13350Y-6850D01*
X13350Y-10429D01*
X13350Y-10429D01*
G37*
G54D21*
X13350Y-10429D02*
X12950Y-10829D01*
X12950Y-12550D01*
X11250Y-12550D01*
X11250Y-14400D01*
X12950Y-14400D01*
X12950Y-17250D01*
X6850Y-17250D01*
X6850Y-14400D01*
X8350Y-14400D01*
X8350Y-12550D01*
X6850Y-12550D01*
X6850Y-6850D01*
X13350Y-6850D01*
X13350Y-10429D01*
G54D10*
G36*
X13750Y-19900D02*
X10550Y-19900D01*
X10550Y-19100D01*
X10550Y-18650D01*
X9379Y-18650D01*
X8950Y-19079D01*
X8950Y-19900D01*
X6850Y-19900D01*
X6850Y-19150D01*
X8670Y-19150D01*
X9770Y-18050D01*
X11300Y-18050D01*
X11300Y-19150D01*
X13750Y-19150D01*
X13750Y-19900D01*
X13750Y-19900D01*
G37*
G54D21*
X13750Y-19900D02*
X10550Y-19900D01*
X10550Y-19100D01*
X10550Y-18650D01*
X9379Y-18650D01*
X8950Y-19079D01*
X8950Y-19900D01*
X6850Y-19900D01*
X6850Y-19150D01*
X8670Y-19150D01*
X9770Y-18050D01*
X11300Y-18050D01*
X11300Y-19150D01*
X13750Y-19150D01*
X13750Y-19900D01*
G54D10*
G36*
X13700Y-16879D02*
X13329Y-17250D01*
X13100Y-17250D01*
X13100Y-13570D01*
X13700Y-14170D01*
X13700Y-16879D01*
X13700Y-16879D01*
G37*
G54D21*
X13700Y-16879D02*
X13329Y-17250D01*
X13100Y-17250D01*
X13100Y-13570D01*
X13700Y-14170D01*
X13700Y-16879D01*
G54D10*
G36*
X27450Y-19950D02*
X26500Y-19950D01*
X26500Y-18978D01*
X25602Y-18133D01*
X25181Y-18483D01*
X24952Y-18578D01*
X24679Y-18850D01*
X24646Y-18929D01*
X24350Y-19176D01*
X24350Y-20000D01*
X24350Y-20400D01*
X19993Y-20400D01*
X20025Y-20324D01*
X20025Y-20112D01*
X19962Y-20050D01*
X19550Y-20050D01*
X19550Y-20057D01*
X19450Y-20057D01*
X19450Y-20050D01*
X19442Y-20050D01*
X19442Y-19950D01*
X19450Y-19950D01*
X19450Y-19942D01*
X19550Y-19942D01*
X19550Y-19950D01*
X19962Y-19950D01*
X20025Y-19887D01*
X20025Y-19700D01*
X20550Y-19700D01*
X20550Y-17829D01*
X20208Y-17487D01*
X20272Y-17460D01*
X20297Y-17367D01*
X20000Y-17070D01*
X19994Y-17076D01*
X19923Y-17005D01*
X19929Y-17000D01*
X19923Y-16994D01*
X19994Y-16923D01*
X20000Y-16929D01*
X20005Y-16923D01*
X20076Y-16994D01*
X20070Y-17000D01*
X20367Y-17297D01*
X20460Y-17272D01*
X20529Y-17075D01*
X20518Y-16867D01*
X20469Y-16750D01*
X21200Y-16750D01*
X21820Y-16750D01*
X22470Y-16100D01*
X23100Y-16100D01*
X23100Y-19100D01*
X24167Y-19100D01*
X25300Y-18173D01*
X25300Y-15750D01*
X26118Y-15750D01*
X26550Y-15372D01*
X26550Y-14100D01*
X27450Y-14100D01*
X27450Y-19950D01*
X27450Y-19950D01*
G37*
G54D21*
X27450Y-19950D02*
X26500Y-19950D01*
X26500Y-18978D01*
X25602Y-18133D01*
X25181Y-18483D01*
X24952Y-18578D01*
X24679Y-18850D01*
X24646Y-18929D01*
X24350Y-19176D01*
X24350Y-20000D01*
X24350Y-20400D01*
X19993Y-20400D01*
X20025Y-20324D01*
X20025Y-20112D01*
X19962Y-20050D01*
X19550Y-20050D01*
X19550Y-20057D01*
X19450Y-20057D01*
X19450Y-20050D01*
X19442Y-20050D01*
X19442Y-19950D01*
X19450Y-19950D01*
X19450Y-19942D01*
X19550Y-19942D01*
X19550Y-19950D01*
X19962Y-19950D01*
X20025Y-19887D01*
X20025Y-19700D01*
X20550Y-19700D01*
X20550Y-17829D01*
X20208Y-17487D01*
X20272Y-17460D01*
X20297Y-17367D01*
X20000Y-17070D01*
X19994Y-17076D01*
X19923Y-17005D01*
X19929Y-17000D01*
X19923Y-16994D01*
X19994Y-16923D01*
X20000Y-16929D01*
X20005Y-16923D01*
X20076Y-16994D01*
X20070Y-17000D01*
X20367Y-17297D01*
X20460Y-17272D01*
X20529Y-17075D01*
X20518Y-16867D01*
X20469Y-16750D01*
X21200Y-16750D01*
X21820Y-16750D01*
X22470Y-16100D01*
X23100Y-16100D01*
X23100Y-19100D01*
X24167Y-19100D01*
X25300Y-18173D01*
X25300Y-15750D01*
X26118Y-15750D01*
X26550Y-15372D01*
X26550Y-14100D01*
X27450Y-14100D01*
X27450Y-19950D01*
G54D10*
G36*
X26400Y-11829D02*
X25970Y-11400D01*
X25700Y-11400D01*
X25300Y-11400D01*
X25300Y-10500D01*
X25525Y-10500D01*
X26400Y-11374D01*
X26400Y-11829D01*
X26400Y-11829D01*
G37*
G54D21*
X26400Y-11829D02*
X25970Y-11400D01*
X25700Y-11400D01*
X25300Y-11400D01*
X25300Y-10500D01*
X25525Y-10500D01*
X26400Y-11374D01*
X26400Y-11829D01*
G54D10*
G36*
X27450Y-13450D02*
X26624Y-13450D01*
X26912Y-13162D01*
X26912Y-13162D01*
X26977Y-13064D01*
X26999Y-12950D01*
X27000Y-12950D01*
X27000Y-11250D01*
X26977Y-11135D01*
X26912Y-11037D01*
X26912Y-11037D01*
X25862Y-9987D01*
X25764Y-9922D01*
X25650Y-9900D01*
X25300Y-9900D01*
X25300Y-8800D01*
X25820Y-8800D01*
X26450Y-8170D01*
X26450Y-7837D01*
X26468Y-7793D01*
X26468Y-7787D01*
X26470Y-7781D01*
X26468Y-7594D01*
X26468Y-7408D01*
X26466Y-7402D01*
X26466Y-7396D01*
X26450Y-7357D01*
X26450Y-7150D01*
X27450Y-7150D01*
X27450Y-13450D01*
X27450Y-13450D01*
G37*
G54D21*
X27450Y-13450D02*
X26624Y-13450D01*
X26912Y-13162D01*
X26912Y-13162D01*
X26977Y-13064D01*
X26999Y-12950D01*
X27000Y-12950D01*
X27000Y-11250D01*
X26977Y-11135D01*
X26912Y-11037D01*
X26912Y-11037D01*
X25862Y-9987D01*
X25764Y-9922D01*
X25650Y-9900D01*
X25300Y-9900D01*
X25300Y-8800D01*
X25820Y-8800D01*
X26450Y-8170D01*
X26450Y-7837D01*
X26468Y-7793D01*
X26468Y-7787D01*
X26470Y-7781D01*
X26468Y-7594D01*
X26468Y-7408D01*
X26466Y-7402D01*
X26466Y-7396D01*
X26450Y-7357D01*
X26450Y-7150D01*
X27450Y-7150D01*
X27450Y-13450D01*
G54D10*
G36*
X24350Y-14850D02*
X22170Y-14850D01*
X23120Y-13900D01*
X23505Y-13900D01*
X23565Y-13924D01*
X23734Y-13925D01*
X23794Y-13900D01*
X24350Y-13900D01*
X24350Y-14850D01*
X24350Y-14850D01*
G37*
G54D21*
X24350Y-14850D02*
X22170Y-14850D01*
X23120Y-13900D01*
X23505Y-13900D01*
X23565Y-13924D01*
X23734Y-13925D01*
X23794Y-13900D01*
X24350Y-13900D01*
X24350Y-14850D01*
M02*
