G04 (created by PCBNEW (22-Jun-2014 BZR 4027)-stable) date Cts 25 Nis 2020 13:37:24 +03*
%MOIN*%
G04 Gerber Fmt 3.4, Leading zero omitted, Abs format*
%FSLAX34Y34*%
G01*
G70*
G90*
G04 APERTURE LIST*
%ADD10C,0.00590551*%
%ADD11C,0.00393701*%
%ADD12C,0.1437*%
%ADD13R,0.0591X0.0591*%
%ADD14C,0.0591*%
%ADD15R,0.055X0.055*%
%ADD16C,0.055*%
%ADD17R,0.06X0.06*%
%ADD18C,0.06*%
%ADD19C,0.066*%
%ADD20C,0.035*%
%ADD21C,0.01*%
%ADD22C,0.1*%
G04 APERTURE END LIST*
G54D10*
G54D11*
X6450Y-6400D02*
X6450Y-6450D01*
X27650Y-6400D02*
X27650Y-6450D01*
X6450Y-6400D02*
X27650Y-6400D01*
X6450Y-6500D02*
X6450Y-6450D01*
X6450Y-20600D02*
X6450Y-6500D01*
X27650Y-20600D02*
X6450Y-20600D01*
X27650Y-6450D02*
X27650Y-20600D01*
G54D12*
X25500Y-7600D03*
X25500Y-12400D03*
G54D13*
X24600Y-8600D03*
G54D14*
X23800Y-9050D03*
X24600Y-9400D03*
X23800Y-9850D03*
X24600Y-10200D03*
X23800Y-10650D03*
X24600Y-11000D03*
X23800Y-11450D03*
G54D15*
X19500Y-20000D03*
G54D16*
X19500Y-19000D03*
X18500Y-19000D03*
G54D15*
X15500Y-20000D03*
G54D16*
X15500Y-19000D03*
X14500Y-19000D03*
X17500Y-14500D03*
X14500Y-14500D03*
X17500Y-13000D03*
X14500Y-13000D03*
X16100Y-9950D03*
X16100Y-6950D03*
X17500Y-6950D03*
X17500Y-9950D03*
X17500Y-11500D03*
X14500Y-11500D03*
G54D17*
X19200Y-7400D03*
G54D18*
X20200Y-7400D03*
X19200Y-8400D03*
X20200Y-8400D03*
X19200Y-9400D03*
X20200Y-9400D03*
X19200Y-10400D03*
X20200Y-10400D03*
X19200Y-11400D03*
X20200Y-11400D03*
X19200Y-12400D03*
X20200Y-12400D03*
X19200Y-13400D03*
X20200Y-13400D03*
X19200Y-14400D03*
X20200Y-14400D03*
G54D19*
X17500Y-16000D03*
X17500Y-17000D03*
G54D15*
X15000Y-17000D03*
G54D16*
X15000Y-16000D03*
G54D15*
X20000Y-16000D03*
G54D16*
X20000Y-17000D03*
G54D12*
X25500Y-14600D03*
X25500Y-19400D03*
G54D13*
X24600Y-15600D03*
G54D14*
X23800Y-16050D03*
X24600Y-16400D03*
X23800Y-16850D03*
X24600Y-17200D03*
X23800Y-17650D03*
X24600Y-18000D03*
X23800Y-18450D03*
G54D17*
X14250Y-7500D03*
G54D18*
X14250Y-9500D03*
G54D17*
X7500Y-13500D03*
G54D18*
X7500Y-18500D03*
X9750Y-19500D03*
X12000Y-18500D03*
X12000Y-13500D03*
G54D20*
X21000Y-15300D03*
X23650Y-13450D03*
X13700Y-17600D03*
G54D21*
X15000Y-16000D02*
X15700Y-16000D01*
X19300Y-17000D02*
X20000Y-17000D01*
X18850Y-16550D02*
X19300Y-17000D01*
X18850Y-16200D02*
X18850Y-16550D01*
X17950Y-15300D02*
X18850Y-16200D01*
X16400Y-15300D02*
X17950Y-15300D01*
X15700Y-16000D02*
X16400Y-15300D01*
X21000Y-15300D02*
X21000Y-13850D01*
X21000Y-13850D02*
X20550Y-13400D01*
X20550Y-13400D02*
X20200Y-13400D01*
X20800Y-11400D02*
X20200Y-11400D01*
X21150Y-11750D02*
X20800Y-11400D01*
X21150Y-12800D02*
X21150Y-11750D01*
X22450Y-14100D02*
X21150Y-12800D01*
X23000Y-14100D02*
X22450Y-14100D01*
X23650Y-13450D02*
X23000Y-14100D01*
X24600Y-9400D02*
X25700Y-9400D01*
X21250Y-9400D02*
X20200Y-9400D01*
X22200Y-10350D02*
X21250Y-9400D01*
X22200Y-11950D02*
X22200Y-10350D01*
X22650Y-12400D02*
X22200Y-11950D01*
X23750Y-12400D02*
X22650Y-12400D01*
X24800Y-13450D02*
X23750Y-12400D01*
X26200Y-13450D02*
X24800Y-13450D01*
X26700Y-12950D02*
X26200Y-13450D01*
X26700Y-10400D02*
X26700Y-12950D01*
X25700Y-9400D02*
X26700Y-10400D01*
G54D22*
X9750Y-19500D02*
X9750Y-11750D01*
X9750Y-11750D02*
X9750Y-8650D01*
X9750Y-8650D02*
X10900Y-7500D01*
X10900Y-7500D02*
X14250Y-7500D01*
X13200Y-9500D02*
X14250Y-9500D01*
X12000Y-10700D02*
X13200Y-9500D01*
X12000Y-13500D02*
X12000Y-10700D01*
G54D21*
X17050Y-19000D02*
X18500Y-19000D01*
X16150Y-18100D02*
X17050Y-19000D01*
X14250Y-18100D02*
X16150Y-18100D01*
X13700Y-17600D02*
X14000Y-17870D01*
X14000Y-17870D02*
X14250Y-18100D01*
X15000Y-17000D02*
X16250Y-17000D01*
X20500Y-16000D02*
X20000Y-16000D01*
X21100Y-16600D02*
X20500Y-16000D01*
X21100Y-17750D02*
X21100Y-16600D01*
X20600Y-18250D02*
X21100Y-17750D01*
X20050Y-18250D02*
X20600Y-18250D01*
X19450Y-17650D02*
X20050Y-18250D01*
X18550Y-17650D02*
X19450Y-17650D01*
X18300Y-17900D02*
X18550Y-17650D01*
X17150Y-17900D02*
X18300Y-17900D01*
X16250Y-17000D02*
X17150Y-17900D01*
G54D10*
G36*
X27300Y-20350D02*
X26550Y-20350D01*
X26550Y-18928D01*
X25919Y-18350D01*
X25178Y-18350D01*
X24973Y-18569D01*
X24952Y-18578D01*
X24679Y-18850D01*
X24654Y-18911D01*
X24431Y-19150D01*
X24500Y-19150D01*
X24500Y-20350D01*
X20014Y-20350D01*
X20025Y-20324D01*
X20025Y-20112D01*
X19962Y-20050D01*
X19550Y-20050D01*
X19550Y-20057D01*
X19450Y-20057D01*
X19450Y-20050D01*
X19442Y-20050D01*
X19442Y-19950D01*
X19450Y-19950D01*
X19450Y-19942D01*
X19550Y-19942D01*
X19550Y-19950D01*
X19962Y-19950D01*
X20025Y-19887D01*
X20025Y-19675D01*
X20014Y-19650D01*
X20600Y-19650D01*
X20600Y-18721D01*
X21750Y-17621D01*
X21750Y-14450D01*
X24531Y-14450D01*
X24531Y-14791D01*
X24550Y-14836D01*
X24550Y-14950D01*
X24000Y-14950D01*
X24000Y-15542D01*
X23880Y-15499D01*
X23663Y-15510D01*
X23514Y-15572D01*
X23488Y-15667D01*
X23800Y-15979D01*
X23805Y-15973D01*
X23876Y-16044D01*
X23870Y-16050D01*
X23876Y-16055D01*
X23845Y-16086D01*
X23747Y-16079D01*
X23723Y-16055D01*
X23729Y-16050D01*
X23417Y-15738D01*
X23322Y-15764D01*
X23249Y-15969D01*
X23254Y-16071D01*
X23050Y-16225D01*
X23050Y-18720D01*
X23479Y-19150D01*
X24367Y-19150D01*
X25350Y-18069D01*
X25350Y-15700D01*
X25971Y-15700D01*
X26550Y-15069D01*
X26550Y-14450D01*
X27300Y-14450D01*
X27300Y-20350D01*
X27300Y-20350D01*
G37*
G54D21*
X27300Y-20350D02*
X26550Y-20350D01*
X26550Y-18928D01*
X25919Y-18350D01*
X25178Y-18350D01*
X24973Y-18569D01*
X24952Y-18578D01*
X24679Y-18850D01*
X24654Y-18911D01*
X24431Y-19150D01*
X24500Y-19150D01*
X24500Y-20350D01*
X20014Y-20350D01*
X20025Y-20324D01*
X20025Y-20112D01*
X19962Y-20050D01*
X19550Y-20050D01*
X19550Y-20057D01*
X19450Y-20057D01*
X19450Y-20050D01*
X19442Y-20050D01*
X19442Y-19950D01*
X19450Y-19950D01*
X19450Y-19942D01*
X19550Y-19942D01*
X19550Y-19950D01*
X19962Y-19950D01*
X20025Y-19887D01*
X20025Y-19675D01*
X20014Y-19650D01*
X20600Y-19650D01*
X20600Y-18721D01*
X21750Y-17621D01*
X21750Y-14450D01*
X24531Y-14450D01*
X24531Y-14791D01*
X24550Y-14836D01*
X24550Y-14950D01*
X24000Y-14950D01*
X24000Y-15542D01*
X23880Y-15499D01*
X23663Y-15510D01*
X23514Y-15572D01*
X23488Y-15667D01*
X23800Y-15979D01*
X23805Y-15973D01*
X23876Y-16044D01*
X23870Y-16050D01*
X23876Y-16055D01*
X23845Y-16086D01*
X23747Y-16079D01*
X23723Y-16055D01*
X23729Y-16050D01*
X23417Y-15738D01*
X23322Y-15764D01*
X23249Y-15969D01*
X23254Y-16071D01*
X23050Y-16225D01*
X23050Y-18720D01*
X23479Y-19150D01*
X24367Y-19150D01*
X25350Y-18069D01*
X25350Y-15700D01*
X25971Y-15700D01*
X26550Y-15069D01*
X26550Y-14450D01*
X27300Y-14450D01*
X27300Y-20350D01*
G54D10*
G36*
X24500Y-7950D02*
X23629Y-7950D01*
X23150Y-8429D01*
X23150Y-11700D01*
X22650Y-11700D01*
X22650Y-10028D01*
X21420Y-8850D01*
X21150Y-8850D01*
X21150Y-8350D01*
X21150Y-7050D01*
X24500Y-7050D01*
X24500Y-7950D01*
X24500Y-7950D01*
G37*
G54D21*
X24500Y-7950D02*
X23629Y-7950D01*
X23150Y-8429D01*
X23150Y-11700D01*
X22650Y-11700D01*
X22650Y-10028D01*
X21420Y-8850D01*
X21150Y-8850D01*
X21150Y-8350D01*
X21150Y-7050D01*
X24500Y-7050D01*
X24500Y-7950D01*
G54D10*
G36*
X18250Y-9200D02*
X15798Y-9200D01*
X15751Y-7700D01*
X18250Y-7700D01*
X18250Y-9200D01*
X18250Y-9200D01*
G37*
G54D21*
X18250Y-9200D02*
X15798Y-9200D01*
X15751Y-7700D01*
X18250Y-7700D01*
X18250Y-9200D01*
G54D10*
G36*
X16850Y-14900D02*
X15100Y-14900D01*
X15100Y-10750D01*
X16150Y-10750D01*
X16850Y-10750D01*
X16850Y-14900D01*
X16850Y-14900D01*
G37*
G54D21*
X16850Y-14900D02*
X15100Y-14900D01*
X15100Y-10750D01*
X16150Y-10750D01*
X16850Y-10750D01*
X16850Y-14900D01*
G54D10*
G36*
X13600Y-16979D02*
X12929Y-17650D01*
X11650Y-17650D01*
X11650Y-14700D01*
X13600Y-14700D01*
X13600Y-16979D01*
X13600Y-16979D01*
G37*
G54D21*
X13600Y-16979D02*
X12929Y-17650D01*
X11650Y-17650D01*
X11650Y-14700D01*
X13600Y-14700D01*
X13600Y-16979D01*
G54D10*
G36*
X8700Y-19600D02*
X8250Y-19600D01*
X8250Y-17600D01*
X7150Y-17600D01*
X7150Y-14500D01*
X7150Y-14450D01*
X7150Y-14400D01*
X8250Y-14400D01*
X8250Y-12700D01*
X7199Y-12700D01*
X7150Y-7000D01*
X8700Y-7000D01*
X8700Y-19600D01*
X8700Y-19600D01*
G37*
G54D21*
X8700Y-19600D02*
X8250Y-19600D01*
X8250Y-17600D01*
X7150Y-17600D01*
X7150Y-14500D01*
X7150Y-14450D01*
X7150Y-14400D01*
X8250Y-14400D01*
X8250Y-12700D01*
X7199Y-12700D01*
X7150Y-7000D01*
X8700Y-7000D01*
X8700Y-19600D01*
G54D10*
G36*
X26400Y-11879D02*
X25870Y-11350D01*
X25399Y-11350D01*
X25367Y-9700D01*
X25575Y-9700D01*
X26400Y-10524D01*
X26400Y-11879D01*
X26400Y-11879D01*
G37*
G54D21*
X26400Y-11879D02*
X25870Y-11350D01*
X25399Y-11350D01*
X25367Y-9700D01*
X25575Y-9700D01*
X26400Y-10524D01*
X26400Y-11879D01*
G54D10*
G36*
X27350Y-13800D02*
X26700Y-13800D01*
X26700Y-13374D01*
X26912Y-13162D01*
X26912Y-13162D01*
X26977Y-13064D01*
X26999Y-12950D01*
X27000Y-12950D01*
X27000Y-10400D01*
X26977Y-10285D01*
X26912Y-10187D01*
X26912Y-10187D01*
X25912Y-9187D01*
X25814Y-9122D01*
X25700Y-9100D01*
X25356Y-9100D01*
X25350Y-8800D01*
X25920Y-8800D01*
X26550Y-8170D01*
X26550Y-7050D01*
X27350Y-7050D01*
X27350Y-13800D01*
X27350Y-13800D01*
G37*
G54D21*
X27350Y-13800D02*
X26700Y-13800D01*
X26700Y-13374D01*
X26912Y-13162D01*
X26912Y-13162D01*
X26977Y-13064D01*
X26999Y-12950D01*
X27000Y-12950D01*
X27000Y-10400D01*
X26977Y-10285D01*
X26912Y-10187D01*
X26912Y-10187D01*
X25912Y-9187D01*
X25814Y-9122D01*
X25700Y-9100D01*
X25356Y-9100D01*
X25350Y-8800D01*
X25920Y-8800D01*
X26550Y-8170D01*
X26550Y-7050D01*
X27350Y-7050D01*
X27350Y-13800D01*
G54D10*
G36*
X23150Y-12100D02*
X22774Y-12100D01*
X22674Y-12000D01*
X23150Y-12000D01*
X23150Y-12100D01*
X23150Y-12100D01*
G37*
G54D21*
X23150Y-12100D02*
X22774Y-12100D01*
X22674Y-12000D01*
X23150Y-12000D01*
X23150Y-12100D01*
G54D10*
G36*
X23150Y-13200D02*
X22820Y-13200D01*
X21550Y-11929D01*
X21550Y-10300D01*
X21550Y-10170D01*
X21900Y-10520D01*
X21900Y-11950D01*
X21900Y-12000D01*
X21909Y-12000D01*
X21909Y-12000D01*
X21922Y-12064D01*
X21987Y-12162D01*
X22437Y-12612D01*
X22535Y-12677D01*
X22650Y-12700D01*
X23150Y-12700D01*
X23150Y-13200D01*
X23150Y-13200D01*
G37*
G54D21*
X23150Y-13200D02*
X22820Y-13200D01*
X21550Y-11929D01*
X21550Y-10300D01*
X21550Y-10170D01*
X21900Y-10520D01*
X21900Y-11950D01*
X21900Y-12000D01*
X21909Y-12000D01*
X21909Y-12000D01*
X21922Y-12064D01*
X21987Y-12162D01*
X22437Y-12612D01*
X22535Y-12677D01*
X22650Y-12700D01*
X23150Y-12700D01*
X23150Y-13200D01*
M02*
