M48
;DRILL file {Pcbnew (22-Jun-2014 BZR 4027)-stable} date Cts 25 Nis 2020 13:37:29 +03
;FORMAT={-:-/ absolute / inch / decimal}
FMAT,2
INCH,TZ
T1C0.025
T2C0.032
T3C0.035
T4C0.040
T5C0.128
%
G90
G05
M72
T1
X1.37Y-1.76
X2.1Y-1.53
X2.365Y-1.345
T2
X1.45Y-1.15
X1.45Y-1.3
X1.45Y-1.45
X1.45Y-1.9
X1.5Y-1.6
X1.5Y-1.7
X1.55Y-1.9
X1.55Y-2.
X1.61Y-0.695
X1.61Y-0.995
X1.75Y-0.695
X1.75Y-0.995
X1.75Y-1.15
X1.75Y-1.3
X1.75Y-1.45
X1.75Y-1.6
X1.75Y-1.7
X1.85Y-1.9
X1.95Y-1.9
X1.95Y-2.
X2.Y-1.6
X2.Y-1.7
T3
X2.38Y-0.905
X2.38Y-0.985
X2.38Y-1.065
X2.38Y-1.145
X2.38Y-1.605
X2.38Y-1.685
X2.38Y-1.765
X2.38Y-1.845
X2.46Y-0.86
X2.46Y-0.94
X2.46Y-1.02
X2.46Y-1.1
X2.46Y-1.56
X2.46Y-1.64
X2.46Y-1.72
X2.46Y-1.8
T4
X0.75Y-1.35
X0.75Y-1.85
X0.975Y-1.95
X1.2Y-1.35
X1.2Y-1.85
X1.425Y-0.75
X1.425Y-0.95
X1.92Y-0.74
X1.92Y-0.84
X1.92Y-0.94
X1.92Y-1.04
X1.92Y-1.14
X1.92Y-1.24
X1.92Y-1.34
X1.92Y-1.44
X2.02Y-0.74
X2.02Y-0.84
X2.02Y-0.94
X2.02Y-1.04
X2.02Y-1.14
X2.02Y-1.24
X2.02Y-1.34
X2.02Y-1.44
T5
X2.55Y-0.76
X2.55Y-1.24
X2.55Y-1.46
X2.55Y-1.94
T0
M30
