M48
;DRILL file {Pcbnew (22-Jun-2014 BZR 4027)-stable} date Cts 25 Nis 2020 13:21:46 +03
;FORMAT={-:-/ absolute / inch / decimal}
FMAT,2
INCH,TZ
T1C0.025
T2C0.032
T3C0.035
T4C0.040
T5C0.128
%
G90
G05
M72
T1
X0.81Y-1.65
X0.855Y-2.205
X0.915Y-1.66
X1.Y-0.815
X1.08Y-0.765
X1.16Y-0.655
X1.22Y-1.9
X1.285Y-2.74
X1.37Y-2.18
X1.59Y-2.86
X1.62Y-2.49
X1.655Y-2.75
X1.665Y-1.65
X1.68Y-2.07
X1.685Y-2.995
X1.795Y-2.52
X1.805Y-2.155
X1.845Y-2.915
X1.89Y-2.98
X1.9Y-2.855
X1.955Y-2.585
X2.065Y-2.4
X2.125Y-2.585
X2.16Y-2.18
X2.305Y-1.32
X2.44Y-2.52
X2.465Y-1.68
T2
X0.79Y-3.14
X0.79Y-3.27
X0.815Y-1.77
X0.815Y-2.07
X0.815Y-2.265
X0.815Y-2.4
X0.83Y-2.645
X0.83Y-2.945
X0.915Y-1.77
X0.915Y-2.07
X0.93Y-2.645
X0.93Y-2.945
X1.015Y-1.77
X1.015Y-2.07
X1.03Y-2.645
X1.03Y-2.945
X1.09Y-3.14
X1.09Y-3.27
X1.115Y-1.77
X1.115Y-2.07
X1.115Y-2.265
X1.115Y-2.4
X1.13Y-2.645
X1.13Y-2.945
X1.215Y-1.77
X1.215Y-2.07
X1.23Y-2.645
X1.23Y-2.945
X1.24Y-3.14
X1.24Y-3.27
X1.245Y-2.265
X1.245Y-2.4
X1.315Y-1.77
X1.315Y-2.07
X1.33Y-2.645
X1.33Y-2.945
X1.415Y-1.77
X1.415Y-2.07
X1.43Y-2.645
X1.43Y-2.945
X1.515Y-1.77
X1.515Y-2.07
X1.54Y-3.14
X1.54Y-3.27
X1.545Y-2.265
X1.545Y-2.4
X1.73Y-2.68
X1.73Y-3.145
X1.83Y-2.68
X1.83Y-3.145
X1.84Y-1.59
X1.84Y-2.275
X1.84Y-2.405
X1.845Y-1.46
X1.915Y-1.77
X1.915Y-2.07
X2.015Y-1.77
X2.015Y-2.07
X2.115Y-1.77
X2.115Y-2.07
X2.14Y-1.59
X2.14Y-2.275
X2.14Y-2.405
X2.145Y-1.46
X2.215Y-1.77
X2.215Y-2.07
X2.235Y-0.955
X2.28Y-2.27
X2.28Y-2.4
X2.285Y-1.195
X2.285Y-1.455
X2.285Y-1.585
X2.315Y-1.77
X2.315Y-2.07
X2.335Y-0.955
X2.415Y-1.77
X2.415Y-2.07
X2.45Y-0.775
X2.515Y-1.77
X2.515Y-2.07
X2.55Y-0.775
X2.58Y-2.27
X2.58Y-2.4
X2.585Y-1.195
X2.585Y-1.455
X2.585Y-1.585
T3
X0.92Y-0.915
X0.965Y-0.995
X1.Y-0.915
X1.045Y-0.995
X1.08Y-0.915
X1.125Y-0.995
X1.16Y-0.915
X1.205Y-0.995
X1.66Y-0.915
X1.705Y-0.995
X1.74Y-0.915
X1.785Y-0.995
X1.82Y-0.915
X1.865Y-0.995
X1.9Y-0.915
X1.945Y-0.995
X2.135Y-2.94
X2.18Y-3.02
X2.215Y-2.94
X2.26Y-3.02
X2.295Y-2.94
X2.34Y-3.02
X2.375Y-2.94
X2.42Y-3.02
T4
X0.81Y-1.415
X0.81Y-1.515
X0.91Y-1.415
X0.91Y-1.515
X1.01Y-1.415
X1.01Y-1.515
X1.11Y-1.415
X1.11Y-1.515
X1.21Y-1.415
X1.21Y-1.515
X1.31Y-1.415
X1.31Y-1.515
X1.41Y-1.415
X1.41Y-1.515
X1.51Y-1.415
X1.51Y-1.515
T5
X0.82Y-0.825
X1.3Y-0.825
X1.56Y-0.825
X2.04Y-0.825
X2.04Y-3.11
X2.52Y-3.11
T0
M30
