G04 (created by PCBNEW (22-Jun-2014 BZR 4027)-stable) date Cts 25 Nis 2020 13:21:39 +03*
%MOIN*%
G04 Gerber Fmt 3.4, Leading zero omitted, Abs format*
%FSLAX34Y34*%
G01*
G70*
G90*
G04 APERTURE LIST*
%ADD10C,0.00590551*%
%ADD11C,0.00393701*%
%ADD12C,0.1437*%
%ADD13R,0.0591X0.0591*%
%ADD14C,0.0591*%
%ADD15C,0.055*%
%ADD16R,0.06X0.06*%
%ADD17C,0.06*%
%ADD18C,0.066*%
%ADD19R,0.062X0.09*%
%ADD20O,0.062X0.09*%
%ADD21R,0.055X0.055*%
%ADD22C,0.035*%
%ADD23C,0.01*%
G04 APERTURE END LIST*
G54D10*
G54D11*
X7150Y-6000D02*
X7400Y-6000D01*
X7150Y-6000D02*
X7150Y-6150D01*
X7150Y-6100D02*
X7150Y-6000D01*
X7150Y-33250D02*
X7150Y-6100D01*
X26350Y-33250D02*
X7150Y-33250D01*
X26350Y-6000D02*
X7200Y-6000D01*
X26350Y-33250D02*
X26350Y-6000D01*
X26350Y-6000D02*
X26350Y-33250D01*
X7200Y-6000D02*
X26350Y-6000D01*
G54D12*
X15600Y-8250D03*
X20400Y-8250D03*
G54D13*
X16600Y-9150D03*
G54D14*
X17050Y-9950D03*
X17400Y-9150D03*
X17850Y-9950D03*
X18200Y-9150D03*
X18650Y-9950D03*
X19000Y-9150D03*
X19450Y-9950D03*
G54D12*
X8200Y-8250D03*
X13000Y-8250D03*
G54D13*
X9200Y-9150D03*
G54D14*
X9650Y-9950D03*
X10000Y-9150D03*
X10450Y-9950D03*
X10800Y-9150D03*
X11250Y-9950D03*
X11600Y-9150D03*
X12050Y-9950D03*
G54D12*
X25200Y-31100D03*
X20400Y-31100D03*
G54D13*
X24200Y-30200D03*
G54D14*
X23750Y-29400D03*
X23400Y-30200D03*
X22950Y-29400D03*
X22600Y-30200D03*
X22150Y-29400D03*
X21800Y-30200D03*
X21350Y-29400D03*
G54D15*
X25850Y-14550D03*
X22850Y-14550D03*
X25850Y-11950D03*
X22850Y-11950D03*
X18450Y-14600D03*
X21450Y-14600D03*
X21400Y-15900D03*
X18400Y-15900D03*
X22850Y-15850D03*
X25850Y-15850D03*
X25800Y-24000D03*
X22800Y-24000D03*
X22800Y-22700D03*
X25800Y-22700D03*
X21400Y-22750D03*
X18400Y-22750D03*
X11150Y-22650D03*
X8150Y-22650D03*
X10900Y-31400D03*
X7900Y-31400D03*
X7900Y-32700D03*
X10900Y-32700D03*
X12400Y-31400D03*
X15400Y-31400D03*
X15400Y-32700D03*
X12400Y-32700D03*
X12450Y-22650D03*
X15450Y-22650D03*
X15450Y-24000D03*
X12450Y-24000D03*
X8150Y-24000D03*
X11150Y-24000D03*
X18400Y-24050D03*
X21400Y-24050D03*
G54D16*
X8100Y-15150D03*
G54D17*
X8100Y-14150D03*
X9100Y-15150D03*
X9100Y-14150D03*
X10100Y-15150D03*
X10100Y-14150D03*
X11100Y-15150D03*
X11100Y-14150D03*
X12100Y-15150D03*
X12100Y-14150D03*
X13100Y-15150D03*
X13100Y-14150D03*
X14100Y-15150D03*
X14100Y-14150D03*
X15100Y-15150D03*
X15100Y-14150D03*
G54D18*
X24500Y-7750D03*
X25500Y-7750D03*
G54D19*
X8150Y-20700D03*
G54D20*
X9150Y-20700D03*
X10150Y-20700D03*
X11150Y-20700D03*
X12150Y-20700D03*
X13150Y-20700D03*
X14150Y-20700D03*
X15150Y-20700D03*
X15150Y-17700D03*
X14150Y-17700D03*
X13150Y-17700D03*
X12150Y-17700D03*
X11150Y-17700D03*
X10150Y-17700D03*
X9150Y-17700D03*
X8150Y-17700D03*
G54D19*
X8300Y-29450D03*
G54D20*
X9300Y-29450D03*
X10300Y-29450D03*
X11300Y-29450D03*
X12300Y-29450D03*
X13300Y-29450D03*
X14300Y-29450D03*
X14300Y-26450D03*
X13300Y-26450D03*
X12300Y-26450D03*
X11300Y-26450D03*
X10300Y-26450D03*
X9300Y-26450D03*
X8300Y-26450D03*
G54D19*
X19150Y-20700D03*
G54D20*
X20150Y-20700D03*
X21150Y-20700D03*
X22150Y-20700D03*
X23150Y-20700D03*
X24150Y-20700D03*
X25150Y-20700D03*
X25150Y-17700D03*
X24150Y-17700D03*
X23150Y-17700D03*
X22150Y-17700D03*
X21150Y-17700D03*
X20150Y-17700D03*
X19150Y-17700D03*
G54D21*
X17300Y-31450D03*
G54D15*
X18300Y-31450D03*
G54D21*
X22350Y-9550D03*
G54D15*
X23350Y-9550D03*
G54D21*
X17300Y-26800D03*
G54D15*
X18300Y-26800D03*
G54D22*
X15900Y-28600D03*
X16550Y-27500D03*
X23050Y-13200D03*
X24650Y-16800D03*
X10800Y-7650D03*
X10000Y-8150D03*
X16650Y-16500D03*
X12200Y-19000D03*
X9150Y-16600D03*
X11600Y-6550D03*
X21600Y-21800D03*
X19550Y-25850D03*
X21250Y-25850D03*
X19000Y-28550D03*
X18900Y-29800D03*
X16850Y-29950D03*
X17950Y-25200D03*
X12850Y-27400D03*
X24400Y-25200D03*
X16200Y-24900D03*
X20650Y-24000D03*
X18450Y-29150D03*
X18050Y-21550D03*
X16800Y-20700D03*
X13700Y-21800D03*
X8100Y-16500D03*
X8550Y-22050D03*
G54D23*
X17050Y-9950D02*
X17850Y-9950D01*
X17850Y-9950D02*
X18650Y-9950D01*
X18650Y-9950D02*
X19450Y-9950D01*
X15900Y-28150D02*
X15900Y-28600D01*
X16550Y-27500D02*
X15900Y-28150D01*
X17050Y-9950D02*
X17050Y-10400D01*
X18600Y-11950D02*
X22850Y-11950D01*
X17050Y-10400D02*
X18600Y-11950D01*
X22850Y-11950D02*
X23150Y-11950D01*
X23350Y-11750D02*
X23350Y-9550D01*
X23150Y-11950D02*
X23350Y-11750D01*
X15150Y-20700D02*
X15150Y-19450D01*
X14150Y-18450D02*
X14150Y-17700D01*
X15150Y-19450D02*
X14150Y-18450D01*
X12150Y-21400D02*
X15000Y-21400D01*
X15000Y-21400D02*
X15150Y-21250D01*
X15150Y-21250D02*
X15150Y-20700D01*
X12150Y-20700D02*
X12150Y-21400D01*
X11300Y-25350D02*
X11300Y-26450D01*
X11800Y-24850D02*
X11300Y-25350D01*
X11800Y-21750D02*
X11800Y-24850D01*
X12150Y-21400D02*
X11800Y-21750D01*
X18300Y-31450D02*
X18300Y-31950D01*
X24200Y-30550D02*
X24200Y-30200D01*
X22400Y-32350D02*
X24200Y-30550D01*
X18700Y-32350D02*
X22400Y-32350D01*
X18300Y-31950D02*
X18700Y-32350D01*
X18300Y-26800D02*
X18300Y-27600D01*
X18300Y-27600D02*
X17900Y-28000D01*
X17900Y-28000D02*
X17900Y-29950D01*
X17900Y-29950D02*
X18300Y-30350D01*
X18300Y-30350D02*
X18300Y-31450D01*
X25150Y-20700D02*
X25150Y-19100D01*
X24650Y-18600D02*
X24650Y-16800D01*
X25150Y-19100D02*
X24650Y-18600D01*
X25800Y-22700D02*
X25800Y-22100D01*
X25150Y-21450D02*
X25150Y-20700D01*
X25800Y-22100D02*
X25150Y-21450D01*
X9675Y-18675D02*
X9675Y-16775D01*
X9675Y-18675D02*
X9150Y-19200D01*
X9150Y-20700D02*
X9150Y-19200D01*
X9675Y-16775D02*
X9700Y-16750D01*
X12600Y-16050D02*
X10400Y-16050D01*
X10400Y-16050D02*
X9700Y-16750D01*
X16050Y-16050D02*
X12600Y-16050D01*
X12600Y-16050D02*
X12550Y-16050D01*
X16850Y-15250D02*
X16050Y-16050D01*
X16850Y-14500D02*
X16850Y-15250D01*
X18150Y-13200D02*
X16850Y-14500D01*
X23050Y-13200D02*
X18150Y-13200D01*
X13100Y-14150D02*
X13100Y-12650D01*
X11250Y-10800D02*
X11250Y-9950D01*
X13100Y-12650D02*
X11250Y-10800D01*
X10800Y-9150D02*
X10800Y-7650D01*
X11100Y-14150D02*
X11100Y-11850D01*
X10450Y-11200D02*
X10450Y-9950D01*
X11100Y-11850D02*
X10450Y-11200D01*
X10000Y-9150D02*
X10000Y-8200D01*
X10000Y-8200D02*
X10000Y-8150D01*
X9100Y-14150D02*
X9100Y-10500D01*
X9100Y-10500D02*
X9650Y-9950D01*
X8100Y-14150D02*
X8100Y-10250D01*
X8100Y-10250D02*
X9200Y-9150D01*
X11150Y-20700D02*
X11150Y-18900D01*
X12000Y-16500D02*
X16650Y-16500D01*
X11650Y-16850D02*
X12000Y-16500D01*
X11650Y-18400D02*
X11650Y-16850D01*
X11150Y-18900D02*
X11650Y-18400D01*
X19150Y-17700D02*
X19150Y-16150D01*
X18900Y-15900D02*
X18400Y-15900D01*
X19150Y-16150D02*
X18900Y-15900D01*
X15100Y-14150D02*
X15100Y-12350D01*
X12700Y-9950D02*
X12050Y-9950D01*
X15100Y-12350D02*
X12700Y-9950D01*
X14150Y-19800D02*
X13350Y-19000D01*
X13350Y-19000D02*
X12200Y-19000D01*
X14150Y-20700D02*
X14150Y-19800D01*
X9100Y-16550D02*
X9100Y-15150D01*
X9150Y-16600D02*
X9100Y-16550D01*
X11600Y-9150D02*
X11600Y-6550D01*
X23150Y-18200D02*
X23150Y-17700D01*
X21650Y-19700D02*
X23150Y-18200D01*
X21650Y-21750D02*
X21650Y-19700D01*
X21600Y-21800D02*
X21650Y-21750D01*
X22850Y-15850D02*
X22850Y-14550D01*
X23150Y-17700D02*
X23150Y-16150D01*
X23150Y-16150D02*
X22850Y-15850D01*
X22800Y-22700D02*
X22900Y-22700D01*
X23150Y-22450D02*
X23150Y-20700D01*
X22900Y-22700D02*
X23150Y-22450D01*
X22800Y-24000D02*
X22800Y-22700D01*
X21250Y-25850D02*
X19550Y-25850D01*
X21400Y-22750D02*
X21400Y-24050D01*
X21150Y-20700D02*
X21150Y-22500D01*
X21150Y-22500D02*
X21400Y-22750D01*
X22950Y-29400D02*
X22950Y-28750D01*
X22750Y-28550D02*
X19000Y-28550D01*
X22950Y-28750D02*
X22750Y-28550D01*
X11150Y-22650D02*
X11150Y-24000D01*
X11150Y-24000D02*
X10300Y-24850D01*
X10300Y-24850D02*
X10300Y-26450D01*
X23400Y-30750D02*
X23400Y-30200D01*
X23100Y-31050D02*
X23400Y-30750D01*
X21800Y-31050D02*
X23100Y-31050D01*
X20550Y-29800D02*
X21800Y-31050D01*
X20100Y-29800D02*
X20550Y-29800D01*
X18900Y-29800D02*
X20100Y-29800D01*
X12300Y-26450D02*
X12300Y-25700D01*
X16200Y-30600D02*
X16850Y-29950D01*
X14250Y-30600D02*
X16200Y-30600D01*
X13800Y-30150D02*
X14250Y-30600D01*
X13800Y-25650D02*
X13800Y-30150D01*
X13400Y-25250D02*
X13800Y-25650D01*
X12750Y-25250D02*
X13400Y-25250D01*
X12300Y-25700D02*
X12750Y-25250D01*
X12450Y-22650D02*
X12450Y-24000D01*
X12450Y-24000D02*
X12300Y-24150D01*
X12300Y-24150D02*
X12300Y-26450D01*
X17950Y-25200D02*
X24400Y-25200D01*
X25150Y-17700D02*
X25150Y-16100D01*
X25400Y-15850D02*
X25850Y-15850D01*
X25150Y-16100D02*
X25400Y-15850D01*
X9800Y-24450D02*
X9800Y-27200D01*
X9800Y-27200D02*
X10050Y-27450D01*
X10150Y-24100D02*
X9800Y-24450D01*
X10150Y-24100D02*
X10150Y-20700D01*
X12800Y-27450D02*
X10050Y-27450D01*
X12850Y-27400D02*
X12800Y-27450D01*
X15450Y-22650D02*
X15050Y-22650D01*
X14300Y-23400D02*
X14300Y-26450D01*
X15050Y-22650D02*
X14300Y-23400D01*
X14300Y-28700D02*
X16200Y-26800D01*
X16200Y-26800D02*
X16200Y-24900D01*
X14300Y-29450D02*
X14300Y-28700D01*
X21150Y-17700D02*
X21150Y-18950D01*
X20650Y-19450D02*
X20650Y-24000D01*
X21150Y-18950D02*
X20650Y-19450D01*
X21150Y-17700D02*
X21150Y-16150D01*
X21450Y-15850D02*
X21450Y-14600D01*
X21150Y-16150D02*
X21450Y-15850D01*
X7900Y-32700D02*
X7900Y-31400D01*
X7900Y-31400D02*
X7950Y-31350D01*
X7950Y-31350D02*
X9250Y-31350D01*
X9250Y-31350D02*
X10300Y-30300D01*
X10300Y-30300D02*
X10300Y-29450D01*
X23750Y-29400D02*
X23750Y-28600D01*
X18450Y-28200D02*
X18450Y-29150D01*
X18600Y-28050D02*
X18450Y-28200D01*
X18950Y-27700D02*
X18600Y-28050D01*
X22850Y-27700D02*
X18950Y-27700D01*
X23750Y-28600D02*
X22850Y-27700D01*
X15400Y-32700D02*
X15400Y-31400D01*
X15400Y-31400D02*
X14000Y-31400D01*
X14000Y-31400D02*
X13100Y-30500D01*
X13100Y-30500D02*
X12550Y-30500D01*
X12550Y-30500D02*
X12300Y-30250D01*
X12300Y-30250D02*
X12300Y-29450D01*
X24150Y-17700D02*
X24150Y-20700D01*
X9300Y-29450D02*
X8300Y-29450D01*
X20150Y-19500D02*
X20150Y-19550D01*
X18450Y-19500D02*
X20150Y-19500D01*
X18050Y-19900D02*
X18450Y-19500D01*
X9300Y-28400D02*
X13300Y-28400D01*
X13300Y-28400D02*
X13250Y-28400D01*
X13250Y-28400D02*
X13300Y-28400D01*
X13300Y-29450D02*
X13300Y-28400D01*
X13300Y-28400D02*
X13300Y-26450D01*
X9300Y-29450D02*
X9300Y-28400D01*
X9300Y-28400D02*
X9300Y-26450D01*
X20150Y-20700D02*
X20150Y-19550D01*
X20150Y-19550D02*
X20150Y-17700D01*
X18050Y-21550D02*
X18050Y-19900D01*
X18400Y-22750D02*
X18800Y-22750D01*
X19150Y-22400D02*
X19150Y-20700D01*
X18800Y-22750D02*
X19150Y-22400D01*
X16800Y-20850D02*
X16800Y-20700D01*
X15850Y-21800D02*
X16800Y-20850D01*
X13700Y-21800D02*
X15850Y-21800D01*
X8150Y-22650D02*
X8950Y-22650D01*
X11150Y-18100D02*
X11150Y-17700D01*
X9650Y-19600D02*
X11150Y-18100D01*
X9650Y-21950D02*
X9650Y-19600D01*
X8950Y-22650D02*
X9650Y-21950D01*
X8150Y-22650D02*
X8500Y-22650D01*
X8500Y-22650D02*
X8800Y-22950D01*
X8300Y-25450D02*
X8300Y-26450D01*
X8800Y-24950D02*
X8300Y-25450D01*
X8800Y-22950D02*
X8800Y-24950D01*
X9600Y-14650D02*
X10100Y-15150D01*
X8100Y-16500D02*
X8100Y-16250D01*
X8850Y-14650D02*
X9600Y-14650D01*
X8600Y-14900D02*
X8850Y-14650D01*
X8600Y-15750D02*
X8600Y-14900D01*
X8100Y-16250D02*
X8600Y-15750D01*
X25500Y-7750D02*
X25500Y-11600D01*
X25500Y-11600D02*
X25850Y-11950D01*
X16600Y-9150D02*
X17400Y-9150D01*
X17400Y-9150D02*
X18200Y-9150D01*
X18200Y-9150D02*
X19000Y-9150D01*
X12400Y-31400D02*
X10900Y-31400D01*
X10900Y-31400D02*
X11300Y-31000D01*
X11300Y-31000D02*
X11300Y-29450D01*
X24500Y-7750D02*
X22400Y-7750D01*
X22400Y-7750D02*
X22350Y-7700D01*
X16600Y-9150D02*
X16600Y-8400D01*
X22350Y-7700D02*
X22350Y-9550D01*
X21600Y-6950D02*
X22350Y-7700D01*
X18050Y-6950D02*
X21600Y-6950D01*
X16600Y-8400D02*
X18050Y-6950D01*
X18400Y-24050D02*
X17450Y-24050D01*
X18400Y-24050D02*
X18400Y-24450D01*
X25800Y-24500D02*
X25800Y-24000D01*
X25500Y-24800D02*
X25800Y-24500D01*
X18750Y-24800D02*
X25500Y-24800D01*
X18400Y-24450D02*
X18750Y-24800D01*
X15450Y-24000D02*
X17400Y-24000D01*
X17400Y-24000D02*
X17300Y-23900D01*
X17450Y-24050D02*
X17300Y-23900D01*
X17300Y-31450D02*
X17300Y-26800D01*
X18450Y-14600D02*
X17850Y-14600D01*
X17850Y-14600D02*
X17300Y-15150D01*
X17300Y-15150D02*
X17300Y-23900D01*
X17300Y-23900D02*
X17300Y-26800D01*
X25850Y-14550D02*
X24500Y-14550D01*
X22150Y-19950D02*
X22150Y-20700D01*
X23650Y-18450D02*
X22150Y-19950D01*
X23650Y-15400D02*
X23650Y-18450D01*
X24500Y-14550D02*
X23650Y-15400D01*
X25850Y-14550D02*
X25000Y-14550D01*
X19250Y-13800D02*
X18450Y-14600D01*
X24250Y-13800D02*
X19250Y-13800D01*
X25000Y-14550D02*
X24250Y-13800D01*
X8150Y-18800D02*
X8150Y-17700D01*
X8650Y-19300D02*
X8150Y-18800D01*
X8650Y-21950D02*
X8650Y-19300D01*
X8550Y-22050D02*
X8650Y-21950D01*
G54D10*
G36*
X11250Y-7150D02*
X10250Y-7150D01*
X10250Y-7700D01*
X9220Y-7700D01*
X8720Y-7200D01*
X7700Y-7200D01*
X7700Y-6800D01*
X7700Y-6350D01*
X11222Y-6350D01*
X11175Y-6465D01*
X11174Y-6634D01*
X11239Y-6790D01*
X11250Y-6800D01*
X11250Y-7150D01*
X11250Y-7150D01*
G37*
G54D23*
X11250Y-7150D02*
X10250Y-7150D01*
X10250Y-7700D01*
X9220Y-7700D01*
X8720Y-7200D01*
X7700Y-7200D01*
X7700Y-6800D01*
X7700Y-6350D01*
X11222Y-6350D01*
X11175Y-6465D01*
X11174Y-6634D01*
X11239Y-6790D01*
X11250Y-6800D01*
X11250Y-7150D01*
G54D10*
G36*
X13450Y-7200D02*
X12629Y-7200D01*
X12050Y-7779D01*
X12050Y-6350D01*
X13450Y-6350D01*
X13450Y-7200D01*
X13450Y-7200D01*
G37*
G54D23*
X13450Y-7200D02*
X12629Y-7200D01*
X12050Y-7779D01*
X12050Y-6350D01*
X13450Y-6350D01*
X13450Y-7200D01*
G54D10*
G36*
X10750Y-13350D02*
X9550Y-13350D01*
X9550Y-11600D01*
X10280Y-11600D01*
X10750Y-12022D01*
X10750Y-13350D01*
X10750Y-13350D01*
G37*
G54D23*
X10750Y-13350D02*
X9550Y-13350D01*
X9550Y-11600D01*
X10280Y-11600D01*
X10750Y-12022D01*
X10750Y-13350D01*
G54D10*
G36*
X18100Y-12729D02*
X16479Y-14350D01*
X15950Y-14350D01*
X15950Y-11779D01*
X13720Y-9550D01*
X15779Y-9550D01*
X16250Y-10020D01*
X16250Y-10470D01*
X18100Y-12320D01*
X18100Y-12729D01*
X18100Y-12729D01*
G37*
G54D23*
X18100Y-12729D02*
X16479Y-14350D01*
X15950Y-14350D01*
X15950Y-11779D01*
X13720Y-9550D01*
X15779Y-9550D01*
X16250Y-10020D01*
X16250Y-10470D01*
X18100Y-12320D01*
X18100Y-12729D01*
G54D10*
G36*
X25950Y-13800D02*
X24970Y-13800D01*
X24520Y-13350D01*
X23879Y-13350D01*
X23879Y-9625D01*
X23868Y-9417D01*
X23810Y-9277D01*
X23717Y-9252D01*
X23420Y-9550D01*
X23717Y-9847D01*
X23810Y-9822D01*
X23879Y-9625D01*
X23879Y-13350D01*
X23850Y-13350D01*
X23850Y-12450D01*
X23379Y-12450D01*
X23379Y-12025D01*
X23368Y-11817D01*
X23310Y-11677D01*
X23217Y-11652D01*
X23147Y-11723D01*
X23147Y-11582D01*
X23122Y-11489D01*
X22925Y-11420D01*
X22717Y-11431D01*
X22577Y-11489D01*
X22552Y-11582D01*
X22850Y-11879D01*
X23147Y-11582D01*
X23147Y-11723D01*
X22920Y-11950D01*
X23217Y-12247D01*
X23310Y-12222D01*
X23379Y-12025D01*
X23379Y-12450D01*
X23027Y-12450D01*
X23122Y-12410D01*
X23147Y-12317D01*
X22850Y-12020D01*
X22779Y-12091D01*
X22779Y-11950D01*
X22482Y-11652D01*
X22389Y-11677D01*
X22320Y-11874D01*
X22331Y-12082D01*
X22389Y-12222D01*
X22482Y-12247D01*
X22779Y-11950D01*
X22779Y-12091D01*
X22552Y-12317D01*
X22577Y-12410D01*
X22689Y-12450D01*
X22629Y-12450D01*
X22279Y-12800D01*
X19520Y-12800D01*
X17570Y-10850D01*
X20250Y-10850D01*
X20250Y-9400D01*
X21650Y-9400D01*
X21650Y-10300D01*
X23150Y-10300D01*
X23150Y-10036D01*
X23274Y-10079D01*
X23482Y-10068D01*
X23622Y-10010D01*
X23647Y-9917D01*
X23350Y-9620D01*
X23344Y-9626D01*
X23273Y-9555D01*
X23279Y-9550D01*
X23273Y-9544D01*
X23344Y-9473D01*
X23350Y-9479D01*
X23647Y-9182D01*
X23622Y-9089D01*
X23425Y-9020D01*
X23217Y-9031D01*
X23150Y-9059D01*
X23150Y-8800D01*
X22950Y-8800D01*
X22950Y-8200D01*
X23879Y-8200D01*
X24379Y-8700D01*
X25000Y-8700D01*
X25000Y-12020D01*
X25950Y-12970D01*
X25950Y-13800D01*
X25950Y-13800D01*
G37*
G54D23*
X25950Y-13800D02*
X24970Y-13800D01*
X24520Y-13350D01*
X23879Y-13350D01*
X23879Y-9625D01*
X23868Y-9417D01*
X23810Y-9277D01*
X23717Y-9252D01*
X23420Y-9550D01*
X23717Y-9847D01*
X23810Y-9822D01*
X23879Y-9625D01*
X23879Y-13350D01*
X23850Y-13350D01*
X23850Y-12450D01*
X23379Y-12450D01*
X23379Y-12025D01*
X23368Y-11817D01*
X23310Y-11677D01*
X23217Y-11652D01*
X23147Y-11723D01*
X23147Y-11582D01*
X23122Y-11489D01*
X22925Y-11420D01*
X22717Y-11431D01*
X22577Y-11489D01*
X22552Y-11582D01*
X22850Y-11879D01*
X23147Y-11582D01*
X23147Y-11723D01*
X22920Y-11950D01*
X23217Y-12247D01*
X23310Y-12222D01*
X23379Y-12025D01*
X23379Y-12450D01*
X23027Y-12450D01*
X23122Y-12410D01*
X23147Y-12317D01*
X22850Y-12020D01*
X22779Y-12091D01*
X22779Y-11950D01*
X22482Y-11652D01*
X22389Y-11677D01*
X22320Y-11874D01*
X22331Y-12082D01*
X22389Y-12222D01*
X22482Y-12247D01*
X22779Y-11950D01*
X22779Y-12091D01*
X22552Y-12317D01*
X22577Y-12410D01*
X22689Y-12450D01*
X22629Y-12450D01*
X22279Y-12800D01*
X19520Y-12800D01*
X17570Y-10850D01*
X20250Y-10850D01*
X20250Y-9400D01*
X21650Y-9400D01*
X21650Y-10300D01*
X23150Y-10300D01*
X23150Y-10036D01*
X23274Y-10079D01*
X23482Y-10068D01*
X23622Y-10010D01*
X23647Y-9917D01*
X23350Y-9620D01*
X23344Y-9626D01*
X23273Y-9555D01*
X23279Y-9550D01*
X23273Y-9544D01*
X23344Y-9473D01*
X23350Y-9479D01*
X23647Y-9182D01*
X23622Y-9089D01*
X23425Y-9020D01*
X23217Y-9031D01*
X23150Y-9059D01*
X23150Y-8800D01*
X22950Y-8800D01*
X22950Y-8200D01*
X23879Y-8200D01*
X24379Y-8700D01*
X25000Y-8700D01*
X25000Y-12020D01*
X25950Y-12970D01*
X25950Y-13800D01*
G54D10*
G36*
X25800Y-6950D02*
X24700Y-6950D01*
X24700Y-7205D01*
X24588Y-7165D01*
X24358Y-7175D01*
X24194Y-7243D01*
X24163Y-7342D01*
X24500Y-7679D01*
X24505Y-7673D01*
X24576Y-7744D01*
X24570Y-7750D01*
X24576Y-7755D01*
X24505Y-7826D01*
X24500Y-7820D01*
X24494Y-7826D01*
X24423Y-7755D01*
X24429Y-7750D01*
X24092Y-7413D01*
X23993Y-7444D01*
X23915Y-7661D01*
X23917Y-7700D01*
X22300Y-7700D01*
X22300Y-8900D01*
X21450Y-8900D01*
X21450Y-7929D01*
X20820Y-7300D01*
X20637Y-7300D01*
X20593Y-7281D01*
X20208Y-7281D01*
X20163Y-7300D01*
X19879Y-7300D01*
X19250Y-7929D01*
X19250Y-8450D01*
X16650Y-8450D01*
X16650Y-7880D01*
X16122Y-7300D01*
X15837Y-7300D01*
X15793Y-7281D01*
X15408Y-7281D01*
X15363Y-7300D01*
X15150Y-7300D01*
X15150Y-6400D01*
X25800Y-6400D01*
X25800Y-6950D01*
X25800Y-6950D01*
G37*
G54D23*
X25800Y-6950D02*
X24700Y-6950D01*
X24700Y-7205D01*
X24588Y-7165D01*
X24358Y-7175D01*
X24194Y-7243D01*
X24163Y-7342D01*
X24500Y-7679D01*
X24505Y-7673D01*
X24576Y-7744D01*
X24570Y-7750D01*
X24576Y-7755D01*
X24505Y-7826D01*
X24500Y-7820D01*
X24494Y-7826D01*
X24423Y-7755D01*
X24429Y-7750D01*
X24092Y-7413D01*
X23993Y-7444D01*
X23915Y-7661D01*
X23917Y-7700D01*
X22300Y-7700D01*
X22300Y-8900D01*
X21450Y-8900D01*
X21450Y-7929D01*
X20820Y-7300D01*
X20637Y-7300D01*
X20593Y-7281D01*
X20208Y-7281D01*
X20163Y-7300D01*
X19879Y-7300D01*
X19250Y-7929D01*
X19250Y-8450D01*
X16650Y-8450D01*
X16650Y-7880D01*
X16122Y-7300D01*
X15837Y-7300D01*
X15793Y-7281D01*
X15408Y-7281D01*
X15363Y-7300D01*
X15150Y-7300D01*
X15150Y-6400D01*
X25800Y-6400D01*
X25800Y-6950D01*
G54D10*
G36*
X19950Y-24800D02*
X18929Y-24800D01*
X18929Y-24125D01*
X18918Y-23917D01*
X18860Y-23777D01*
X18767Y-23752D01*
X18697Y-23823D01*
X18697Y-23682D01*
X18672Y-23589D01*
X18475Y-23520D01*
X18267Y-23531D01*
X18127Y-23589D01*
X18102Y-23682D01*
X18400Y-23979D01*
X18697Y-23682D01*
X18697Y-23823D01*
X18470Y-24050D01*
X18767Y-24347D01*
X18860Y-24322D01*
X18929Y-24125D01*
X18929Y-24800D01*
X18697Y-24800D01*
X18697Y-24417D01*
X18400Y-24120D01*
X18329Y-24191D01*
X18329Y-24050D01*
X18032Y-23752D01*
X17939Y-23777D01*
X17870Y-23974D01*
X17881Y-24182D01*
X17939Y-24322D01*
X18032Y-24347D01*
X18329Y-24050D01*
X18329Y-24191D01*
X18102Y-24417D01*
X18127Y-24510D01*
X18324Y-24579D01*
X18532Y-24568D01*
X18672Y-24510D01*
X18697Y-24417D01*
X18697Y-24800D01*
X18520Y-24800D01*
X18320Y-24600D01*
X17450Y-24600D01*
X17450Y-26274D01*
X17412Y-26275D01*
X17350Y-26337D01*
X17350Y-26750D01*
X17357Y-26750D01*
X17357Y-26850D01*
X17350Y-26850D01*
X17350Y-27262D01*
X17412Y-27325D01*
X17450Y-27325D01*
X17450Y-29300D01*
X16429Y-29300D01*
X15729Y-30000D01*
X15200Y-30000D01*
X15200Y-29350D01*
X16270Y-29350D01*
X16550Y-29070D01*
X16550Y-28620D01*
X17100Y-28070D01*
X17100Y-27325D01*
X17187Y-27325D01*
X17250Y-27262D01*
X17250Y-26850D01*
X17242Y-26850D01*
X17242Y-26750D01*
X17250Y-26750D01*
X17250Y-26337D01*
X17187Y-26275D01*
X17100Y-26274D01*
X17100Y-24479D01*
X16620Y-24000D01*
X16250Y-24000D01*
X16250Y-22370D01*
X17350Y-21270D01*
X17350Y-20100D01*
X16100Y-20100D01*
X16100Y-17050D01*
X17350Y-17050D01*
X17350Y-16600D01*
X17829Y-16600D01*
X18150Y-16920D01*
X18150Y-18579D01*
X17450Y-19279D01*
X17450Y-23450D01*
X19950Y-23450D01*
X19950Y-24800D01*
X19950Y-24800D01*
G37*
G54D23*
X19950Y-24800D02*
X18929Y-24800D01*
X18929Y-24125D01*
X18918Y-23917D01*
X18860Y-23777D01*
X18767Y-23752D01*
X18697Y-23823D01*
X18697Y-23682D01*
X18672Y-23589D01*
X18475Y-23520D01*
X18267Y-23531D01*
X18127Y-23589D01*
X18102Y-23682D01*
X18400Y-23979D01*
X18697Y-23682D01*
X18697Y-23823D01*
X18470Y-24050D01*
X18767Y-24347D01*
X18860Y-24322D01*
X18929Y-24125D01*
X18929Y-24800D01*
X18697Y-24800D01*
X18697Y-24417D01*
X18400Y-24120D01*
X18329Y-24191D01*
X18329Y-24050D01*
X18032Y-23752D01*
X17939Y-23777D01*
X17870Y-23974D01*
X17881Y-24182D01*
X17939Y-24322D01*
X18032Y-24347D01*
X18329Y-24050D01*
X18329Y-24191D01*
X18102Y-24417D01*
X18127Y-24510D01*
X18324Y-24579D01*
X18532Y-24568D01*
X18672Y-24510D01*
X18697Y-24417D01*
X18697Y-24800D01*
X18520Y-24800D01*
X18320Y-24600D01*
X17450Y-24600D01*
X17450Y-26274D01*
X17412Y-26275D01*
X17350Y-26337D01*
X17350Y-26750D01*
X17357Y-26750D01*
X17357Y-26850D01*
X17350Y-26850D01*
X17350Y-27262D01*
X17412Y-27325D01*
X17450Y-27325D01*
X17450Y-29300D01*
X16429Y-29300D01*
X15729Y-30000D01*
X15200Y-30000D01*
X15200Y-29350D01*
X16270Y-29350D01*
X16550Y-29070D01*
X16550Y-28620D01*
X17100Y-28070D01*
X17100Y-27325D01*
X17187Y-27325D01*
X17250Y-27262D01*
X17250Y-26850D01*
X17242Y-26850D01*
X17242Y-26750D01*
X17250Y-26750D01*
X17250Y-26337D01*
X17187Y-26275D01*
X17100Y-26274D01*
X17100Y-24479D01*
X16620Y-24000D01*
X16250Y-24000D01*
X16250Y-22370D01*
X17350Y-21270D01*
X17350Y-20100D01*
X16100Y-20100D01*
X16100Y-17050D01*
X17350Y-17050D01*
X17350Y-16600D01*
X17829Y-16600D01*
X18150Y-16920D01*
X18150Y-18579D01*
X17450Y-19279D01*
X17450Y-23450D01*
X19950Y-23450D01*
X19950Y-24800D01*
G54D10*
G36*
X11450Y-22207D02*
X11447Y-22205D01*
X11254Y-22125D01*
X11046Y-22124D01*
X10853Y-22204D01*
X10705Y-22352D01*
X10625Y-22545D01*
X10624Y-22753D01*
X10704Y-22947D01*
X10850Y-23092D01*
X10850Y-23557D01*
X10705Y-23702D01*
X10625Y-23895D01*
X10624Y-24100D01*
X10600Y-24125D01*
X10600Y-21600D01*
X11450Y-21600D01*
X11450Y-22207D01*
X11450Y-22207D01*
G37*
G54D23*
X11450Y-22207D02*
X11447Y-22205D01*
X11254Y-22125D01*
X11046Y-22124D01*
X10853Y-22204D01*
X10705Y-22352D01*
X10625Y-22545D01*
X10624Y-22753D01*
X10704Y-22947D01*
X10850Y-23092D01*
X10850Y-23557D01*
X10705Y-23702D01*
X10625Y-23895D01*
X10624Y-24100D01*
X10600Y-24125D01*
X10600Y-21600D01*
X11450Y-21600D01*
X11450Y-22207D01*
G54D10*
G36*
X11450Y-24600D02*
X10974Y-24600D01*
X11049Y-24524D01*
X11253Y-24525D01*
X11447Y-24445D01*
X11450Y-24442D01*
X11450Y-24600D01*
X11450Y-24600D01*
G37*
G54D23*
X11450Y-24600D02*
X10974Y-24600D01*
X11049Y-24524D01*
X11253Y-24525D01*
X11447Y-24445D01*
X11450Y-24442D01*
X11450Y-24600D01*
G54D10*
G36*
X15900Y-26675D02*
X14200Y-28375D01*
X14200Y-27300D01*
X14620Y-27300D01*
X15000Y-26920D01*
X15000Y-24900D01*
X15050Y-24900D01*
X15774Y-24900D01*
X15774Y-24984D01*
X15839Y-25140D01*
X15900Y-25201D01*
X15900Y-26675D01*
X15900Y-26675D01*
G37*
G54D23*
X15900Y-26675D02*
X14200Y-28375D01*
X14200Y-27300D01*
X14620Y-27300D01*
X15000Y-26920D01*
X15000Y-24900D01*
X15050Y-24900D01*
X15774Y-24900D01*
X15774Y-24984D01*
X15839Y-25140D01*
X15900Y-25201D01*
X15900Y-26675D01*
G54D10*
G36*
X9000Y-28600D02*
X7450Y-28600D01*
X7450Y-27100D01*
X8054Y-27100D01*
X8085Y-27121D01*
X8300Y-27163D01*
X8514Y-27121D01*
X8545Y-27100D01*
X9000Y-27100D01*
X9000Y-28400D01*
X9000Y-28600D01*
X9000Y-28600D01*
G37*
G54D23*
X9000Y-28600D02*
X7450Y-28600D01*
X7450Y-27100D01*
X8054Y-27100D01*
X8085Y-27121D01*
X8300Y-27163D01*
X8514Y-27121D01*
X8545Y-27100D01*
X9000Y-27100D01*
X9000Y-28400D01*
X9000Y-28600D01*
G54D10*
G36*
X13000Y-28100D02*
X9600Y-28100D01*
X9600Y-27670D01*
X9879Y-27950D01*
X13000Y-27950D01*
X13000Y-28100D01*
X13000Y-28100D01*
G37*
G54D23*
X13000Y-28100D02*
X9600Y-28100D01*
X9600Y-27670D01*
X9879Y-27950D01*
X13000Y-27950D01*
X13000Y-28100D01*
G54D10*
G36*
X9875Y-30300D02*
X9125Y-31050D01*
X8292Y-31050D01*
X8197Y-30955D01*
X8004Y-30875D01*
X7796Y-30874D01*
X7603Y-30954D01*
X7455Y-31102D01*
X7375Y-31295D01*
X7374Y-31503D01*
X7454Y-31697D01*
X7600Y-31842D01*
X7600Y-32257D01*
X7455Y-32402D01*
X7375Y-32595D01*
X7374Y-32803D01*
X7435Y-32950D01*
X7350Y-32950D01*
X7350Y-30300D01*
X9875Y-30300D01*
X9875Y-30300D01*
G37*
G54D23*
X9875Y-30300D02*
X9125Y-31050D01*
X8292Y-31050D01*
X8197Y-30955D01*
X8004Y-30875D01*
X7796Y-30874D01*
X7603Y-30954D01*
X7455Y-31102D01*
X7375Y-31295D01*
X7374Y-31503D01*
X7454Y-31697D01*
X7600Y-31842D01*
X7600Y-32257D01*
X7455Y-32402D01*
X7375Y-32595D01*
X7374Y-32803D01*
X7435Y-32950D01*
X7350Y-32950D01*
X7350Y-30300D01*
X9875Y-30300D01*
G54D10*
G36*
X10650Y-30579D02*
X10200Y-31029D01*
X10200Y-32950D01*
X8364Y-32950D01*
X8424Y-32804D01*
X8425Y-32596D01*
X8345Y-32403D01*
X8200Y-32257D01*
X8200Y-31842D01*
X8344Y-31697D01*
X8364Y-31650D01*
X9250Y-31650D01*
X9250Y-31649D01*
X9364Y-31627D01*
X9364Y-31627D01*
X9462Y-31562D01*
X10512Y-30512D01*
X10512Y-30512D01*
X10577Y-30414D01*
X10599Y-30300D01*
X10600Y-30300D01*
X10650Y-30300D01*
X10650Y-30579D01*
X10650Y-30579D01*
G37*
G54D23*
X10650Y-30579D02*
X10200Y-31029D01*
X10200Y-32950D01*
X8364Y-32950D01*
X8424Y-32804D01*
X8425Y-32596D01*
X8345Y-32403D01*
X8200Y-32257D01*
X8200Y-31842D01*
X8344Y-31697D01*
X8364Y-31650D01*
X9250Y-31650D01*
X9250Y-31649D01*
X9364Y-31627D01*
X9364Y-31627D01*
X9462Y-31562D01*
X10512Y-30512D01*
X10512Y-30512D01*
X10577Y-30414D01*
X10599Y-30300D01*
X10600Y-30300D01*
X10650Y-30300D01*
X10650Y-30579D01*
G54D10*
G36*
X17600Y-32950D02*
X17250Y-32950D01*
X17250Y-31912D01*
X17250Y-31500D01*
X16837Y-31500D01*
X16775Y-31562D01*
X16774Y-31675D01*
X16775Y-31774D01*
X16813Y-31866D01*
X16883Y-31937D01*
X16975Y-31975D01*
X17187Y-31975D01*
X17250Y-31912D01*
X17250Y-32950D01*
X16150Y-32950D01*
X16150Y-31200D01*
X16774Y-31200D01*
X16774Y-31224D01*
X16775Y-31337D01*
X16837Y-31400D01*
X17250Y-31400D01*
X17250Y-31392D01*
X17350Y-31392D01*
X17350Y-31400D01*
X17357Y-31400D01*
X17357Y-31500D01*
X17350Y-31500D01*
X17350Y-31912D01*
X17412Y-31975D01*
X17600Y-31975D01*
X17600Y-32950D01*
X17600Y-32950D01*
G37*
G54D23*
X17600Y-32950D02*
X17250Y-32950D01*
X17250Y-31912D01*
X17250Y-31500D01*
X16837Y-31500D01*
X16775Y-31562D01*
X16774Y-31675D01*
X16775Y-31774D01*
X16813Y-31866D01*
X16883Y-31937D01*
X16975Y-31975D01*
X17187Y-31975D01*
X17250Y-31912D01*
X17250Y-32950D01*
X16150Y-32950D01*
X16150Y-31200D01*
X16774Y-31200D01*
X16774Y-31224D01*
X16775Y-31337D01*
X16837Y-31400D01*
X17250Y-31400D01*
X17250Y-31392D01*
X17350Y-31392D01*
X17350Y-31400D01*
X17357Y-31400D01*
X17357Y-31500D01*
X17350Y-31500D01*
X17350Y-31912D01*
X17412Y-31975D01*
X17600Y-31975D01*
X17600Y-32950D01*
G54D10*
G36*
X25750Y-33050D02*
X18829Y-33050D01*
X18829Y-31525D01*
X18818Y-31317D01*
X18760Y-31177D01*
X18667Y-31152D01*
X18370Y-31450D01*
X18667Y-31747D01*
X18760Y-31722D01*
X18829Y-31525D01*
X18829Y-33050D01*
X18050Y-33050D01*
X18050Y-31918D01*
X18224Y-31979D01*
X18432Y-31968D01*
X18572Y-31910D01*
X18597Y-31817D01*
X18300Y-31520D01*
X18294Y-31526D01*
X18223Y-31455D01*
X18229Y-31450D01*
X18223Y-31444D01*
X18294Y-31373D01*
X18300Y-31379D01*
X18597Y-31082D01*
X18572Y-30989D01*
X18375Y-30920D01*
X18167Y-30931D01*
X18050Y-30980D01*
X18050Y-30350D01*
X19350Y-30350D01*
X19350Y-31470D01*
X20029Y-32150D01*
X21170Y-32150D01*
X21770Y-31550D01*
X23270Y-31550D01*
X23920Y-30900D01*
X24200Y-30900D01*
X24200Y-31520D01*
X24829Y-32150D01*
X25750Y-32150D01*
X25750Y-33050D01*
X25750Y-33050D01*
G37*
G54D23*
X25750Y-33050D02*
X18829Y-33050D01*
X18829Y-31525D01*
X18818Y-31317D01*
X18760Y-31177D01*
X18667Y-31152D01*
X18370Y-31450D01*
X18667Y-31747D01*
X18760Y-31722D01*
X18829Y-31525D01*
X18829Y-33050D01*
X18050Y-33050D01*
X18050Y-31918D01*
X18224Y-31979D01*
X18432Y-31968D01*
X18572Y-31910D01*
X18597Y-31817D01*
X18300Y-31520D01*
X18294Y-31526D01*
X18223Y-31455D01*
X18229Y-31450D01*
X18223Y-31444D01*
X18294Y-31373D01*
X18300Y-31379D01*
X18597Y-31082D01*
X18572Y-30989D01*
X18375Y-30920D01*
X18167Y-30931D01*
X18050Y-30980D01*
X18050Y-30350D01*
X19350Y-30350D01*
X19350Y-31470D01*
X20029Y-32150D01*
X21170Y-32150D01*
X21770Y-31550D01*
X23270Y-31550D01*
X23920Y-30900D01*
X24200Y-30900D01*
X24200Y-31520D01*
X24829Y-32150D01*
X25750Y-32150D01*
X25750Y-33050D01*
G54D10*
G36*
X25750Y-29400D02*
X24500Y-29400D01*
X24500Y-28379D01*
X23370Y-27250D01*
X18829Y-27250D01*
X18829Y-26875D01*
X18818Y-26667D01*
X18760Y-26527D01*
X18667Y-26502D01*
X18370Y-26800D01*
X18667Y-27097D01*
X18760Y-27072D01*
X18829Y-26875D01*
X18829Y-27250D01*
X18575Y-27250D01*
X18597Y-27167D01*
X18300Y-26870D01*
X18294Y-26876D01*
X18223Y-26805D01*
X18229Y-26800D01*
X18223Y-26794D01*
X18294Y-26723D01*
X18300Y-26729D01*
X18597Y-26432D01*
X18588Y-26400D01*
X21420Y-26400D01*
X22020Y-25800D01*
X25750Y-25800D01*
X25750Y-29400D01*
X25750Y-29400D01*
G37*
G54D23*
X25750Y-29400D02*
X24500Y-29400D01*
X24500Y-28379D01*
X23370Y-27250D01*
X18829Y-27250D01*
X18829Y-26875D01*
X18818Y-26667D01*
X18760Y-26527D01*
X18667Y-26502D01*
X18370Y-26800D01*
X18667Y-27097D01*
X18760Y-27072D01*
X18829Y-26875D01*
X18829Y-27250D01*
X18575Y-27250D01*
X18597Y-27167D01*
X18300Y-26870D01*
X18294Y-26876D01*
X18223Y-26805D01*
X18229Y-26800D01*
X18223Y-26794D01*
X18294Y-26723D01*
X18300Y-26729D01*
X18597Y-26432D01*
X18588Y-26400D01*
X21420Y-26400D01*
X22020Y-25800D01*
X25750Y-25800D01*
X25750Y-29400D01*
G54D10*
G36*
X25150Y-24250D02*
X23650Y-24250D01*
X23650Y-21700D01*
X24679Y-21700D01*
X25150Y-22170D01*
X25150Y-24250D01*
X25150Y-24250D01*
G37*
G54D23*
X25150Y-24250D02*
X23650Y-24250D01*
X23650Y-21700D01*
X24679Y-21700D01*
X25150Y-22170D01*
X25150Y-24250D01*
M02*
