G04 (created by PCBNEW (22-Jun-2014 BZR 4027)-stable) date Cts 25 Nis 2020 13:27:14 +03*
%MOIN*%
G04 Gerber Fmt 3.4, Leading zero omitted, Abs format*
%FSLAX34Y34*%
G01*
G70*
G90*
G04 APERTURE LIST*
%ADD10C,0.00590551*%
%ADD11C,0.00393701*%
%ADD12C,0.055*%
%ADD13R,0.06X0.06*%
%ADD14C,0.06*%
%ADD15R,0.062X0.09*%
%ADD16O,0.062X0.09*%
%ADD17R,0.055X0.055*%
%ADD18C,0.066*%
%ADD19C,0.1437*%
%ADD20R,0.0591X0.0591*%
%ADD21C,0.0591*%
%ADD22C,0.035*%
%ADD23C,0.01*%
G04 APERTURE END LIST*
G54D10*
G54D11*
X7600Y-5200D02*
X7700Y-5200D01*
X7600Y-36650D02*
X7600Y-5200D01*
X42150Y-36650D02*
X7600Y-36650D01*
X42150Y-5200D02*
X42150Y-36650D01*
X7650Y-5200D02*
X42150Y-5200D01*
G54D12*
X8500Y-6000D03*
X11500Y-6000D03*
X29000Y-28000D03*
X26000Y-28000D03*
X33550Y-28000D03*
X30550Y-28000D03*
X17000Y-28000D03*
X20000Y-28000D03*
X8600Y-33200D03*
X11600Y-33200D03*
X15500Y-28000D03*
X12500Y-28000D03*
G54D13*
X8500Y-11500D03*
G54D14*
X9500Y-11500D03*
X8500Y-16500D03*
X9500Y-12500D03*
X8500Y-17500D03*
X9500Y-13500D03*
X8500Y-18500D03*
X9500Y-14500D03*
X8500Y-19500D03*
X9500Y-15500D03*
X8500Y-20500D03*
X9500Y-16500D03*
X8500Y-21500D03*
X9500Y-17500D03*
X8500Y-22500D03*
X9500Y-18500D03*
X8500Y-23500D03*
X9500Y-19500D03*
X8500Y-24500D03*
X9500Y-20500D03*
X8500Y-25500D03*
X9500Y-21500D03*
X8500Y-26500D03*
X9500Y-22500D03*
X9500Y-23500D03*
X8500Y-27500D03*
X9500Y-24500D03*
X9500Y-26500D03*
X9500Y-27500D03*
X9500Y-28500D03*
X9500Y-29500D03*
X8500Y-28500D03*
X8500Y-29500D03*
X8500Y-12500D03*
X8500Y-13500D03*
X8500Y-14500D03*
X8500Y-15500D03*
X8500Y-30500D03*
X9500Y-30500D03*
X9500Y-25500D03*
G54D15*
X22000Y-18000D03*
G54D16*
X23000Y-18000D03*
X24000Y-18000D03*
X25000Y-18000D03*
X26000Y-18000D03*
X27000Y-18000D03*
X28000Y-18000D03*
X29000Y-18000D03*
X30000Y-18000D03*
X31000Y-18000D03*
X31000Y-15000D03*
X30000Y-15000D03*
X29000Y-15000D03*
X28000Y-15000D03*
X27000Y-15000D03*
X26000Y-15000D03*
X25000Y-15000D03*
X24000Y-15000D03*
X23000Y-15000D03*
X22000Y-15000D03*
G54D15*
X33500Y-25000D03*
G54D16*
X34500Y-25000D03*
X35500Y-25000D03*
X36500Y-25000D03*
X37500Y-25000D03*
X38500Y-25000D03*
X39500Y-25000D03*
X40500Y-25000D03*
X40500Y-22000D03*
X39500Y-22000D03*
X38500Y-22000D03*
X37500Y-22000D03*
X36500Y-22000D03*
X35500Y-22000D03*
X34500Y-22000D03*
X33500Y-22000D03*
G54D15*
X12500Y-25000D03*
G54D16*
X13500Y-25000D03*
X14500Y-25000D03*
X15500Y-25000D03*
X16500Y-25000D03*
X17500Y-25000D03*
X18500Y-25000D03*
X19500Y-25000D03*
X19500Y-22000D03*
X18500Y-22000D03*
X17500Y-22000D03*
X16500Y-22000D03*
X15500Y-22000D03*
X14500Y-22000D03*
X13500Y-22000D03*
X12500Y-22000D03*
G54D15*
X34500Y-18000D03*
G54D16*
X35500Y-18000D03*
X36500Y-18000D03*
X37500Y-18000D03*
X38500Y-18000D03*
X39500Y-18000D03*
X40500Y-18000D03*
X40500Y-15000D03*
X39500Y-15000D03*
X38500Y-15000D03*
X37500Y-15000D03*
X36500Y-15000D03*
X35500Y-15000D03*
X34500Y-15000D03*
G54D15*
X23500Y-25000D03*
G54D16*
X24500Y-25000D03*
X25500Y-25000D03*
X26500Y-25000D03*
X27500Y-25000D03*
X28500Y-25000D03*
X29500Y-25000D03*
X29500Y-22000D03*
X28500Y-22000D03*
X27500Y-22000D03*
X26500Y-22000D03*
X25500Y-22000D03*
X24500Y-22000D03*
X23500Y-22000D03*
G54D15*
X12500Y-18000D03*
G54D16*
X13500Y-18000D03*
X14500Y-18000D03*
X15500Y-18000D03*
X16500Y-18000D03*
X17500Y-18000D03*
X18500Y-18000D03*
X18500Y-15000D03*
X17500Y-15000D03*
X16500Y-15000D03*
X15500Y-15000D03*
X14500Y-15000D03*
X13500Y-15000D03*
X12500Y-15000D03*
G54D17*
X8500Y-7500D03*
G54D12*
X11500Y-7500D03*
G54D18*
X11500Y-35350D03*
X10500Y-35350D03*
X22500Y-28000D03*
X23500Y-28000D03*
G54D17*
X11000Y-9500D03*
G54D12*
X10000Y-9500D03*
G54D17*
X20500Y-20500D03*
G54D12*
X20500Y-19500D03*
G54D17*
X32500Y-20500D03*
G54D12*
X32500Y-19500D03*
G54D19*
X34600Y-7500D03*
X39400Y-7500D03*
G54D20*
X35600Y-8400D03*
G54D21*
X36050Y-9200D03*
X36400Y-8400D03*
X36850Y-9200D03*
X37200Y-8400D03*
X37650Y-9200D03*
X38000Y-8400D03*
X38450Y-9200D03*
G54D19*
X27600Y-7500D03*
X32400Y-7500D03*
G54D20*
X28600Y-8400D03*
G54D21*
X29050Y-9200D03*
X29400Y-8400D03*
X29850Y-9200D03*
X30200Y-8400D03*
X30650Y-9200D03*
X31000Y-8400D03*
X31450Y-9200D03*
G54D19*
X20600Y-7500D03*
X25400Y-7500D03*
G54D20*
X21600Y-8400D03*
G54D21*
X22050Y-9200D03*
X22400Y-8400D03*
X22850Y-9200D03*
X23200Y-8400D03*
X23650Y-9200D03*
X24000Y-8400D03*
X24450Y-9200D03*
G54D19*
X13600Y-7500D03*
X18400Y-7500D03*
G54D20*
X14600Y-8400D03*
G54D21*
X15050Y-9200D03*
X15400Y-8400D03*
X15850Y-9200D03*
X16200Y-8400D03*
X16650Y-9200D03*
X17000Y-8400D03*
X17450Y-9200D03*
G54D19*
X39400Y-34500D03*
X34600Y-34500D03*
G54D20*
X38400Y-33600D03*
G54D21*
X37950Y-32800D03*
X37600Y-33600D03*
X37150Y-32800D03*
X36800Y-33600D03*
X36350Y-32800D03*
X36000Y-33600D03*
X35550Y-32800D03*
G54D19*
X32400Y-34500D03*
X27600Y-34500D03*
G54D20*
X31400Y-33600D03*
G54D21*
X30950Y-32800D03*
X30600Y-33600D03*
X30150Y-32800D03*
X29800Y-33600D03*
X29350Y-32800D03*
X29000Y-33600D03*
X28550Y-32800D03*
G54D19*
X25400Y-34500D03*
X20600Y-34500D03*
G54D20*
X24400Y-33600D03*
G54D21*
X23950Y-32800D03*
X23600Y-33600D03*
X23150Y-32800D03*
X22800Y-33600D03*
X22350Y-32800D03*
X22000Y-33600D03*
X21550Y-32800D03*
G54D19*
X18400Y-34500D03*
X13600Y-34500D03*
G54D20*
X17400Y-33600D03*
G54D21*
X16950Y-32800D03*
X16600Y-33600D03*
X16150Y-32800D03*
X15800Y-33600D03*
X15350Y-32800D03*
X15000Y-33600D03*
X14550Y-32800D03*
G54D17*
X14550Y-13400D03*
G54D12*
X14550Y-12400D03*
G54D22*
X22000Y-25150D03*
X24300Y-12050D03*
X19450Y-12100D03*
X26450Y-12100D03*
X36050Y-11600D03*
X26500Y-6000D03*
X26500Y-9600D03*
X15450Y-6950D03*
X22400Y-6850D03*
X29400Y-6550D03*
X20500Y-11500D03*
X27750Y-11500D03*
X36850Y-11150D03*
X32600Y-9700D03*
X16200Y-6300D03*
X23250Y-6100D03*
X30250Y-6050D03*
X25350Y-10800D03*
X29900Y-12450D03*
X22350Y-12400D03*
X37650Y-10550D03*
X35650Y-12200D03*
X24750Y-12850D03*
X18300Y-12700D03*
X23300Y-12400D03*
X31450Y-12500D03*
X17350Y-36300D03*
X24400Y-36350D03*
X31450Y-36350D03*
X16950Y-30550D03*
X23950Y-30550D03*
X31000Y-30600D03*
X16600Y-36000D03*
X23600Y-35950D03*
X33850Y-29000D03*
X30600Y-35900D03*
X16150Y-31150D03*
X23150Y-31150D03*
X32600Y-31150D03*
X32050Y-29000D03*
X30150Y-31150D03*
X15750Y-35550D03*
X22800Y-35550D03*
X33550Y-35500D03*
X29800Y-35500D03*
X15350Y-31700D03*
X22350Y-31700D03*
X34350Y-31700D03*
X34350Y-29600D03*
X29350Y-31700D03*
X34250Y-32900D03*
X35300Y-29750D03*
X32000Y-32850D03*
X37050Y-29850D03*
X14450Y-29750D03*
X34450Y-23150D03*
X31700Y-24750D03*
X10750Y-14550D03*
X12300Y-20150D03*
X21950Y-28750D03*
X21400Y-29400D03*
X20950Y-24000D03*
X19850Y-23450D03*
X17950Y-20450D03*
X20100Y-18300D03*
X21650Y-21100D03*
X14150Y-20250D03*
X13950Y-16900D03*
X39500Y-16450D03*
X32950Y-13400D03*
X30300Y-26050D03*
X21300Y-13900D03*
X31800Y-21700D03*
G54D23*
X24300Y-12050D02*
X24300Y-12100D01*
X15050Y-9200D02*
X15050Y-10300D01*
X16850Y-12100D02*
X19450Y-12100D01*
X15050Y-10300D02*
X16850Y-12100D01*
X22050Y-9200D02*
X22050Y-10200D01*
X23950Y-12100D02*
X24300Y-12100D01*
X24300Y-12100D02*
X26450Y-12100D01*
X22050Y-10200D02*
X23950Y-12100D01*
X29050Y-9200D02*
X29050Y-9850D01*
X30800Y-11600D02*
X36050Y-11600D01*
X29050Y-9850D02*
X30800Y-11600D01*
X26500Y-9600D02*
X26500Y-6000D01*
X15400Y-7000D02*
X15400Y-8400D01*
X15450Y-6950D02*
X15400Y-7000D01*
X22400Y-6850D02*
X22400Y-8400D01*
X29400Y-6550D02*
X29400Y-8400D01*
X15850Y-9200D02*
X15850Y-10250D01*
X17100Y-11500D02*
X20500Y-11500D01*
X15850Y-10250D02*
X17100Y-11500D01*
X22850Y-9200D02*
X22850Y-10000D01*
X24350Y-11500D02*
X27750Y-11500D01*
X22850Y-10000D02*
X24350Y-11500D01*
X29850Y-9200D02*
X29850Y-9750D01*
X36850Y-11100D02*
X36850Y-11150D01*
X31200Y-11100D02*
X36850Y-11100D01*
X29850Y-9750D02*
X31200Y-11100D01*
X32700Y-6050D02*
X30250Y-6050D01*
X33600Y-6950D02*
X32700Y-6050D01*
X33600Y-8700D02*
X33600Y-6950D01*
X32600Y-9700D02*
X33600Y-8700D01*
X16200Y-6300D02*
X16200Y-8400D01*
X23200Y-6150D02*
X23200Y-8400D01*
X23250Y-6100D02*
X23200Y-6150D01*
X30200Y-6100D02*
X30200Y-8400D01*
X30250Y-6050D02*
X30200Y-6100D01*
X25350Y-10800D02*
X25600Y-10800D01*
X25350Y-10800D02*
X25300Y-10800D01*
X24550Y-10800D02*
X25300Y-10800D01*
X25300Y-10800D02*
X25600Y-10800D01*
X25600Y-10800D02*
X25750Y-10800D01*
X25750Y-10800D02*
X28250Y-10800D01*
X28250Y-10800D02*
X29900Y-12450D01*
X16650Y-9200D02*
X16650Y-10100D01*
X20750Y-10800D02*
X22350Y-12400D01*
X17350Y-10800D02*
X20750Y-10800D01*
X16650Y-10100D02*
X17350Y-10800D01*
X23650Y-9200D02*
X23650Y-9900D01*
X23650Y-9900D02*
X24550Y-10800D01*
X30650Y-9200D02*
X30650Y-9750D01*
X31450Y-10550D02*
X37650Y-10550D01*
X30650Y-9750D02*
X31450Y-10550D01*
X24750Y-12850D02*
X29300Y-12850D01*
X33400Y-12200D02*
X35650Y-12200D01*
X32600Y-13000D02*
X33400Y-12200D01*
X29450Y-13000D02*
X32600Y-13000D01*
X29300Y-12850D02*
X29450Y-13000D01*
X21750Y-12850D02*
X24750Y-12850D01*
X21700Y-12750D02*
X21750Y-12850D01*
X18350Y-12750D02*
X21700Y-12750D01*
X18300Y-12700D02*
X18350Y-12750D01*
X17450Y-9200D02*
X17450Y-9850D01*
X21150Y-10250D02*
X23300Y-12400D01*
X17850Y-10250D02*
X21150Y-10250D01*
X17450Y-9850D02*
X17850Y-10250D01*
X24450Y-9200D02*
X24450Y-9750D01*
X24450Y-9750D02*
X24950Y-10250D01*
X24950Y-10250D02*
X28650Y-10250D01*
X28650Y-10250D02*
X30900Y-12500D01*
X30900Y-12500D02*
X31450Y-12500D01*
X31450Y-9200D02*
X31450Y-9750D01*
X38450Y-9900D02*
X38450Y-9200D01*
X38250Y-10100D02*
X38450Y-9900D01*
X31800Y-10100D02*
X38250Y-10100D01*
X31450Y-9750D02*
X31800Y-10100D01*
X17400Y-36250D02*
X17400Y-33600D01*
X17350Y-36300D02*
X17400Y-36250D01*
X24400Y-36350D02*
X24400Y-33600D01*
X31400Y-36300D02*
X31400Y-33600D01*
X31450Y-36350D02*
X31400Y-36300D01*
X16950Y-30550D02*
X16950Y-32800D01*
X23950Y-30550D02*
X23950Y-32800D01*
X30950Y-32800D02*
X30950Y-30650D01*
X30950Y-30650D02*
X31000Y-30600D01*
X16600Y-36000D02*
X16600Y-33600D01*
X23600Y-35950D02*
X23600Y-33600D01*
X33850Y-29000D02*
X33850Y-33150D01*
X33850Y-33150D02*
X34100Y-33400D01*
X34100Y-33400D02*
X35050Y-33400D01*
X35050Y-33400D02*
X36250Y-34600D01*
X36250Y-34600D02*
X37200Y-34600D01*
X37200Y-34600D02*
X37600Y-34200D01*
X37600Y-34200D02*
X37600Y-33600D01*
X30600Y-35900D02*
X30600Y-33600D01*
X16150Y-31150D02*
X16150Y-32800D01*
X23150Y-31150D02*
X23150Y-32800D01*
X32050Y-29000D02*
X32050Y-29750D01*
X32050Y-29750D02*
X32600Y-30300D01*
X32600Y-30300D02*
X32600Y-31150D01*
X30150Y-32800D02*
X30150Y-31150D01*
X15800Y-35500D02*
X15800Y-33600D01*
X15750Y-35550D02*
X15800Y-35500D01*
X22800Y-35550D02*
X22800Y-33600D01*
X33050Y-29350D02*
X33050Y-28800D01*
X33550Y-34000D02*
X33550Y-35500D01*
X33050Y-33500D02*
X33550Y-34000D01*
X33050Y-29350D02*
X33050Y-33500D01*
X35500Y-26200D02*
X35500Y-25000D01*
X34800Y-26900D02*
X35500Y-26200D01*
X33250Y-26900D02*
X34800Y-26900D01*
X32800Y-27350D02*
X33250Y-26900D01*
X32800Y-28550D02*
X32800Y-27350D01*
X33050Y-28800D02*
X32800Y-28550D01*
X29800Y-35500D02*
X29800Y-33600D01*
X15350Y-31700D02*
X15350Y-32800D01*
X22350Y-31700D02*
X22350Y-32800D01*
X34350Y-29600D02*
X34350Y-31700D01*
X29350Y-32800D02*
X29350Y-31700D01*
X20850Y-33150D02*
X19250Y-33150D01*
X14300Y-33600D02*
X15000Y-33600D01*
X13900Y-33200D02*
X14300Y-33600D01*
X13900Y-32400D02*
X13900Y-33200D01*
X16350Y-29950D02*
X13900Y-32400D01*
X17600Y-29950D02*
X16350Y-29950D01*
X18100Y-30450D02*
X17600Y-29950D01*
X18100Y-32000D02*
X18100Y-30450D01*
X19250Y-33150D02*
X18100Y-32000D01*
X27850Y-33150D02*
X26250Y-33150D01*
X21300Y-33600D02*
X22000Y-33600D01*
X20850Y-33150D02*
X21300Y-33600D01*
X20850Y-32300D02*
X20850Y-33150D01*
X23100Y-30050D02*
X20850Y-32300D01*
X24850Y-30050D02*
X23100Y-30050D01*
X25400Y-30600D02*
X24850Y-30050D01*
X25400Y-32300D02*
X25400Y-30600D01*
X26250Y-33150D02*
X25400Y-32300D01*
X35050Y-32100D02*
X34250Y-32900D01*
X35050Y-30000D02*
X35050Y-32100D01*
X35300Y-29750D02*
X35050Y-30000D01*
X28300Y-33600D02*
X29000Y-33600D01*
X27850Y-33150D02*
X28300Y-33600D01*
X27850Y-32400D02*
X27850Y-33150D01*
X30150Y-30100D02*
X27850Y-32400D01*
X31700Y-30100D02*
X30150Y-30100D01*
X32000Y-30400D02*
X31700Y-30100D01*
X32000Y-31300D02*
X32000Y-30400D01*
X32000Y-32850D02*
X32000Y-31300D01*
X35550Y-32350D02*
X35550Y-32800D01*
X36900Y-31000D02*
X35550Y-32350D01*
X37050Y-30850D02*
X36900Y-31000D01*
X37050Y-29850D02*
X37050Y-30850D01*
X29500Y-25000D02*
X31450Y-25000D01*
X40500Y-23750D02*
X40500Y-25000D01*
X39950Y-23200D02*
X40500Y-23750D01*
X34500Y-23200D02*
X39950Y-23200D01*
X34450Y-23150D02*
X34500Y-23200D01*
X31450Y-25000D02*
X31700Y-24750D01*
X10750Y-13350D02*
X11800Y-13350D01*
X12750Y-12400D02*
X14550Y-12400D01*
X11800Y-13350D02*
X12750Y-12400D01*
X15500Y-25000D02*
X15500Y-24350D01*
X11650Y-20800D02*
X12300Y-20150D01*
X11650Y-22750D02*
X11650Y-20800D01*
X12800Y-23900D02*
X11650Y-22750D01*
X15050Y-23900D02*
X12800Y-23900D01*
X15500Y-24350D02*
X15050Y-23900D01*
X18500Y-18000D02*
X18500Y-18600D01*
X19400Y-19500D02*
X20500Y-19500D01*
X18500Y-18600D02*
X19400Y-19500D01*
X20500Y-19500D02*
X32500Y-19500D01*
X31000Y-18000D02*
X32500Y-19500D01*
X40500Y-18000D02*
X40500Y-17300D01*
X33050Y-18000D02*
X31000Y-18000D01*
X33950Y-17100D02*
X33050Y-18000D01*
X40300Y-17100D02*
X33950Y-17100D01*
X40500Y-17300D02*
X40300Y-17100D01*
X19500Y-25000D02*
X19500Y-24250D01*
X16500Y-24400D02*
X16500Y-25000D01*
X16900Y-24000D02*
X16500Y-24400D01*
X19250Y-24000D02*
X16900Y-24000D01*
X19500Y-24250D02*
X19250Y-24000D01*
X16500Y-25000D02*
X15500Y-25000D01*
X20300Y-25000D02*
X19500Y-25000D01*
X21400Y-26100D02*
X20300Y-25000D01*
X21400Y-28200D02*
X21400Y-26100D01*
X21950Y-28750D02*
X21400Y-28200D01*
X18500Y-18000D02*
X18500Y-17450D01*
X18500Y-17450D02*
X18150Y-17100D01*
X18150Y-17100D02*
X17350Y-16300D01*
X17350Y-16300D02*
X12500Y-16300D01*
X12500Y-16300D02*
X10750Y-14550D01*
X10750Y-14550D02*
X10750Y-13350D01*
X10750Y-13350D02*
X10750Y-13300D01*
X9500Y-13500D02*
X10550Y-13500D01*
X10000Y-10250D02*
X10000Y-9500D01*
X10750Y-11000D02*
X10000Y-10250D01*
X10750Y-13300D02*
X10750Y-11000D01*
X10550Y-13500D02*
X10750Y-13300D01*
X10300Y-19500D02*
X9500Y-19500D01*
X11000Y-20200D02*
X10300Y-19500D01*
X11000Y-24950D02*
X11000Y-20200D01*
X12600Y-26550D02*
X11000Y-24950D01*
X20200Y-26550D02*
X12600Y-26550D01*
X20850Y-27200D02*
X20200Y-26550D01*
X20850Y-28850D02*
X20850Y-27200D01*
X21400Y-29400D02*
X20850Y-28850D01*
X33500Y-25000D02*
X33500Y-24400D01*
X33100Y-24000D02*
X20950Y-24000D01*
X33500Y-24400D02*
X33100Y-24000D01*
X34500Y-25000D02*
X34545Y-24449D01*
X33550Y-23450D02*
X19850Y-23450D01*
X34545Y-24449D02*
X33550Y-23450D01*
X39500Y-25000D02*
X39500Y-26700D01*
X38200Y-28000D02*
X33550Y-28000D01*
X39500Y-26700D02*
X38200Y-28000D01*
X22050Y-16350D02*
X20900Y-16350D01*
X18500Y-21000D02*
X18500Y-22000D01*
X17950Y-20450D02*
X18500Y-21000D01*
X20100Y-17150D02*
X20100Y-18300D01*
X20900Y-16350D02*
X20100Y-17150D01*
X37500Y-15000D02*
X37500Y-15550D01*
X32450Y-16350D02*
X22050Y-16350D01*
X22050Y-16350D02*
X22000Y-16350D01*
X32950Y-15850D02*
X32450Y-16350D01*
X37200Y-15850D02*
X32950Y-15850D01*
X37500Y-15550D02*
X37200Y-15850D01*
X21650Y-21100D02*
X22750Y-20000D01*
X22750Y-20000D02*
X31050Y-20000D01*
X31050Y-20000D02*
X31600Y-20550D01*
X31600Y-20550D02*
X31600Y-20800D01*
X31800Y-21050D02*
X31600Y-20800D01*
X31800Y-21050D02*
X33250Y-21050D01*
X36500Y-19250D02*
X36500Y-18000D01*
X35500Y-20250D02*
X36500Y-19250D01*
X34050Y-20250D02*
X35500Y-20250D01*
X33250Y-21050D02*
X34050Y-20250D01*
X31800Y-21050D02*
X31800Y-21050D01*
X14500Y-20600D02*
X14500Y-22000D01*
X14150Y-20250D02*
X14500Y-20600D01*
X13500Y-22000D02*
X13500Y-20350D01*
X29500Y-21250D02*
X29500Y-22000D01*
X29050Y-20800D02*
X29500Y-21250D01*
X23050Y-20800D02*
X29050Y-20800D01*
X22050Y-21800D02*
X23050Y-20800D01*
X20550Y-21800D02*
X22050Y-21800D01*
X18350Y-19600D02*
X20550Y-21800D01*
X13500Y-19900D02*
X13800Y-19600D01*
X13800Y-19600D02*
X18350Y-19600D01*
X13500Y-20350D02*
X13500Y-19900D01*
X8500Y-18500D02*
X9000Y-19000D01*
X16500Y-18800D02*
X16500Y-18000D01*
X16300Y-19000D02*
X16500Y-18800D01*
X9000Y-19000D02*
X16300Y-19000D01*
X9500Y-18500D02*
X10700Y-18500D01*
X11900Y-16900D02*
X13950Y-16900D01*
X11300Y-17500D02*
X11900Y-16900D01*
X11300Y-17900D02*
X11300Y-17500D01*
X10700Y-18500D02*
X11300Y-17900D01*
X22000Y-18000D02*
X22000Y-17450D01*
X34000Y-16450D02*
X39500Y-16450D01*
X33500Y-16950D02*
X34000Y-16450D01*
X22500Y-16950D02*
X33500Y-16950D01*
X22000Y-17450D02*
X22500Y-16950D01*
X16500Y-14100D02*
X17200Y-13400D01*
X17200Y-13400D02*
X30450Y-13400D01*
X30450Y-13400D02*
X32000Y-13400D01*
X32000Y-13400D02*
X32950Y-13400D01*
X16500Y-15000D02*
X16500Y-14100D01*
X23500Y-25800D02*
X23500Y-25000D01*
X23750Y-26050D02*
X23500Y-25800D01*
X30300Y-26050D02*
X23750Y-26050D01*
X30500Y-14000D02*
X38100Y-14000D01*
X21300Y-13900D02*
X21400Y-14000D01*
X21400Y-14000D02*
X30500Y-14000D01*
X38500Y-14400D02*
X38500Y-15000D01*
X38100Y-14000D02*
X38500Y-14400D01*
X12500Y-15000D02*
X12500Y-14100D01*
X13200Y-13400D02*
X14550Y-13400D01*
X12500Y-14100D02*
X13200Y-13400D01*
X33500Y-22000D02*
X32100Y-22000D01*
X32100Y-22000D02*
X31800Y-21700D01*
X28500Y-22000D02*
X28500Y-22650D01*
X28700Y-22850D02*
X28750Y-22850D01*
X28500Y-22650D02*
X28700Y-22850D01*
X23100Y-22850D02*
X28750Y-22850D01*
X28750Y-22850D02*
X33200Y-22850D01*
X33500Y-22550D02*
X33500Y-22000D01*
X33200Y-22850D02*
X33500Y-22550D01*
X12500Y-22000D02*
X12500Y-22600D01*
X23500Y-22450D02*
X23500Y-22000D01*
X23100Y-22850D02*
X23500Y-22450D01*
X23100Y-22850D02*
X23100Y-22850D01*
X12750Y-22850D02*
X23100Y-22850D01*
X12500Y-22600D02*
X12750Y-22850D01*
X22000Y-15000D02*
X22000Y-15550D01*
X22000Y-15550D02*
X22250Y-15800D01*
X22250Y-15800D02*
X31550Y-15800D01*
X31550Y-15800D02*
X32350Y-15000D01*
X32350Y-15000D02*
X34500Y-15000D01*
X12500Y-15000D02*
X12500Y-15400D01*
X12500Y-15400D02*
X12800Y-15700D01*
X20550Y-15700D02*
X21300Y-15700D01*
X12800Y-15700D02*
X20550Y-15700D01*
X21300Y-15700D02*
X22000Y-15000D01*
G54D10*
G36*
X10312Y-9929D02*
X10308Y-10134D01*
X10300Y-10125D01*
X10300Y-9942D01*
X10312Y-9929D01*
X10312Y-9929D01*
G37*
G54D23*
X10312Y-9929D02*
X10308Y-10134D01*
X10300Y-10125D01*
X10300Y-9942D01*
X10312Y-9929D01*
G54D10*
G36*
X10850Y-8000D02*
X10350Y-8000D01*
X10329Y-9086D01*
X10297Y-9055D01*
X10104Y-8975D01*
X9896Y-8974D01*
X9703Y-9054D01*
X9555Y-9202D01*
X9475Y-9395D01*
X9474Y-9603D01*
X9554Y-9797D01*
X9700Y-9942D01*
X9700Y-10250D01*
X9722Y-10364D01*
X9779Y-10450D01*
X7950Y-10450D01*
X7950Y-8450D01*
X8920Y-8450D01*
X9150Y-8220D01*
X9150Y-5700D01*
X10850Y-5700D01*
X10850Y-8000D01*
X10850Y-8000D01*
G37*
G54D23*
X10850Y-8000D02*
X10350Y-8000D01*
X10329Y-9086D01*
X10297Y-9055D01*
X10104Y-8975D01*
X9896Y-8974D01*
X9703Y-9054D01*
X9555Y-9202D01*
X9475Y-9395D01*
X9474Y-9603D01*
X9554Y-9797D01*
X9700Y-9942D01*
X9700Y-10250D01*
X9722Y-10364D01*
X9779Y-10450D01*
X7950Y-10450D01*
X7950Y-8450D01*
X8920Y-8450D01*
X9150Y-8220D01*
X9150Y-5700D01*
X10850Y-5700D01*
X10850Y-8000D01*
G54D10*
G36*
X15879Y-12350D02*
X15073Y-12350D01*
X15068Y-12267D01*
X15010Y-12127D01*
X14917Y-12102D01*
X14847Y-12173D01*
X14847Y-12032D01*
X14822Y-11939D01*
X14625Y-11870D01*
X14417Y-11881D01*
X14277Y-11939D01*
X14252Y-12032D01*
X14550Y-12329D01*
X14847Y-12032D01*
X14847Y-12173D01*
X14670Y-12350D01*
X14429Y-12350D01*
X14182Y-12102D01*
X14089Y-12127D01*
X14020Y-12324D01*
X14021Y-12350D01*
X12729Y-12350D01*
X11764Y-13314D01*
X11279Y-13800D01*
X11550Y-13800D01*
X11550Y-16328D01*
X10850Y-16978D01*
X10850Y-17629D01*
X10550Y-17929D01*
X10550Y-13750D01*
X10550Y-10750D01*
X11850Y-10750D01*
X11850Y-8550D01*
X12350Y-8550D01*
X12350Y-6550D01*
X12350Y-5600D01*
X15100Y-5600D01*
X15100Y-6500D01*
X12550Y-6500D01*
X12550Y-8550D01*
X13750Y-8550D01*
X13750Y-9220D01*
X14450Y-9920D01*
X14450Y-10920D01*
X15879Y-12350D01*
X15879Y-12350D01*
G37*
G54D23*
X15879Y-12350D02*
X15073Y-12350D01*
X15068Y-12267D01*
X15010Y-12127D01*
X14917Y-12102D01*
X14847Y-12173D01*
X14847Y-12032D01*
X14822Y-11939D01*
X14625Y-11870D01*
X14417Y-11881D01*
X14277Y-11939D01*
X14252Y-12032D01*
X14550Y-12329D01*
X14847Y-12032D01*
X14847Y-12173D01*
X14670Y-12350D01*
X14429Y-12350D01*
X14182Y-12102D01*
X14089Y-12127D01*
X14020Y-12324D01*
X14021Y-12350D01*
X12729Y-12350D01*
X11764Y-13314D01*
X11279Y-13800D01*
X11550Y-13800D01*
X11550Y-16328D01*
X10850Y-16978D01*
X10850Y-17629D01*
X10550Y-17929D01*
X10550Y-13750D01*
X10550Y-10750D01*
X11850Y-10750D01*
X11850Y-8550D01*
X12350Y-8550D01*
X12350Y-6550D01*
X12350Y-5600D01*
X15100Y-5600D01*
X15100Y-6500D01*
X12550Y-6500D01*
X12550Y-8550D01*
X13750Y-8550D01*
X13750Y-9220D01*
X14450Y-9920D01*
X14450Y-10920D01*
X15879Y-12350D01*
G54D10*
G36*
X41850Y-13400D02*
X41750Y-13400D01*
X41750Y-19100D01*
X41750Y-21000D01*
X41750Y-30050D01*
X41750Y-36450D01*
X41060Y-36450D01*
X41060Y-25190D01*
X41060Y-25050D01*
X41060Y-24950D01*
X41060Y-24810D01*
X40998Y-24599D01*
X40860Y-24428D01*
X40668Y-24323D01*
X40636Y-24316D01*
X40550Y-24365D01*
X40550Y-24950D01*
X41060Y-24950D01*
X41060Y-25050D01*
X40550Y-25050D01*
X40550Y-25634D01*
X40636Y-25683D01*
X40668Y-25676D01*
X40860Y-25571D01*
X40998Y-25400D01*
X41060Y-25190D01*
X41060Y-36450D01*
X40450Y-36450D01*
X34050Y-36450D01*
X34050Y-35700D01*
X35170Y-35700D01*
X35870Y-35000D01*
X38229Y-35000D01*
X38729Y-35500D01*
X40500Y-35500D01*
X40500Y-33979D01*
X39870Y-33350D01*
X39220Y-33350D01*
X38800Y-32929D01*
X38800Y-32475D01*
X38533Y-32262D01*
X38420Y-32150D01*
X36674Y-32150D01*
X37750Y-31121D01*
X37750Y-30100D01*
X37800Y-30100D01*
X37800Y-29250D01*
X36070Y-29250D01*
X35720Y-28900D01*
X34800Y-28900D01*
X34800Y-28550D01*
X38670Y-28550D01*
X40250Y-26970D01*
X40250Y-25920D01*
X40500Y-25670D01*
X40500Y-23100D01*
X41550Y-23100D01*
X41550Y-20950D01*
X41060Y-20950D01*
X41060Y-18190D01*
X41060Y-18050D01*
X41060Y-17950D01*
X41060Y-17810D01*
X40998Y-17599D01*
X40860Y-17428D01*
X40668Y-17323D01*
X40636Y-17316D01*
X40550Y-17365D01*
X40550Y-17950D01*
X41060Y-17950D01*
X41060Y-18050D01*
X40550Y-18050D01*
X40550Y-18634D01*
X40636Y-18683D01*
X40668Y-18676D01*
X40860Y-18571D01*
X40998Y-18400D01*
X41060Y-18190D01*
X41060Y-20950D01*
X35568Y-20950D01*
X37321Y-19150D01*
X40400Y-19150D01*
X40400Y-18662D01*
X40450Y-18634D01*
X40450Y-18050D01*
X40442Y-18050D01*
X40442Y-17950D01*
X40450Y-17950D01*
X40450Y-17365D01*
X40400Y-17337D01*
X40400Y-16200D01*
X41350Y-16200D01*
X41350Y-13400D01*
X33920Y-13400D01*
X34520Y-12800D01*
X36320Y-12800D01*
X39400Y-9720D01*
X39400Y-8750D01*
X40600Y-8750D01*
X40600Y-6350D01*
X38779Y-6350D01*
X38400Y-6729D01*
X38400Y-7131D01*
X38176Y-7400D01*
X35700Y-7449D01*
X35700Y-6400D01*
X33820Y-6400D01*
X33070Y-5650D01*
X35700Y-5650D01*
X35700Y-5550D01*
X40500Y-5550D01*
X40500Y-5600D01*
X41850Y-5600D01*
X41850Y-13400D01*
X41850Y-13400D01*
G37*
G54D23*
X41850Y-13400D02*
X41750Y-13400D01*
X41750Y-19100D01*
X41750Y-21000D01*
X41750Y-30050D01*
X41750Y-36450D01*
X41060Y-36450D01*
X41060Y-25190D01*
X41060Y-25050D01*
X41060Y-24950D01*
X41060Y-24810D01*
X40998Y-24599D01*
X40860Y-24428D01*
X40668Y-24323D01*
X40636Y-24316D01*
X40550Y-24365D01*
X40550Y-24950D01*
X41060Y-24950D01*
X41060Y-25050D01*
X40550Y-25050D01*
X40550Y-25634D01*
X40636Y-25683D01*
X40668Y-25676D01*
X40860Y-25571D01*
X40998Y-25400D01*
X41060Y-25190D01*
X41060Y-36450D01*
X40450Y-36450D01*
X34050Y-36450D01*
X34050Y-35700D01*
X35170Y-35700D01*
X35870Y-35000D01*
X38229Y-35000D01*
X38729Y-35500D01*
X40500Y-35500D01*
X40500Y-33979D01*
X39870Y-33350D01*
X39220Y-33350D01*
X38800Y-32929D01*
X38800Y-32475D01*
X38533Y-32262D01*
X38420Y-32150D01*
X36674Y-32150D01*
X37750Y-31121D01*
X37750Y-30100D01*
X37800Y-30100D01*
X37800Y-29250D01*
X36070Y-29250D01*
X35720Y-28900D01*
X34800Y-28900D01*
X34800Y-28550D01*
X38670Y-28550D01*
X40250Y-26970D01*
X40250Y-25920D01*
X40500Y-25670D01*
X40500Y-23100D01*
X41550Y-23100D01*
X41550Y-20950D01*
X41060Y-20950D01*
X41060Y-18190D01*
X41060Y-18050D01*
X41060Y-17950D01*
X41060Y-17810D01*
X40998Y-17599D01*
X40860Y-17428D01*
X40668Y-17323D01*
X40636Y-17316D01*
X40550Y-17365D01*
X40550Y-17950D01*
X41060Y-17950D01*
X41060Y-18050D01*
X40550Y-18050D01*
X40550Y-18634D01*
X40636Y-18683D01*
X40668Y-18676D01*
X40860Y-18571D01*
X40998Y-18400D01*
X41060Y-18190D01*
X41060Y-20950D01*
X35568Y-20950D01*
X37321Y-19150D01*
X40400Y-19150D01*
X40400Y-18662D01*
X40450Y-18634D01*
X40450Y-18050D01*
X40442Y-18050D01*
X40442Y-17950D01*
X40450Y-17950D01*
X40450Y-17365D01*
X40400Y-17337D01*
X40400Y-16200D01*
X41350Y-16200D01*
X41350Y-13400D01*
X33920Y-13400D01*
X34520Y-12800D01*
X36320Y-12800D01*
X39400Y-9720D01*
X39400Y-8750D01*
X40600Y-8750D01*
X40600Y-6350D01*
X38779Y-6350D01*
X38400Y-6729D01*
X38400Y-7131D01*
X38176Y-7400D01*
X35700Y-7449D01*
X35700Y-6400D01*
X33820Y-6400D01*
X33070Y-5650D01*
X35700Y-5650D01*
X35700Y-5550D01*
X40500Y-5550D01*
X40500Y-5600D01*
X41850Y-5600D01*
X41850Y-13400D01*
G54D10*
G36*
X35800Y-19279D02*
X35329Y-19750D01*
X33650Y-19750D01*
X33650Y-19449D01*
X33023Y-19460D01*
X33018Y-19367D01*
X32960Y-19227D01*
X32867Y-19202D01*
X32797Y-19273D01*
X32797Y-19132D01*
X32772Y-19039D01*
X32575Y-18970D01*
X32367Y-18981D01*
X32227Y-19039D01*
X32202Y-19132D01*
X32500Y-19429D01*
X32797Y-19132D01*
X32797Y-19273D01*
X32601Y-19468D01*
X32401Y-19472D01*
X32132Y-19202D01*
X32039Y-19227D01*
X31970Y-19424D01*
X31973Y-19480D01*
X31560Y-19488D01*
X31560Y-18190D01*
X31560Y-18050D01*
X31050Y-18050D01*
X31050Y-18634D01*
X31136Y-18683D01*
X31168Y-18676D01*
X31360Y-18571D01*
X31498Y-18400D01*
X31560Y-18190D01*
X31560Y-19488D01*
X31000Y-19499D01*
X31000Y-17942D01*
X31050Y-17942D01*
X31050Y-17950D01*
X31560Y-17950D01*
X31560Y-17810D01*
X31498Y-17600D01*
X33550Y-17600D01*
X33550Y-19150D01*
X35800Y-19150D01*
X35800Y-19279D01*
X35800Y-19279D01*
G37*
G54D23*
X35800Y-19279D02*
X35329Y-19750D01*
X33650Y-19750D01*
X33650Y-19449D01*
X33023Y-19460D01*
X33018Y-19367D01*
X32960Y-19227D01*
X32867Y-19202D01*
X32797Y-19273D01*
X32797Y-19132D01*
X32772Y-19039D01*
X32575Y-18970D01*
X32367Y-18981D01*
X32227Y-19039D01*
X32202Y-19132D01*
X32500Y-19429D01*
X32797Y-19132D01*
X32797Y-19273D01*
X32601Y-19468D01*
X32401Y-19472D01*
X32132Y-19202D01*
X32039Y-19227D01*
X31970Y-19424D01*
X31973Y-19480D01*
X31560Y-19488D01*
X31560Y-18190D01*
X31560Y-18050D01*
X31050Y-18050D01*
X31050Y-18634D01*
X31136Y-18683D01*
X31168Y-18676D01*
X31360Y-18571D01*
X31498Y-18400D01*
X31560Y-18190D01*
X31560Y-19488D01*
X31000Y-19499D01*
X31000Y-17942D01*
X31050Y-17942D01*
X31050Y-17950D01*
X31560Y-17950D01*
X31560Y-17810D01*
X31498Y-17600D01*
X33550Y-17600D01*
X33550Y-19150D01*
X35800Y-19150D01*
X35800Y-19279D01*
G54D10*
G36*
X17250Y-20900D02*
X14950Y-20900D01*
X14950Y-20050D01*
X17250Y-20050D01*
X17250Y-20900D01*
X17250Y-20900D01*
G37*
G54D23*
X17250Y-20900D02*
X14950Y-20900D01*
X14950Y-20050D01*
X17250Y-20050D01*
X17250Y-20900D01*
G54D10*
G36*
X21950Y-30378D02*
X20250Y-32028D01*
X20250Y-32450D01*
X19420Y-32450D01*
X18700Y-31729D01*
X18700Y-30079D01*
X17970Y-29350D01*
X15929Y-29350D01*
X14875Y-30404D01*
X14875Y-29665D01*
X14810Y-29509D01*
X14691Y-29389D01*
X14534Y-29325D01*
X14365Y-29324D01*
X14209Y-29389D01*
X14089Y-29508D01*
X14025Y-29665D01*
X14024Y-29834D01*
X14089Y-29990D01*
X14208Y-30110D01*
X14365Y-30174D01*
X14534Y-30175D01*
X14690Y-30110D01*
X14810Y-29991D01*
X14874Y-29834D01*
X14875Y-29665D01*
X14875Y-30404D01*
X12850Y-32429D01*
X12850Y-33700D01*
X12500Y-33700D01*
X12500Y-35550D01*
X15150Y-35550D01*
X15150Y-36450D01*
X12400Y-36450D01*
X12400Y-35029D01*
X11470Y-34100D01*
X10600Y-34100D01*
X10600Y-33900D01*
X12450Y-33900D01*
X12450Y-32729D01*
X11970Y-32250D01*
X10466Y-32250D01*
X10499Y-34100D01*
X9650Y-34100D01*
X9650Y-36250D01*
X8000Y-36250D01*
X8000Y-34200D01*
X9250Y-34200D01*
X9250Y-32401D01*
X8000Y-32351D01*
X8000Y-31400D01*
X10550Y-31400D01*
X10550Y-25720D01*
X11650Y-26820D01*
X11650Y-28619D01*
X12077Y-29100D01*
X20229Y-29100D01*
X20479Y-29350D01*
X20429Y-29350D01*
X21129Y-30050D01*
X21950Y-30050D01*
X21950Y-30378D01*
X21950Y-30378D01*
G37*
G54D23*
X21950Y-30378D02*
X20250Y-32028D01*
X20250Y-32450D01*
X19420Y-32450D01*
X18700Y-31729D01*
X18700Y-30079D01*
X17970Y-29350D01*
X15929Y-29350D01*
X14875Y-30404D01*
X14875Y-29665D01*
X14810Y-29509D01*
X14691Y-29389D01*
X14534Y-29325D01*
X14365Y-29324D01*
X14209Y-29389D01*
X14089Y-29508D01*
X14025Y-29665D01*
X14024Y-29834D01*
X14089Y-29990D01*
X14208Y-30110D01*
X14365Y-30174D01*
X14534Y-30175D01*
X14690Y-30110D01*
X14810Y-29991D01*
X14874Y-29834D01*
X14875Y-29665D01*
X14875Y-30404D01*
X12850Y-32429D01*
X12850Y-33700D01*
X12500Y-33700D01*
X12500Y-35550D01*
X15150Y-35550D01*
X15150Y-36450D01*
X12400Y-36450D01*
X12400Y-35029D01*
X11470Y-34100D01*
X10600Y-34100D01*
X10600Y-33900D01*
X12450Y-33900D01*
X12450Y-32729D01*
X11970Y-32250D01*
X10466Y-32250D01*
X10499Y-34100D01*
X9650Y-34100D01*
X9650Y-36250D01*
X8000Y-36250D01*
X8000Y-34200D01*
X9250Y-34200D01*
X9250Y-32401D01*
X8000Y-32351D01*
X8000Y-31400D01*
X10550Y-31400D01*
X10550Y-25720D01*
X11650Y-26820D01*
X11650Y-28619D01*
X12077Y-29100D01*
X20229Y-29100D01*
X20479Y-29350D01*
X20429Y-29350D01*
X21129Y-30050D01*
X21950Y-30050D01*
X21950Y-30378D01*
G54D10*
G36*
X34829Y-26150D02*
X34629Y-26350D01*
X33029Y-26350D01*
X32814Y-26564D01*
X32279Y-27100D01*
X28150Y-27100D01*
X28150Y-28850D01*
X31450Y-28850D01*
X31450Y-29400D01*
X29829Y-29400D01*
X27200Y-32029D01*
X27200Y-32650D01*
X26529Y-32650D01*
X26529Y-28075D01*
X26518Y-27867D01*
X26460Y-27727D01*
X26367Y-27702D01*
X26297Y-27773D01*
X26297Y-27632D01*
X26272Y-27539D01*
X26075Y-27470D01*
X25867Y-27481D01*
X25727Y-27539D01*
X25702Y-27632D01*
X26000Y-27929D01*
X26297Y-27632D01*
X26297Y-27773D01*
X26070Y-28000D01*
X26367Y-28297D01*
X26460Y-28272D01*
X26529Y-28075D01*
X26529Y-32650D01*
X26470Y-32650D01*
X26297Y-32476D01*
X26297Y-28367D01*
X26000Y-28070D01*
X25929Y-28141D01*
X25929Y-28000D01*
X25632Y-27702D01*
X25539Y-27727D01*
X25470Y-27924D01*
X25481Y-28132D01*
X25539Y-28272D01*
X25632Y-28297D01*
X25929Y-28000D01*
X25929Y-28141D01*
X25702Y-28367D01*
X25727Y-28460D01*
X25924Y-28529D01*
X26132Y-28518D01*
X26272Y-28460D01*
X26297Y-28367D01*
X26297Y-32476D01*
X25950Y-32129D01*
X25950Y-30229D01*
X25500Y-29779D01*
X25500Y-29550D01*
X24400Y-29550D01*
X24400Y-26850D01*
X22200Y-26850D01*
X22200Y-25779D01*
X21995Y-25574D01*
X22084Y-25575D01*
X22240Y-25510D01*
X22360Y-25391D01*
X22424Y-25234D01*
X22425Y-25065D01*
X22360Y-24909D01*
X22301Y-24850D01*
X22550Y-24850D01*
X22550Y-25720D01*
X23529Y-26700D01*
X31150Y-26700D01*
X31150Y-25600D01*
X32350Y-25600D01*
X32350Y-26150D01*
X34829Y-26150D01*
X34829Y-26150D01*
G37*
G54D23*
X34829Y-26150D02*
X34629Y-26350D01*
X33029Y-26350D01*
X32814Y-26564D01*
X32279Y-27100D01*
X28150Y-27100D01*
X28150Y-28850D01*
X31450Y-28850D01*
X31450Y-29400D01*
X29829Y-29400D01*
X27200Y-32029D01*
X27200Y-32650D01*
X26529Y-32650D01*
X26529Y-28075D01*
X26518Y-27867D01*
X26460Y-27727D01*
X26367Y-27702D01*
X26297Y-27773D01*
X26297Y-27632D01*
X26272Y-27539D01*
X26075Y-27470D01*
X25867Y-27481D01*
X25727Y-27539D01*
X25702Y-27632D01*
X26000Y-27929D01*
X26297Y-27632D01*
X26297Y-27773D01*
X26070Y-28000D01*
X26367Y-28297D01*
X26460Y-28272D01*
X26529Y-28075D01*
X26529Y-32650D01*
X26470Y-32650D01*
X26297Y-32476D01*
X26297Y-28367D01*
X26000Y-28070D01*
X25929Y-28141D01*
X25929Y-28000D01*
X25632Y-27702D01*
X25539Y-27727D01*
X25470Y-27924D01*
X25481Y-28132D01*
X25539Y-28272D01*
X25632Y-28297D01*
X25929Y-28000D01*
X25929Y-28141D01*
X25702Y-28367D01*
X25727Y-28460D01*
X25924Y-28529D01*
X26132Y-28518D01*
X26272Y-28460D01*
X26297Y-28367D01*
X26297Y-32476D01*
X25950Y-32129D01*
X25950Y-30229D01*
X25500Y-29779D01*
X25500Y-29550D01*
X24400Y-29550D01*
X24400Y-26850D01*
X22200Y-26850D01*
X22200Y-25779D01*
X21995Y-25574D01*
X22084Y-25575D01*
X22240Y-25510D01*
X22360Y-25391D01*
X22424Y-25234D01*
X22425Y-25065D01*
X22360Y-24909D01*
X22301Y-24850D01*
X22550Y-24850D01*
X22550Y-25720D01*
X23529Y-26700D01*
X31150Y-26700D01*
X31150Y-25600D01*
X32350Y-25600D01*
X32350Y-26150D01*
X34829Y-26150D01*
G54D10*
G36*
X39000Y-26479D02*
X38029Y-27450D01*
X34970Y-27450D01*
X36370Y-26050D01*
X39000Y-26050D01*
X39000Y-26479D01*
X39000Y-26479D01*
G37*
G54D23*
X39000Y-26479D02*
X38029Y-27450D01*
X34970Y-27450D01*
X36370Y-26050D01*
X39000Y-26050D01*
X39000Y-26479D01*
G54D10*
G36*
X22200Y-36400D02*
X18150Y-36400D01*
X18150Y-35650D01*
X22200Y-35650D01*
X22200Y-36400D01*
X22200Y-36400D01*
G37*
G54D23*
X22200Y-36400D02*
X18150Y-36400D01*
X18150Y-35650D01*
X22200Y-35650D01*
X22200Y-36400D01*
G54D10*
G36*
X29050Y-36400D02*
X25100Y-36400D01*
X25100Y-35650D01*
X29050Y-35650D01*
X29050Y-36400D01*
X29050Y-36400D01*
G37*
G54D23*
X29050Y-36400D02*
X25100Y-36400D01*
X25100Y-35650D01*
X29050Y-35650D01*
X29050Y-36400D01*
G54D10*
G36*
X21250Y-15100D02*
X19300Y-15100D01*
X19300Y-13950D01*
X20629Y-13950D01*
X21250Y-14570D01*
X21250Y-15100D01*
X21250Y-15100D01*
G37*
G54D23*
X21250Y-15100D02*
X19300Y-15100D01*
X19300Y-13950D01*
X20629Y-13950D01*
X21250Y-14570D01*
X21250Y-15100D01*
G54D10*
G36*
X20233Y-16300D02*
X19400Y-17180D01*
X19400Y-18300D01*
X19027Y-18300D01*
X19060Y-18190D01*
X19060Y-18050D01*
X19060Y-17950D01*
X19060Y-17810D01*
X18998Y-17599D01*
X18860Y-17428D01*
X18668Y-17323D01*
X18636Y-17316D01*
X18550Y-17365D01*
X18550Y-17950D01*
X19060Y-17950D01*
X19060Y-18050D01*
X18550Y-18050D01*
X18550Y-18057D01*
X18450Y-18057D01*
X18450Y-18050D01*
X18442Y-18050D01*
X18442Y-17950D01*
X18450Y-17950D01*
X18450Y-17365D01*
X18400Y-17337D01*
X18400Y-17200D01*
X14500Y-17200D01*
X14500Y-16300D01*
X18350Y-16300D01*
X20233Y-16300D01*
X20233Y-16300D01*
G37*
G54D23*
X20233Y-16300D02*
X19400Y-17180D01*
X19400Y-18300D01*
X19027Y-18300D01*
X19060Y-18190D01*
X19060Y-18050D01*
X19060Y-17950D01*
X19060Y-17810D01*
X18998Y-17599D01*
X18860Y-17428D01*
X18668Y-17323D01*
X18636Y-17316D01*
X18550Y-17365D01*
X18550Y-17950D01*
X19060Y-17950D01*
X19060Y-18050D01*
X18550Y-18050D01*
X18550Y-18057D01*
X18450Y-18057D01*
X18450Y-18050D01*
X18442Y-18050D01*
X18442Y-17950D01*
X18450Y-17950D01*
X18450Y-17365D01*
X18400Y-17337D01*
X18400Y-17200D01*
X14500Y-17200D01*
X14500Y-16300D01*
X18350Y-16300D01*
X20233Y-16300D01*
G54D10*
G36*
X21600Y-9800D02*
X18550Y-9800D01*
X18550Y-8850D01*
X20828Y-8850D01*
X21600Y-9669D01*
X21600Y-9800D01*
X21600Y-9800D01*
G37*
G54D23*
X21600Y-9800D02*
X18550Y-9800D01*
X18550Y-8850D01*
X20828Y-8850D01*
X21600Y-9669D01*
X21600Y-9800D01*
G54D10*
G36*
X21900Y-6450D02*
X16950Y-6450D01*
X16950Y-5600D01*
X21900Y-5600D01*
X21900Y-6450D01*
X21900Y-6450D01*
G37*
G54D23*
X21900Y-6450D02*
X16950Y-6450D01*
X16950Y-5600D01*
X21900Y-5600D01*
X21900Y-6450D01*
G54D10*
G36*
X25950Y-6400D02*
X23900Y-6400D01*
X23900Y-5600D01*
X25950Y-5600D01*
X25950Y-6400D01*
X25950Y-6400D01*
G37*
G54D23*
X25950Y-6400D02*
X23900Y-6400D01*
X23900Y-5600D01*
X25950Y-5600D01*
X25950Y-6400D01*
G54D10*
G36*
X28850Y-6400D02*
X27050Y-6400D01*
X27050Y-5600D01*
X28850Y-5600D01*
X28850Y-6400D01*
X28850Y-6400D01*
G37*
G54D23*
X28850Y-6400D02*
X27050Y-6400D01*
X27050Y-5600D01*
X28850Y-5600D01*
X28850Y-6400D01*
G54D10*
G36*
X28350Y-9650D02*
X27250Y-9650D01*
X27250Y-8800D01*
X27529Y-8800D01*
X27979Y-9250D01*
X28350Y-9250D01*
X28350Y-9650D01*
X28350Y-9650D01*
G37*
G54D23*
X28350Y-9650D02*
X27250Y-9650D01*
X27250Y-8800D01*
X27529Y-8800D01*
X27979Y-9250D01*
X28350Y-9250D01*
X28350Y-9650D01*
G54D10*
G36*
X35350Y-9650D02*
X33520Y-9650D01*
X34100Y-9070D01*
X34100Y-8700D01*
X34800Y-8700D01*
X34800Y-9020D01*
X35129Y-9350D01*
X35350Y-9350D01*
X35350Y-9650D01*
X35350Y-9650D01*
G37*
G54D23*
X35350Y-9650D02*
X33520Y-9650D01*
X34100Y-9070D01*
X34100Y-8700D01*
X34800Y-8700D01*
X34800Y-9020D01*
X35129Y-9350D01*
X35350Y-9350D01*
X35350Y-9650D01*
M02*
