G04 (created by PCBNEW (22-Jun-2014 BZR 4027)-stable) date Cts 25 Nis 2020 13:27:14 +03*
%MOIN*%
G04 Gerber Fmt 3.4, Leading zero omitted, Abs format*
%FSLAX34Y34*%
G01*
G70*
G90*
G04 APERTURE LIST*
%ADD10C,0.00590551*%
%ADD11C,0.00393701*%
%ADD12C,0.008*%
%ADD13C,0.012*%
%ADD14C,0.015*%
%ADD15C,0.01*%
%ADD16C,0.006*%
%ADD17C,0.005*%
%ADD18C,0.0108*%
%ADD19C,0.01125*%
%ADD20C,0.0035*%
G04 APERTURE END LIST*
G54D10*
G54D11*
X7600Y-5200D02*
X7700Y-5200D01*
X7600Y-36650D02*
X7600Y-5200D01*
X42150Y-36650D02*
X7600Y-36650D01*
X42150Y-5200D02*
X42150Y-36650D01*
X7650Y-5200D02*
X42150Y-5200D01*
G54D12*
X8500Y-6000D02*
X8700Y-6000D01*
X11500Y-6000D02*
X11300Y-6000D01*
X11300Y-6000D02*
X11300Y-5600D01*
X11300Y-5600D02*
X8700Y-5600D01*
X8700Y-5600D02*
X8700Y-6400D01*
X8700Y-6400D02*
X11300Y-6400D01*
X11300Y-6400D02*
X11300Y-6000D01*
X8700Y-5800D02*
X8900Y-5600D01*
X29000Y-28000D02*
X28800Y-28000D01*
X26000Y-28000D02*
X26200Y-28000D01*
X26200Y-28000D02*
X26200Y-28400D01*
X26200Y-28400D02*
X28800Y-28400D01*
X28800Y-28400D02*
X28800Y-27600D01*
X28800Y-27600D02*
X26200Y-27600D01*
X26200Y-27600D02*
X26200Y-28000D01*
X28800Y-28200D02*
X28600Y-28400D01*
X33550Y-28000D02*
X33350Y-28000D01*
X30550Y-28000D02*
X30750Y-28000D01*
X30750Y-28000D02*
X30750Y-28400D01*
X30750Y-28400D02*
X33350Y-28400D01*
X33350Y-28400D02*
X33350Y-27600D01*
X33350Y-27600D02*
X30750Y-27600D01*
X30750Y-27600D02*
X30750Y-28000D01*
X33350Y-28200D02*
X33150Y-28400D01*
X17000Y-28000D02*
X17200Y-28000D01*
X20000Y-28000D02*
X19800Y-28000D01*
X19800Y-28000D02*
X19800Y-27600D01*
X19800Y-27600D02*
X17200Y-27600D01*
X17200Y-27600D02*
X17200Y-28400D01*
X17200Y-28400D02*
X19800Y-28400D01*
X19800Y-28400D02*
X19800Y-28000D01*
X17200Y-27800D02*
X17400Y-27600D01*
X8600Y-33200D02*
X8800Y-33200D01*
X11600Y-33200D02*
X11400Y-33200D01*
X11400Y-33200D02*
X11400Y-32800D01*
X11400Y-32800D02*
X8800Y-32800D01*
X8800Y-32800D02*
X8800Y-33600D01*
X8800Y-33600D02*
X11400Y-33600D01*
X11400Y-33600D02*
X11400Y-33200D01*
X8800Y-33000D02*
X9000Y-32800D01*
X15500Y-28000D02*
X15300Y-28000D01*
X12500Y-28000D02*
X12700Y-28000D01*
X12700Y-28000D02*
X12700Y-28400D01*
X12700Y-28400D02*
X15300Y-28400D01*
X15300Y-28400D02*
X15300Y-27600D01*
X15300Y-27600D02*
X12700Y-27600D01*
X12700Y-27600D02*
X12700Y-28000D01*
X15300Y-28200D02*
X15100Y-28400D01*
G54D13*
X8000Y-31000D02*
X8000Y-11000D01*
X10000Y-31000D02*
X10000Y-11000D01*
X10000Y-31000D02*
X8000Y-31000D01*
X10000Y-11000D02*
X8000Y-11000D01*
G54D14*
X21000Y-16000D02*
X21500Y-16000D01*
X21500Y-16000D02*
X21500Y-17000D01*
X21500Y-17000D02*
X21000Y-17000D01*
X21000Y-15500D02*
X32000Y-15500D01*
X32000Y-15500D02*
X32000Y-17500D01*
X32000Y-17500D02*
X21000Y-17500D01*
X21000Y-17500D02*
X21000Y-15500D01*
X32500Y-23000D02*
X32500Y-23000D01*
X32500Y-23000D02*
X33000Y-23000D01*
X33000Y-23000D02*
X33000Y-24000D01*
X33000Y-24000D02*
X32500Y-24000D01*
X32500Y-22500D02*
X41500Y-22500D01*
X41500Y-22500D02*
X41500Y-24500D01*
X41500Y-24500D02*
X32500Y-24500D01*
X32500Y-24500D02*
X32500Y-22500D01*
X11500Y-23000D02*
X11500Y-23000D01*
X11500Y-23000D02*
X12000Y-23000D01*
X12000Y-23000D02*
X12000Y-24000D01*
X12000Y-24000D02*
X11500Y-24000D01*
X11500Y-22500D02*
X20500Y-22500D01*
X20500Y-22500D02*
X20500Y-24500D01*
X20500Y-24500D02*
X11500Y-24500D01*
X11500Y-24500D02*
X11500Y-22500D01*
X33500Y-15500D02*
X41500Y-15500D01*
X41500Y-17500D02*
X33500Y-17500D01*
X33500Y-17500D02*
X33500Y-15500D01*
X33500Y-16000D02*
X34000Y-16000D01*
X34000Y-16000D02*
X34000Y-17000D01*
X34000Y-17000D02*
X33500Y-17000D01*
X41500Y-15500D02*
X41500Y-17500D01*
X22500Y-22500D02*
X30500Y-22500D01*
X30500Y-24500D02*
X22500Y-24500D01*
X22500Y-24500D02*
X22500Y-22500D01*
X22500Y-23000D02*
X23000Y-23000D01*
X23000Y-23000D02*
X23000Y-24000D01*
X23000Y-24000D02*
X22500Y-24000D01*
X30500Y-22500D02*
X30500Y-24500D01*
X11500Y-15500D02*
X19500Y-15500D01*
X19500Y-17500D02*
X11500Y-17500D01*
X11500Y-17500D02*
X11500Y-15500D01*
X11500Y-16000D02*
X12000Y-16000D01*
X12000Y-16000D02*
X12000Y-17000D01*
X12000Y-17000D02*
X11500Y-17000D01*
X19500Y-15500D02*
X19500Y-17500D01*
G54D13*
X8500Y-7500D02*
X8800Y-7500D01*
X8800Y-7500D02*
X8800Y-7900D01*
X8800Y-7900D02*
X11200Y-7900D01*
X11200Y-7900D02*
X11200Y-7500D01*
X11200Y-7500D02*
X11500Y-7500D01*
X11200Y-7500D02*
X11200Y-7100D01*
X11200Y-7100D02*
X8800Y-7100D01*
X8800Y-7100D02*
X8800Y-7500D01*
X9000Y-7900D02*
X9000Y-7100D01*
X9100Y-7100D02*
X9100Y-7900D01*
G54D15*
X10280Y-34850D02*
X10280Y-35850D01*
G54D16*
X11360Y-35734D02*
G75*
G03X11500Y-35350I-460J384D01*
G74*
G01*
X11499Y-35350D02*
G75*
G03X11348Y-34952I-599J0D01*
G74*
G01*
X10300Y-35350D02*
G75*
G03X10444Y-35739I599J0D01*
G74*
G01*
X10439Y-34965D02*
G75*
G03X10300Y-35350I460J-384D01*
G74*
G01*
X10412Y-35699D02*
G75*
G03X10900Y-35950I487J349D01*
G74*
G01*
X10900Y-35950D02*
G75*
G03X11379Y-35710I0J600D01*
G74*
G01*
X10900Y-34750D02*
G75*
G03X10427Y-34981I0J-599D01*
G74*
G01*
X11373Y-34981D02*
G75*
G03X10900Y-34750I-473J-368D01*
G74*
G01*
X10900Y-35600D02*
G75*
G03X11150Y-35350I0J250D01*
G74*
G01*
X10900Y-35750D02*
G75*
G03X11300Y-35350I0J400D01*
G74*
G01*
X10900Y-35100D02*
G75*
G03X10650Y-35350I0J-250D01*
G74*
G01*
X10900Y-34950D02*
G75*
G03X10500Y-35350I0J-400D01*
G74*
G01*
G54D15*
X10286Y-35863D02*
G75*
G03X10900Y-36150I613J513D01*
G74*
G01*
X10900Y-36149D02*
G75*
G03X11604Y-35726I0J799D01*
G74*
G01*
X10898Y-34551D02*
G75*
G03X10289Y-34834I1J-798D01*
G74*
G01*
X11594Y-34952D02*
G75*
G03X10900Y-34550I-694J-397D01*
G74*
G01*
X11604Y-35729D02*
G75*
G03X11700Y-35350I-704J379D01*
G74*
G01*
X11699Y-35350D02*
G75*
G03X11581Y-34931I-799J0D01*
G74*
G01*
X23720Y-28500D02*
X23720Y-27500D01*
G54D16*
X22639Y-27615D02*
G75*
G03X22500Y-28000I460J-384D01*
G74*
G01*
X22500Y-28000D02*
G75*
G03X22651Y-28397I599J0D01*
G74*
G01*
X23699Y-28000D02*
G75*
G03X23555Y-27610I-599J0D01*
G74*
G01*
X23560Y-28384D02*
G75*
G03X23700Y-28000I-460J384D01*
G74*
G01*
X23587Y-27650D02*
G75*
G03X23100Y-27400I-487J-349D01*
G74*
G01*
X23100Y-27400D02*
G75*
G03X22620Y-27639I0J-600D01*
G74*
G01*
X23100Y-28599D02*
G75*
G03X23572Y-28368I0J599D01*
G74*
G01*
X22626Y-28368D02*
G75*
G03X23100Y-28600I473J368D01*
G74*
G01*
X23100Y-27750D02*
G75*
G03X22850Y-28000I0J-250D01*
G74*
G01*
X23100Y-27600D02*
G75*
G03X22700Y-28000I0J-400D01*
G74*
G01*
X23100Y-28250D02*
G75*
G03X23350Y-28000I0J250D01*
G74*
G01*
X23100Y-28400D02*
G75*
G03X23500Y-28000I0J400D01*
G74*
G01*
G54D15*
X23713Y-27486D02*
G75*
G03X23100Y-27200I-613J-513D01*
G74*
G01*
X23100Y-27201D02*
G75*
G03X22395Y-27623I0J-799D01*
G74*
G01*
X23101Y-28798D02*
G75*
G03X23710Y-28515I-1J798D01*
G74*
G01*
X22405Y-28397D02*
G75*
G03X23100Y-28800I694J397D01*
G74*
G01*
X22395Y-27620D02*
G75*
G03X22300Y-28000I704J-379D01*
G74*
G01*
X22300Y-28000D02*
G75*
G03X22418Y-28418I799J0D01*
G74*
G01*
G54D17*
X11501Y-9500D02*
G75*
G03X11501Y-9500I-1001J0D01*
G74*
G01*
X21501Y-20000D02*
G75*
G03X21501Y-20000I-1001J0D01*
G74*
G01*
X33501Y-20000D02*
G75*
G03X33501Y-20000I-1001J0D01*
G74*
G01*
G54D10*
X34000Y-11500D02*
X34000Y-5500D01*
X40000Y-5500D02*
X34000Y-5500D01*
X40000Y-11500D02*
X40000Y-5500D01*
G54D17*
X34000Y-11500D02*
X40000Y-11500D01*
G54D10*
X27000Y-11500D02*
X27000Y-5500D01*
X33000Y-5500D02*
X27000Y-5500D01*
X33000Y-11500D02*
X33000Y-5500D01*
G54D17*
X27000Y-11500D02*
X33000Y-11500D01*
G54D10*
X20000Y-11500D02*
X20000Y-5500D01*
X26000Y-5500D02*
X20000Y-5500D01*
X26000Y-11500D02*
X26000Y-5500D01*
G54D17*
X20000Y-11500D02*
X26000Y-11500D01*
G54D10*
X13000Y-11500D02*
X13000Y-5500D01*
X19000Y-5500D02*
X13000Y-5500D01*
X19000Y-11500D02*
X19000Y-5500D01*
G54D17*
X13000Y-11500D02*
X19000Y-11500D01*
G54D10*
X40000Y-30500D02*
X40000Y-36500D01*
X34000Y-36500D02*
X40000Y-36500D01*
X34000Y-30500D02*
X34000Y-36500D01*
G54D17*
X40000Y-30500D02*
X34000Y-30500D01*
G54D10*
X33000Y-30500D02*
X33000Y-36500D01*
X27000Y-36500D02*
X33000Y-36500D01*
X27000Y-30500D02*
X27000Y-36500D01*
G54D17*
X33000Y-30500D02*
X27000Y-30500D01*
G54D10*
X26000Y-30500D02*
X26000Y-36500D01*
X20000Y-36500D02*
X26000Y-36500D01*
X20000Y-30500D02*
X20000Y-36500D01*
G54D17*
X26000Y-30500D02*
X20000Y-30500D01*
G54D10*
X19000Y-30500D02*
X19000Y-36500D01*
X13000Y-36500D02*
X19000Y-36500D01*
X13000Y-30500D02*
X13000Y-36500D01*
G54D17*
X19000Y-30500D02*
X13000Y-30500D01*
X15551Y-12900D02*
G75*
G03X15551Y-12900I-1001J0D01*
G74*
G01*
G54D12*
X9654Y-6222D02*
X9369Y-6222D01*
X9511Y-6222D02*
X9511Y-5672D01*
X9464Y-5751D01*
X9416Y-5803D01*
X9369Y-5829D01*
X9964Y-5672D02*
X10011Y-5672D01*
X10059Y-5698D01*
X10083Y-5725D01*
X10107Y-5777D01*
X10130Y-5882D01*
X10130Y-6013D01*
X10107Y-6117D01*
X10083Y-6170D01*
X10059Y-6196D01*
X10011Y-6222D01*
X9964Y-6222D01*
X9916Y-6196D01*
X9892Y-6170D01*
X9869Y-6117D01*
X9845Y-6013D01*
X9845Y-5882D01*
X9869Y-5777D01*
X9892Y-5725D01*
X9916Y-5698D01*
X9964Y-5672D01*
X10345Y-6222D02*
X10345Y-5672D01*
X10630Y-6222D02*
X10416Y-5908D01*
X10630Y-5672D02*
X10345Y-5986D01*
X26726Y-27622D02*
X27035Y-27622D01*
X26869Y-27832D01*
X26940Y-27832D01*
X26988Y-27858D01*
X27011Y-27884D01*
X27035Y-27936D01*
X27035Y-28067D01*
X27011Y-28120D01*
X26988Y-28146D01*
X26940Y-28172D01*
X26797Y-28172D01*
X26750Y-28146D01*
X26726Y-28120D01*
X27250Y-28120D02*
X27273Y-28146D01*
X27250Y-28172D01*
X27226Y-28146D01*
X27250Y-28120D01*
X27250Y-28172D01*
X27440Y-27622D02*
X27750Y-27622D01*
X27583Y-27832D01*
X27654Y-27832D01*
X27702Y-27858D01*
X27726Y-27884D01*
X27750Y-27936D01*
X27750Y-28067D01*
X27726Y-28120D01*
X27702Y-28146D01*
X27654Y-28172D01*
X27511Y-28172D01*
X27464Y-28146D01*
X27440Y-28120D01*
X27964Y-28172D02*
X27964Y-27622D01*
X28250Y-28172D02*
X28035Y-27858D01*
X28250Y-27622D02*
X27964Y-27936D01*
X31300Y-27675D02*
X31323Y-27648D01*
X31371Y-27622D01*
X31490Y-27622D01*
X31538Y-27648D01*
X31561Y-27675D01*
X31585Y-27727D01*
X31585Y-27779D01*
X31561Y-27858D01*
X31276Y-28172D01*
X31585Y-28172D01*
X31800Y-28120D02*
X31823Y-28146D01*
X31800Y-28172D01*
X31776Y-28146D01*
X31800Y-28120D01*
X31800Y-28172D01*
X32014Y-27675D02*
X32038Y-27648D01*
X32085Y-27622D01*
X32204Y-27622D01*
X32252Y-27648D01*
X32276Y-27675D01*
X32300Y-27727D01*
X32300Y-27779D01*
X32276Y-27858D01*
X31990Y-28172D01*
X32300Y-28172D01*
X32514Y-28172D02*
X32514Y-27622D01*
X32800Y-28172D02*
X32585Y-27858D01*
X32800Y-27622D02*
X32514Y-27936D01*
X18154Y-28272D02*
X17869Y-28272D01*
X18011Y-28272D02*
X18011Y-27722D01*
X17964Y-27801D01*
X17916Y-27853D01*
X17869Y-27879D01*
X18464Y-27722D02*
X18511Y-27722D01*
X18559Y-27748D01*
X18583Y-27775D01*
X18607Y-27827D01*
X18630Y-27932D01*
X18630Y-28063D01*
X18607Y-28167D01*
X18583Y-28220D01*
X18559Y-28246D01*
X18511Y-28272D01*
X18464Y-28272D01*
X18416Y-28246D01*
X18392Y-28220D01*
X18369Y-28167D01*
X18345Y-28063D01*
X18345Y-27932D01*
X18369Y-27827D01*
X18392Y-27775D01*
X18416Y-27748D01*
X18464Y-27722D01*
X18845Y-28272D02*
X18845Y-27722D01*
X19130Y-28272D02*
X18916Y-27958D01*
X19130Y-27722D02*
X18845Y-28036D01*
X9754Y-33422D02*
X9469Y-33422D01*
X9611Y-33422D02*
X9611Y-32872D01*
X9564Y-32951D01*
X9516Y-33003D01*
X9469Y-33029D01*
X10064Y-32872D02*
X10111Y-32872D01*
X10159Y-32898D01*
X10183Y-32925D01*
X10207Y-32977D01*
X10230Y-33082D01*
X10230Y-33213D01*
X10207Y-33317D01*
X10183Y-33370D01*
X10159Y-33396D01*
X10111Y-33422D01*
X10064Y-33422D01*
X10016Y-33396D01*
X9992Y-33370D01*
X9969Y-33317D01*
X9945Y-33213D01*
X9945Y-33082D01*
X9969Y-32977D01*
X9992Y-32925D01*
X10016Y-32898D01*
X10064Y-32872D01*
X10445Y-33422D02*
X10445Y-32872D01*
X10730Y-33422D02*
X10516Y-33108D01*
X10730Y-32872D02*
X10445Y-33186D01*
X13654Y-28172D02*
X13369Y-28172D01*
X13511Y-28172D02*
X13511Y-27622D01*
X13464Y-27701D01*
X13416Y-27753D01*
X13369Y-27779D01*
X13964Y-27622D02*
X14011Y-27622D01*
X14059Y-27648D01*
X14083Y-27675D01*
X14107Y-27727D01*
X14130Y-27832D01*
X14130Y-27963D01*
X14107Y-28067D01*
X14083Y-28120D01*
X14059Y-28146D01*
X14011Y-28172D01*
X13964Y-28172D01*
X13916Y-28146D01*
X13892Y-28120D01*
X13869Y-28067D01*
X13845Y-27963D01*
X13845Y-27832D01*
X13869Y-27727D01*
X13892Y-27675D01*
X13916Y-27648D01*
X13964Y-27622D01*
X14345Y-28172D02*
X14345Y-27622D01*
X14630Y-28172D02*
X14416Y-27858D01*
X14630Y-27622D02*
X14345Y-27936D01*
G54D15*
X10661Y-21295D02*
X10261Y-21295D01*
X10261Y-21142D01*
X10280Y-21104D01*
X10300Y-21085D01*
X10338Y-21066D01*
X10395Y-21066D01*
X10433Y-21085D01*
X10452Y-21104D01*
X10471Y-21142D01*
X10471Y-21295D01*
X10661Y-20685D02*
X10661Y-20914D01*
X10661Y-20799D02*
X10261Y-20799D01*
X10319Y-20838D01*
X10357Y-20876D01*
X10376Y-20914D01*
G54D18*
G54D12*
X7661Y-23076D02*
X7471Y-23209D01*
X7661Y-23304D02*
X7261Y-23304D01*
X7261Y-23152D01*
X7280Y-23114D01*
X7300Y-23095D01*
X7338Y-23076D01*
X7395Y-23076D01*
X7433Y-23095D01*
X7452Y-23114D01*
X7471Y-23152D01*
X7471Y-23304D01*
X7547Y-22923D02*
X7547Y-22733D01*
X7661Y-22961D02*
X7261Y-22828D01*
X7661Y-22695D01*
X7642Y-22580D02*
X7661Y-22523D01*
X7661Y-22428D01*
X7642Y-22390D01*
X7623Y-22371D01*
X7585Y-22352D01*
X7547Y-22352D01*
X7509Y-22371D01*
X7490Y-22390D01*
X7471Y-22428D01*
X7452Y-22504D01*
X7433Y-22542D01*
X7414Y-22561D01*
X7376Y-22580D01*
X7338Y-22580D01*
X7300Y-22561D01*
X7280Y-22542D01*
X7261Y-22504D01*
X7261Y-22409D01*
X7280Y-22352D01*
X7661Y-22180D02*
X7261Y-22180D01*
X7261Y-22028D01*
X7280Y-21990D01*
X7300Y-21971D01*
X7338Y-21952D01*
X7395Y-21952D01*
X7433Y-21971D01*
X7452Y-21990D01*
X7471Y-22028D01*
X7471Y-22180D01*
X7452Y-21647D02*
X7471Y-21590D01*
X7490Y-21571D01*
X7528Y-21552D01*
X7585Y-21552D01*
X7623Y-21571D01*
X7642Y-21590D01*
X7661Y-21628D01*
X7661Y-21780D01*
X7261Y-21780D01*
X7261Y-21647D01*
X7280Y-21609D01*
X7300Y-21590D01*
X7338Y-21571D01*
X7376Y-21571D01*
X7414Y-21590D01*
X7433Y-21609D01*
X7452Y-21647D01*
X7452Y-21780D01*
X7452Y-21380D02*
X7452Y-21247D01*
X7661Y-21190D02*
X7661Y-21380D01*
X7261Y-21380D01*
X7261Y-21190D01*
X7661Y-20790D02*
X7471Y-20923D01*
X7661Y-21019D02*
X7261Y-21019D01*
X7261Y-20866D01*
X7280Y-20828D01*
X7300Y-20809D01*
X7338Y-20790D01*
X7395Y-20790D01*
X7433Y-20809D01*
X7452Y-20828D01*
X7471Y-20866D01*
X7471Y-21019D01*
X7661Y-20390D02*
X7471Y-20523D01*
X7661Y-20619D02*
X7261Y-20619D01*
X7261Y-20466D01*
X7280Y-20428D01*
X7300Y-20409D01*
X7338Y-20390D01*
X7395Y-20390D01*
X7433Y-20409D01*
X7452Y-20428D01*
X7471Y-20466D01*
X7471Y-20619D01*
X7471Y-20142D02*
X7661Y-20142D01*
X7261Y-20276D02*
X7471Y-20142D01*
X7261Y-20009D01*
X7700Y-19971D02*
X7700Y-19666D01*
X7661Y-19571D02*
X7261Y-19571D01*
X7452Y-19571D02*
X7452Y-19342D01*
X7661Y-19342D02*
X7261Y-19342D01*
X7547Y-19171D02*
X7547Y-18980D01*
X7661Y-19209D02*
X7261Y-19076D01*
X7661Y-18942D01*
X7261Y-18866D02*
X7261Y-18638D01*
X7661Y-18752D02*
X7261Y-18752D01*
G54D19*
X22657Y-15583D02*
X22657Y-16150D01*
X22678Y-16216D01*
X22700Y-16250D01*
X22742Y-16283D01*
X22828Y-16283D01*
X22871Y-16250D01*
X22892Y-16216D01*
X22914Y-16150D01*
X22914Y-15583D01*
X23321Y-15816D02*
X23321Y-16283D01*
X23214Y-15550D02*
X23107Y-16050D01*
X23385Y-16050D01*
G54D13*
G54D19*
X26496Y-16483D02*
X26796Y-16483D01*
X26603Y-17183D01*
X27160Y-16716D02*
X27160Y-17183D01*
X27053Y-16450D02*
X26946Y-16950D01*
X27225Y-16950D01*
X27610Y-17183D02*
X27396Y-17183D01*
X27396Y-16483D01*
X27739Y-17150D02*
X27803Y-17183D01*
X27910Y-17183D01*
X27953Y-17150D01*
X27975Y-17116D01*
X27996Y-17050D01*
X27996Y-16983D01*
X27975Y-16916D01*
X27953Y-16883D01*
X27910Y-16850D01*
X27825Y-16816D01*
X27782Y-16783D01*
X27760Y-16750D01*
X27739Y-16683D01*
X27739Y-16616D01*
X27760Y-16550D01*
X27782Y-16516D01*
X27825Y-16483D01*
X27932Y-16483D01*
X27996Y-16516D01*
X28146Y-16483D02*
X28425Y-16483D01*
X28275Y-16750D01*
X28339Y-16750D01*
X28382Y-16783D01*
X28403Y-16816D01*
X28425Y-16883D01*
X28425Y-17050D01*
X28403Y-17116D01*
X28382Y-17150D01*
X28339Y-17183D01*
X28210Y-17183D01*
X28167Y-17150D01*
X28146Y-17116D01*
X28575Y-16483D02*
X28875Y-16483D01*
X28682Y-17183D01*
X29003Y-16483D02*
X29282Y-16483D01*
X29132Y-16750D01*
X29196Y-16750D01*
X29239Y-16783D01*
X29260Y-16816D01*
X29282Y-16883D01*
X29282Y-17050D01*
X29260Y-17116D01*
X29239Y-17150D01*
X29196Y-17183D01*
X29067Y-17183D01*
X29024Y-17150D01*
X29003Y-17116D01*
G54D13*
G54D19*
X34157Y-22642D02*
X34157Y-23128D01*
X34178Y-23185D01*
X34200Y-23214D01*
X34242Y-23242D01*
X34328Y-23242D01*
X34371Y-23214D01*
X34392Y-23185D01*
X34414Y-23128D01*
X34414Y-22642D01*
X34821Y-22642D02*
X34735Y-22642D01*
X34692Y-22671D01*
X34671Y-22700D01*
X34628Y-22785D01*
X34607Y-22900D01*
X34607Y-23128D01*
X34628Y-23185D01*
X34650Y-23214D01*
X34692Y-23242D01*
X34778Y-23242D01*
X34821Y-23214D01*
X34842Y-23185D01*
X34864Y-23128D01*
X34864Y-22985D01*
X34842Y-22928D01*
X34821Y-22900D01*
X34778Y-22871D01*
X34692Y-22871D01*
X34650Y-22900D01*
X34628Y-22928D01*
X34607Y-22985D01*
G54D13*
G54D19*
X36096Y-23642D02*
X36396Y-23642D01*
X36203Y-24242D01*
X36760Y-23842D02*
X36760Y-24242D01*
X36653Y-23614D02*
X36546Y-24042D01*
X36825Y-24042D01*
X37210Y-24242D02*
X36996Y-24242D01*
X36996Y-23642D01*
X37339Y-24214D02*
X37403Y-24242D01*
X37510Y-24242D01*
X37553Y-24214D01*
X37575Y-24185D01*
X37596Y-24128D01*
X37596Y-24071D01*
X37575Y-24014D01*
X37553Y-23985D01*
X37510Y-23957D01*
X37425Y-23928D01*
X37382Y-23900D01*
X37360Y-23871D01*
X37339Y-23814D01*
X37339Y-23757D01*
X37360Y-23700D01*
X37382Y-23671D01*
X37425Y-23642D01*
X37532Y-23642D01*
X37596Y-23671D01*
X38025Y-24242D02*
X37767Y-24242D01*
X37896Y-24242D02*
X37896Y-23642D01*
X37853Y-23728D01*
X37810Y-23785D01*
X37767Y-23814D01*
X38410Y-23642D02*
X38325Y-23642D01*
X38282Y-23671D01*
X38260Y-23700D01*
X38217Y-23785D01*
X38196Y-23900D01*
X38196Y-24128D01*
X38217Y-24185D01*
X38239Y-24214D01*
X38282Y-24242D01*
X38367Y-24242D01*
X38410Y-24214D01*
X38432Y-24185D01*
X38453Y-24128D01*
X38453Y-23985D01*
X38432Y-23928D01*
X38410Y-23900D01*
X38367Y-23871D01*
X38282Y-23871D01*
X38239Y-23900D01*
X38217Y-23928D01*
X38196Y-23985D01*
X38860Y-23642D02*
X38646Y-23642D01*
X38624Y-23928D01*
X38646Y-23900D01*
X38689Y-23871D01*
X38796Y-23871D01*
X38839Y-23900D01*
X38860Y-23928D01*
X38882Y-23985D01*
X38882Y-24128D01*
X38860Y-24185D01*
X38839Y-24214D01*
X38796Y-24242D01*
X38689Y-24242D01*
X38646Y-24214D01*
X38624Y-24185D01*
G54D13*
G54D19*
X13157Y-22642D02*
X13157Y-23128D01*
X13178Y-23185D01*
X13200Y-23214D01*
X13242Y-23242D01*
X13328Y-23242D01*
X13371Y-23214D01*
X13392Y-23185D01*
X13414Y-23128D01*
X13414Y-22642D01*
X13607Y-22700D02*
X13628Y-22671D01*
X13671Y-22642D01*
X13778Y-22642D01*
X13821Y-22671D01*
X13842Y-22700D01*
X13864Y-22757D01*
X13864Y-22814D01*
X13842Y-22900D01*
X13585Y-23242D01*
X13864Y-23242D01*
G54D13*
G54D19*
X15096Y-23642D02*
X15396Y-23642D01*
X15203Y-24242D01*
X15760Y-23842D02*
X15760Y-24242D01*
X15653Y-23614D02*
X15546Y-24042D01*
X15825Y-24042D01*
X16210Y-24242D02*
X15996Y-24242D01*
X15996Y-23642D01*
X16339Y-24214D02*
X16403Y-24242D01*
X16510Y-24242D01*
X16553Y-24214D01*
X16575Y-24185D01*
X16596Y-24128D01*
X16596Y-24071D01*
X16575Y-24014D01*
X16553Y-23985D01*
X16510Y-23957D01*
X16425Y-23928D01*
X16382Y-23900D01*
X16360Y-23871D01*
X16339Y-23814D01*
X16339Y-23757D01*
X16360Y-23700D01*
X16382Y-23671D01*
X16425Y-23642D01*
X16532Y-23642D01*
X16596Y-23671D01*
X17025Y-24242D02*
X16767Y-24242D01*
X16896Y-24242D02*
X16896Y-23642D01*
X16853Y-23728D01*
X16810Y-23785D01*
X16767Y-23814D01*
X17175Y-23642D02*
X17453Y-23642D01*
X17303Y-23871D01*
X17367Y-23871D01*
X17410Y-23900D01*
X17432Y-23928D01*
X17453Y-23985D01*
X17453Y-24128D01*
X17432Y-24185D01*
X17410Y-24214D01*
X17367Y-24242D01*
X17239Y-24242D01*
X17196Y-24214D01*
X17175Y-24185D01*
X17710Y-23900D02*
X17667Y-23871D01*
X17646Y-23842D01*
X17624Y-23785D01*
X17624Y-23757D01*
X17646Y-23700D01*
X17667Y-23671D01*
X17710Y-23642D01*
X17796Y-23642D01*
X17839Y-23671D01*
X17860Y-23700D01*
X17882Y-23757D01*
X17882Y-23785D01*
X17860Y-23842D01*
X17839Y-23871D01*
X17796Y-23900D01*
X17710Y-23900D01*
X17667Y-23928D01*
X17646Y-23957D01*
X17624Y-24014D01*
X17624Y-24128D01*
X17646Y-24185D01*
X17667Y-24214D01*
X17710Y-24242D01*
X17796Y-24242D01*
X17839Y-24214D01*
X17860Y-24185D01*
X17882Y-24128D01*
X17882Y-24014D01*
X17860Y-23957D01*
X17839Y-23928D01*
X17796Y-23900D01*
G54D13*
G54D19*
X35157Y-15642D02*
X35157Y-16128D01*
X35178Y-16185D01*
X35200Y-16214D01*
X35242Y-16242D01*
X35328Y-16242D01*
X35371Y-16214D01*
X35392Y-16185D01*
X35414Y-16128D01*
X35414Y-15642D01*
X35842Y-15642D02*
X35628Y-15642D01*
X35607Y-15928D01*
X35628Y-15900D01*
X35671Y-15871D01*
X35778Y-15871D01*
X35821Y-15900D01*
X35842Y-15928D01*
X35864Y-15985D01*
X35864Y-16128D01*
X35842Y-16185D01*
X35821Y-16214D01*
X35778Y-16242D01*
X35671Y-16242D01*
X35628Y-16214D01*
X35607Y-16185D01*
G54D13*
G54D19*
X36810Y-16642D02*
X37110Y-16642D01*
X36917Y-17242D01*
X37475Y-16842D02*
X37475Y-17242D01*
X37367Y-16614D02*
X37260Y-17042D01*
X37539Y-17042D01*
X37925Y-17242D02*
X37710Y-17242D01*
X37710Y-16642D01*
X38053Y-17214D02*
X38117Y-17242D01*
X38225Y-17242D01*
X38267Y-17214D01*
X38289Y-17185D01*
X38310Y-17128D01*
X38310Y-17071D01*
X38289Y-17014D01*
X38267Y-16985D01*
X38225Y-16957D01*
X38139Y-16928D01*
X38096Y-16900D01*
X38075Y-16871D01*
X38053Y-16814D01*
X38053Y-16757D01*
X38075Y-16700D01*
X38096Y-16671D01*
X38139Y-16642D01*
X38246Y-16642D01*
X38310Y-16671D01*
X38460Y-16642D02*
X38760Y-16642D01*
X38567Y-17242D01*
X39125Y-16842D02*
X39125Y-17242D01*
X39017Y-16614D02*
X38910Y-17042D01*
X39189Y-17042D01*
G54D13*
G54D19*
X24157Y-22642D02*
X24157Y-23128D01*
X24178Y-23185D01*
X24200Y-23214D01*
X24242Y-23242D01*
X24328Y-23242D01*
X24371Y-23214D01*
X24392Y-23185D01*
X24414Y-23128D01*
X24414Y-22642D01*
X24585Y-22642D02*
X24864Y-22642D01*
X24714Y-22871D01*
X24778Y-22871D01*
X24821Y-22900D01*
X24842Y-22928D01*
X24864Y-22985D01*
X24864Y-23128D01*
X24842Y-23185D01*
X24821Y-23214D01*
X24778Y-23242D01*
X24650Y-23242D01*
X24607Y-23214D01*
X24585Y-23185D01*
G54D13*
G54D19*
X25596Y-23642D02*
X25896Y-23642D01*
X25703Y-24242D01*
X26260Y-23842D02*
X26260Y-24242D01*
X26153Y-23614D02*
X26046Y-24042D01*
X26325Y-24042D01*
X26710Y-24242D02*
X26496Y-24242D01*
X26496Y-23642D01*
X26839Y-24214D02*
X26903Y-24242D01*
X27010Y-24242D01*
X27053Y-24214D01*
X27075Y-24185D01*
X27096Y-24128D01*
X27096Y-24071D01*
X27075Y-24014D01*
X27053Y-23985D01*
X27010Y-23957D01*
X26925Y-23928D01*
X26882Y-23900D01*
X26860Y-23871D01*
X26839Y-23814D01*
X26839Y-23757D01*
X26860Y-23700D01*
X26882Y-23671D01*
X26925Y-23642D01*
X27032Y-23642D01*
X27096Y-23671D01*
X27525Y-24242D02*
X27267Y-24242D01*
X27396Y-24242D02*
X27396Y-23642D01*
X27353Y-23728D01*
X27310Y-23785D01*
X27267Y-23814D01*
X27910Y-23642D02*
X27825Y-23642D01*
X27782Y-23671D01*
X27760Y-23700D01*
X27717Y-23785D01*
X27696Y-23900D01*
X27696Y-24128D01*
X27717Y-24185D01*
X27739Y-24214D01*
X27782Y-24242D01*
X27867Y-24242D01*
X27910Y-24214D01*
X27932Y-24185D01*
X27953Y-24128D01*
X27953Y-23985D01*
X27932Y-23928D01*
X27910Y-23900D01*
X27867Y-23871D01*
X27782Y-23871D01*
X27739Y-23900D01*
X27717Y-23928D01*
X27696Y-23985D01*
X28339Y-23842D02*
X28339Y-24242D01*
X28232Y-23614D02*
X28124Y-24042D01*
X28403Y-24042D01*
G54D13*
G54D19*
X13157Y-15642D02*
X13157Y-16128D01*
X13178Y-16185D01*
X13200Y-16214D01*
X13242Y-16242D01*
X13328Y-16242D01*
X13371Y-16214D01*
X13392Y-16185D01*
X13414Y-16128D01*
X13414Y-15642D01*
X13864Y-16242D02*
X13607Y-16242D01*
X13735Y-16242D02*
X13735Y-15642D01*
X13692Y-15728D01*
X13650Y-15785D01*
X13607Y-15814D01*
G54D13*
G54D19*
X14310Y-16142D02*
X14610Y-16142D01*
X14417Y-16742D01*
X14975Y-16342D02*
X14975Y-16742D01*
X14867Y-16114D02*
X14760Y-16542D01*
X15039Y-16542D01*
X15425Y-16742D02*
X15210Y-16742D01*
X15210Y-16142D01*
X15553Y-16714D02*
X15617Y-16742D01*
X15725Y-16742D01*
X15767Y-16714D01*
X15789Y-16685D01*
X15810Y-16628D01*
X15810Y-16571D01*
X15789Y-16514D01*
X15767Y-16485D01*
X15725Y-16457D01*
X15639Y-16428D01*
X15596Y-16400D01*
X15575Y-16371D01*
X15553Y-16314D01*
X15553Y-16257D01*
X15575Y-16200D01*
X15596Y-16171D01*
X15639Y-16142D01*
X15746Y-16142D01*
X15810Y-16171D01*
X16089Y-16142D02*
X16132Y-16142D01*
X16175Y-16171D01*
X16196Y-16200D01*
X16217Y-16257D01*
X16239Y-16371D01*
X16239Y-16514D01*
X16217Y-16628D01*
X16196Y-16685D01*
X16175Y-16714D01*
X16132Y-16742D01*
X16089Y-16742D01*
X16046Y-16714D01*
X16025Y-16685D01*
X16003Y-16628D01*
X15982Y-16514D01*
X15982Y-16371D01*
X16003Y-16257D01*
X16025Y-16200D01*
X16046Y-16171D01*
X16089Y-16142D01*
X16625Y-16342D02*
X16625Y-16742D01*
X16517Y-16114D02*
X16410Y-16542D01*
X16689Y-16542D01*
G54D13*
G54D12*
X9704Y-7661D02*
X9704Y-7261D01*
X9800Y-7261D01*
X9857Y-7280D01*
X9895Y-7319D01*
X9914Y-7357D01*
X9933Y-7433D01*
X9933Y-7490D01*
X9914Y-7566D01*
X9895Y-7604D01*
X9857Y-7642D01*
X9800Y-7661D01*
X9704Y-7661D01*
X10314Y-7661D02*
X10085Y-7661D01*
X10200Y-7661D02*
X10200Y-7261D01*
X10161Y-7319D01*
X10123Y-7357D01*
X10085Y-7376D01*
G54D20*
X10728Y-36171D02*
X10728Y-35871D01*
X10800Y-35871D01*
X10842Y-35885D01*
X10871Y-35914D01*
X10885Y-35942D01*
X10900Y-36000D01*
X10900Y-36042D01*
X10885Y-36100D01*
X10871Y-36128D01*
X10842Y-36157D01*
X10800Y-36171D01*
X10728Y-36171D01*
X11014Y-35900D02*
X11028Y-35885D01*
X11057Y-35871D01*
X11128Y-35871D01*
X11157Y-35885D01*
X11171Y-35900D01*
X11185Y-35928D01*
X11185Y-35957D01*
X11171Y-36000D01*
X11000Y-36171D01*
X11185Y-36171D01*
X10807Y-34471D02*
X10664Y-34471D01*
X10664Y-34171D01*
X10907Y-34314D02*
X11007Y-34314D01*
X11050Y-34471D02*
X10907Y-34471D01*
X10907Y-34171D01*
X11050Y-34171D01*
X11178Y-34471D02*
X11178Y-34171D01*
X11250Y-34171D01*
X11292Y-34185D01*
X11321Y-34214D01*
X11335Y-34242D01*
X11350Y-34300D01*
X11350Y-34342D01*
X11335Y-34400D01*
X11321Y-34428D01*
X11292Y-34457D01*
X11250Y-34471D01*
X11178Y-34471D01*
X23478Y-27021D02*
X23478Y-26721D01*
X23550Y-26721D01*
X23592Y-26735D01*
X23621Y-26764D01*
X23635Y-26792D01*
X23650Y-26850D01*
X23650Y-26892D01*
X23635Y-26950D01*
X23621Y-26978D01*
X23592Y-27007D01*
X23550Y-27021D01*
X23478Y-27021D01*
X23750Y-26721D02*
X23935Y-26721D01*
X23835Y-26835D01*
X23878Y-26835D01*
X23907Y-26850D01*
X23921Y-26864D01*
X23935Y-26892D01*
X23935Y-26964D01*
X23921Y-26992D01*
X23907Y-27007D01*
X23878Y-27021D01*
X23792Y-27021D01*
X23764Y-27007D01*
X23750Y-26992D01*
X22807Y-29121D02*
X22664Y-29121D01*
X22664Y-28821D01*
X22907Y-28964D02*
X23007Y-28964D01*
X23050Y-29121D02*
X22907Y-29121D01*
X22907Y-28821D01*
X23050Y-28821D01*
X23178Y-29121D02*
X23178Y-28821D01*
X23250Y-28821D01*
X23292Y-28835D01*
X23321Y-28864D01*
X23335Y-28892D01*
X23350Y-28950D01*
X23350Y-28992D01*
X23335Y-29050D01*
X23321Y-29078D01*
X23292Y-29107D01*
X23250Y-29121D01*
X23178Y-29121D01*
G54D17*
X10450Y-10091D02*
X10435Y-10106D01*
X10392Y-10120D01*
X10364Y-10120D01*
X10321Y-10106D01*
X10292Y-10077D01*
X10278Y-10049D01*
X10264Y-9991D01*
X10264Y-9949D01*
X10278Y-9891D01*
X10292Y-9863D01*
X10321Y-9834D01*
X10364Y-9820D01*
X10392Y-9820D01*
X10435Y-9834D01*
X10450Y-9849D01*
X10735Y-10120D02*
X10564Y-10120D01*
X10650Y-10120D02*
X10650Y-9820D01*
X10621Y-9863D01*
X10592Y-9891D01*
X10564Y-9906D01*
X10232Y-9121D02*
X10089Y-9121D01*
X10160Y-9121D02*
X10160Y-8821D01*
X10136Y-8864D01*
X10113Y-8892D01*
X10089Y-8907D01*
X10386Y-8821D02*
X10410Y-8821D01*
X10434Y-8835D01*
X10446Y-8850D01*
X10458Y-8878D01*
X10470Y-8935D01*
X10470Y-9007D01*
X10458Y-9064D01*
X10446Y-9092D01*
X10434Y-9107D01*
X10410Y-9121D01*
X10386Y-9121D01*
X10363Y-9107D01*
X10351Y-9092D01*
X10339Y-9064D01*
X10327Y-9007D01*
X10327Y-8935D01*
X10339Y-8878D01*
X10351Y-8850D01*
X10363Y-8835D01*
X10386Y-8821D01*
X10684Y-8921D02*
X10684Y-9121D01*
X10577Y-8921D02*
X10577Y-9078D01*
X10589Y-9107D01*
X10613Y-9121D01*
X10648Y-9121D01*
X10672Y-9107D01*
X10684Y-9092D01*
X10886Y-8964D02*
X10803Y-8964D01*
X10803Y-9121D02*
X10803Y-8821D01*
X10922Y-8821D01*
X20093Y-20050D02*
X20108Y-20064D01*
X20122Y-20107D01*
X20122Y-20135D01*
X20108Y-20178D01*
X20079Y-20207D01*
X20051Y-20221D01*
X19993Y-20235D01*
X19951Y-20235D01*
X19893Y-20221D01*
X19865Y-20207D01*
X19836Y-20178D01*
X19822Y-20135D01*
X19822Y-20107D01*
X19836Y-20064D01*
X19851Y-20050D01*
X19822Y-19950D02*
X19822Y-19764D01*
X19936Y-19864D01*
X19936Y-19821D01*
X19951Y-19792D01*
X19965Y-19778D01*
X19993Y-19764D01*
X20065Y-19764D01*
X20093Y-19778D01*
X20108Y-19792D01*
X20122Y-19821D01*
X20122Y-19907D01*
X20108Y-19935D01*
X20093Y-19950D01*
X21121Y-20267D02*
X21121Y-20410D01*
X21121Y-20339D02*
X20821Y-20339D01*
X20864Y-20363D01*
X20892Y-20386D01*
X20907Y-20410D01*
X20821Y-20113D02*
X20821Y-20089D01*
X20835Y-20065D01*
X20850Y-20053D01*
X20878Y-20041D01*
X20935Y-20029D01*
X21007Y-20029D01*
X21064Y-20041D01*
X21092Y-20053D01*
X21107Y-20065D01*
X21121Y-20089D01*
X21121Y-20113D01*
X21107Y-20136D01*
X21092Y-20148D01*
X21064Y-20160D01*
X21007Y-20172D01*
X20935Y-20172D01*
X20878Y-20160D01*
X20850Y-20148D01*
X20835Y-20136D01*
X20821Y-20113D01*
X20921Y-19815D02*
X21121Y-19815D01*
X20921Y-19922D02*
X21078Y-19922D01*
X21107Y-19910D01*
X21121Y-19886D01*
X21121Y-19851D01*
X21107Y-19827D01*
X21092Y-19815D01*
X20964Y-19613D02*
X20964Y-19696D01*
X21121Y-19696D02*
X20821Y-19696D01*
X20821Y-19577D01*
X32093Y-20050D02*
X32108Y-20064D01*
X32122Y-20107D01*
X32122Y-20135D01*
X32108Y-20178D01*
X32079Y-20207D01*
X32051Y-20221D01*
X31993Y-20235D01*
X31951Y-20235D01*
X31893Y-20221D01*
X31865Y-20207D01*
X31836Y-20178D01*
X31822Y-20135D01*
X31822Y-20107D01*
X31836Y-20064D01*
X31851Y-20050D01*
X31851Y-19935D02*
X31836Y-19921D01*
X31822Y-19892D01*
X31822Y-19821D01*
X31836Y-19792D01*
X31851Y-19778D01*
X31879Y-19764D01*
X31908Y-19764D01*
X31951Y-19778D01*
X32122Y-19950D01*
X32122Y-19764D01*
X33121Y-20267D02*
X33121Y-20410D01*
X33121Y-20339D02*
X32821Y-20339D01*
X32864Y-20363D01*
X32892Y-20386D01*
X32907Y-20410D01*
X32821Y-20113D02*
X32821Y-20089D01*
X32835Y-20065D01*
X32850Y-20053D01*
X32878Y-20041D01*
X32935Y-20029D01*
X33007Y-20029D01*
X33064Y-20041D01*
X33092Y-20053D01*
X33107Y-20065D01*
X33121Y-20089D01*
X33121Y-20113D01*
X33107Y-20136D01*
X33092Y-20148D01*
X33064Y-20160D01*
X33007Y-20172D01*
X32935Y-20172D01*
X32878Y-20160D01*
X32850Y-20148D01*
X32835Y-20136D01*
X32821Y-20113D01*
X32921Y-19815D02*
X33121Y-19815D01*
X32921Y-19922D02*
X33078Y-19922D01*
X33107Y-19910D01*
X33121Y-19886D01*
X33121Y-19851D01*
X33107Y-19827D01*
X33092Y-19815D01*
X32964Y-19613D02*
X32964Y-19696D01*
X33121Y-19696D02*
X32821Y-19696D01*
X32821Y-19577D01*
G54D13*
X36800Y-5642D02*
X36800Y-6071D01*
X36771Y-6157D01*
X36714Y-6214D01*
X36628Y-6242D01*
X36571Y-6242D01*
X37371Y-5642D02*
X37085Y-5642D01*
X37057Y-5928D01*
X37085Y-5900D01*
X37142Y-5871D01*
X37285Y-5871D01*
X37342Y-5900D01*
X37371Y-5928D01*
X37400Y-5985D01*
X37400Y-6128D01*
X37371Y-6185D01*
X37342Y-6214D01*
X37285Y-6242D01*
X37142Y-6242D01*
X37085Y-6214D01*
X37057Y-6185D01*
G54D12*
X36202Y-7699D02*
X36071Y-7511D01*
X35977Y-7699D02*
X35977Y-7305D01*
X36127Y-7305D01*
X36165Y-7324D01*
X36184Y-7343D01*
X36202Y-7380D01*
X36202Y-7436D01*
X36184Y-7474D01*
X36165Y-7493D01*
X36127Y-7511D01*
X35977Y-7511D01*
X36484Y-7305D02*
X36484Y-7586D01*
X36465Y-7643D01*
X36428Y-7680D01*
X36371Y-7699D01*
X36334Y-7699D01*
X36840Y-7436D02*
X36840Y-7699D01*
X36747Y-7286D02*
X36653Y-7568D01*
X36897Y-7568D01*
X37234Y-7305D02*
X37047Y-7305D01*
X37028Y-7493D01*
X37047Y-7474D01*
X37084Y-7455D01*
X37178Y-7455D01*
X37216Y-7474D01*
X37234Y-7493D01*
X37253Y-7530D01*
X37253Y-7624D01*
X37234Y-7661D01*
X37216Y-7680D01*
X37178Y-7699D01*
X37084Y-7699D01*
X37047Y-7680D01*
X37028Y-7661D01*
X37328Y-7737D02*
X37628Y-7737D01*
X37703Y-7343D02*
X37722Y-7324D01*
X37760Y-7305D01*
X37853Y-7305D01*
X37891Y-7324D01*
X37910Y-7343D01*
X37929Y-7380D01*
X37929Y-7418D01*
X37910Y-7474D01*
X37685Y-7699D01*
X37929Y-7699D01*
G54D13*
X29800Y-5642D02*
X29800Y-6071D01*
X29771Y-6157D01*
X29714Y-6214D01*
X29628Y-6242D01*
X29571Y-6242D01*
X30342Y-5842D02*
X30342Y-6242D01*
X30200Y-5614D02*
X30057Y-6042D01*
X30428Y-6042D01*
G54D12*
X29202Y-7699D02*
X29071Y-7511D01*
X28977Y-7699D02*
X28977Y-7305D01*
X29127Y-7305D01*
X29165Y-7324D01*
X29184Y-7343D01*
X29202Y-7380D01*
X29202Y-7436D01*
X29184Y-7474D01*
X29165Y-7493D01*
X29127Y-7511D01*
X28977Y-7511D01*
X29484Y-7305D02*
X29484Y-7586D01*
X29465Y-7643D01*
X29428Y-7680D01*
X29371Y-7699D01*
X29334Y-7699D01*
X29840Y-7436D02*
X29840Y-7699D01*
X29747Y-7286D02*
X29653Y-7568D01*
X29897Y-7568D01*
X30234Y-7305D02*
X30047Y-7305D01*
X30028Y-7493D01*
X30047Y-7474D01*
X30084Y-7455D01*
X30178Y-7455D01*
X30216Y-7474D01*
X30234Y-7493D01*
X30253Y-7530D01*
X30253Y-7624D01*
X30234Y-7661D01*
X30216Y-7680D01*
X30178Y-7699D01*
X30084Y-7699D01*
X30047Y-7680D01*
X30028Y-7661D01*
X30328Y-7737D02*
X30628Y-7737D01*
X30703Y-7343D02*
X30722Y-7324D01*
X30760Y-7305D01*
X30853Y-7305D01*
X30891Y-7324D01*
X30910Y-7343D01*
X30929Y-7380D01*
X30929Y-7418D01*
X30910Y-7474D01*
X30685Y-7699D01*
X30929Y-7699D01*
G54D13*
X22800Y-5642D02*
X22800Y-6071D01*
X22771Y-6157D01*
X22714Y-6214D01*
X22628Y-6242D01*
X22571Y-6242D01*
X23028Y-5642D02*
X23400Y-5642D01*
X23200Y-5871D01*
X23285Y-5871D01*
X23342Y-5900D01*
X23371Y-5928D01*
X23400Y-5985D01*
X23400Y-6128D01*
X23371Y-6185D01*
X23342Y-6214D01*
X23285Y-6242D01*
X23114Y-6242D01*
X23057Y-6214D01*
X23028Y-6185D01*
G54D12*
X22202Y-7699D02*
X22071Y-7511D01*
X21977Y-7699D02*
X21977Y-7305D01*
X22127Y-7305D01*
X22165Y-7324D01*
X22184Y-7343D01*
X22202Y-7380D01*
X22202Y-7436D01*
X22184Y-7474D01*
X22165Y-7493D01*
X22127Y-7511D01*
X21977Y-7511D01*
X22484Y-7305D02*
X22484Y-7586D01*
X22465Y-7643D01*
X22428Y-7680D01*
X22371Y-7699D01*
X22334Y-7699D01*
X22840Y-7436D02*
X22840Y-7699D01*
X22747Y-7286D02*
X22653Y-7568D01*
X22897Y-7568D01*
X23234Y-7305D02*
X23047Y-7305D01*
X23028Y-7493D01*
X23047Y-7474D01*
X23084Y-7455D01*
X23178Y-7455D01*
X23216Y-7474D01*
X23234Y-7493D01*
X23253Y-7530D01*
X23253Y-7624D01*
X23234Y-7661D01*
X23216Y-7680D01*
X23178Y-7699D01*
X23084Y-7699D01*
X23047Y-7680D01*
X23028Y-7661D01*
X23328Y-7737D02*
X23628Y-7737D01*
X23703Y-7343D02*
X23722Y-7324D01*
X23760Y-7305D01*
X23853Y-7305D01*
X23891Y-7324D01*
X23910Y-7343D01*
X23929Y-7380D01*
X23929Y-7418D01*
X23910Y-7474D01*
X23685Y-7699D01*
X23929Y-7699D01*
G54D13*
X15800Y-5642D02*
X15800Y-6071D01*
X15771Y-6157D01*
X15714Y-6214D01*
X15628Y-6242D01*
X15571Y-6242D01*
X16057Y-5700D02*
X16085Y-5671D01*
X16142Y-5642D01*
X16285Y-5642D01*
X16342Y-5671D01*
X16371Y-5700D01*
X16400Y-5757D01*
X16400Y-5814D01*
X16371Y-5900D01*
X16028Y-6242D01*
X16400Y-6242D01*
G54D12*
X15202Y-7699D02*
X15071Y-7511D01*
X14977Y-7699D02*
X14977Y-7305D01*
X15127Y-7305D01*
X15165Y-7324D01*
X15184Y-7343D01*
X15202Y-7380D01*
X15202Y-7436D01*
X15184Y-7474D01*
X15165Y-7493D01*
X15127Y-7511D01*
X14977Y-7511D01*
X15484Y-7305D02*
X15484Y-7586D01*
X15465Y-7643D01*
X15428Y-7680D01*
X15371Y-7699D01*
X15334Y-7699D01*
X15840Y-7436D02*
X15840Y-7699D01*
X15747Y-7286D02*
X15653Y-7568D01*
X15897Y-7568D01*
X16234Y-7305D02*
X16047Y-7305D01*
X16028Y-7493D01*
X16047Y-7474D01*
X16084Y-7455D01*
X16178Y-7455D01*
X16216Y-7474D01*
X16234Y-7493D01*
X16253Y-7530D01*
X16253Y-7624D01*
X16234Y-7661D01*
X16216Y-7680D01*
X16178Y-7699D01*
X16084Y-7699D01*
X16047Y-7680D01*
X16028Y-7661D01*
X16328Y-7737D02*
X16628Y-7737D01*
X16703Y-7343D02*
X16722Y-7324D01*
X16760Y-7305D01*
X16853Y-7305D01*
X16891Y-7324D01*
X16910Y-7343D01*
X16929Y-7380D01*
X16929Y-7418D01*
X16910Y-7474D01*
X16685Y-7699D01*
X16929Y-7699D01*
G54D13*
X36800Y-35642D02*
X36800Y-36071D01*
X36771Y-36157D01*
X36714Y-36214D01*
X36628Y-36242D01*
X36571Y-36242D01*
X37114Y-36242D02*
X37228Y-36242D01*
X37285Y-36214D01*
X37314Y-36185D01*
X37371Y-36100D01*
X37400Y-35985D01*
X37400Y-35757D01*
X37371Y-35700D01*
X37342Y-35671D01*
X37285Y-35642D01*
X37171Y-35642D01*
X37114Y-35671D01*
X37085Y-35700D01*
X37057Y-35757D01*
X37057Y-35900D01*
X37085Y-35957D01*
X37114Y-35985D01*
X37171Y-36014D01*
X37285Y-36014D01*
X37342Y-35985D01*
X37371Y-35957D01*
X37400Y-35900D01*
G54D12*
X36314Y-34619D02*
X36183Y-34431D01*
X36089Y-34619D02*
X36089Y-34225D01*
X36239Y-34225D01*
X36277Y-34244D01*
X36296Y-34263D01*
X36314Y-34300D01*
X36314Y-34356D01*
X36296Y-34394D01*
X36277Y-34413D01*
X36239Y-34431D01*
X36089Y-34431D01*
X36596Y-34225D02*
X36596Y-34506D01*
X36577Y-34563D01*
X36540Y-34600D01*
X36483Y-34619D01*
X36446Y-34619D01*
X36952Y-34356D02*
X36952Y-34619D01*
X36859Y-34206D02*
X36765Y-34488D01*
X37009Y-34488D01*
X37346Y-34225D02*
X37159Y-34225D01*
X37140Y-34413D01*
X37159Y-34394D01*
X37196Y-34375D01*
X37290Y-34375D01*
X37328Y-34394D01*
X37346Y-34413D01*
X37365Y-34450D01*
X37365Y-34544D01*
X37346Y-34581D01*
X37328Y-34600D01*
X37290Y-34619D01*
X37196Y-34619D01*
X37159Y-34600D01*
X37140Y-34581D01*
X37440Y-34657D02*
X37740Y-34657D01*
X37815Y-34263D02*
X37834Y-34244D01*
X37872Y-34225D01*
X37965Y-34225D01*
X38003Y-34244D01*
X38022Y-34263D01*
X38041Y-34300D01*
X38041Y-34338D01*
X38022Y-34394D01*
X37797Y-34619D01*
X38041Y-34619D01*
G54D13*
X29800Y-35642D02*
X29800Y-36071D01*
X29771Y-36157D01*
X29714Y-36214D01*
X29628Y-36242D01*
X29571Y-36242D01*
X30171Y-35900D02*
X30114Y-35871D01*
X30085Y-35842D01*
X30057Y-35785D01*
X30057Y-35757D01*
X30085Y-35700D01*
X30114Y-35671D01*
X30171Y-35642D01*
X30285Y-35642D01*
X30342Y-35671D01*
X30371Y-35700D01*
X30400Y-35757D01*
X30400Y-35785D01*
X30371Y-35842D01*
X30342Y-35871D01*
X30285Y-35900D01*
X30171Y-35900D01*
X30114Y-35928D01*
X30085Y-35957D01*
X30057Y-36014D01*
X30057Y-36128D01*
X30085Y-36185D01*
X30114Y-36214D01*
X30171Y-36242D01*
X30285Y-36242D01*
X30342Y-36214D01*
X30371Y-36185D01*
X30400Y-36128D01*
X30400Y-36014D01*
X30371Y-35957D01*
X30342Y-35928D01*
X30285Y-35900D01*
G54D12*
X29314Y-34619D02*
X29183Y-34431D01*
X29089Y-34619D02*
X29089Y-34225D01*
X29239Y-34225D01*
X29277Y-34244D01*
X29296Y-34263D01*
X29314Y-34300D01*
X29314Y-34356D01*
X29296Y-34394D01*
X29277Y-34413D01*
X29239Y-34431D01*
X29089Y-34431D01*
X29596Y-34225D02*
X29596Y-34506D01*
X29577Y-34563D01*
X29540Y-34600D01*
X29483Y-34619D01*
X29446Y-34619D01*
X29952Y-34356D02*
X29952Y-34619D01*
X29859Y-34206D02*
X29765Y-34488D01*
X30009Y-34488D01*
X30346Y-34225D02*
X30159Y-34225D01*
X30140Y-34413D01*
X30159Y-34394D01*
X30196Y-34375D01*
X30290Y-34375D01*
X30328Y-34394D01*
X30346Y-34413D01*
X30365Y-34450D01*
X30365Y-34544D01*
X30346Y-34581D01*
X30328Y-34600D01*
X30290Y-34619D01*
X30196Y-34619D01*
X30159Y-34600D01*
X30140Y-34581D01*
X30440Y-34657D02*
X30740Y-34657D01*
X30815Y-34263D02*
X30834Y-34244D01*
X30872Y-34225D01*
X30965Y-34225D01*
X31003Y-34244D01*
X31022Y-34263D01*
X31041Y-34300D01*
X31041Y-34338D01*
X31022Y-34394D01*
X30797Y-34619D01*
X31041Y-34619D01*
G54D13*
X22800Y-35642D02*
X22800Y-36071D01*
X22771Y-36157D01*
X22714Y-36214D01*
X22628Y-36242D01*
X22571Y-36242D01*
X23028Y-35642D02*
X23428Y-35642D01*
X23171Y-36242D01*
G54D12*
X22314Y-34619D02*
X22183Y-34431D01*
X22089Y-34619D02*
X22089Y-34225D01*
X22239Y-34225D01*
X22277Y-34244D01*
X22296Y-34263D01*
X22314Y-34300D01*
X22314Y-34356D01*
X22296Y-34394D01*
X22277Y-34413D01*
X22239Y-34431D01*
X22089Y-34431D01*
X22596Y-34225D02*
X22596Y-34506D01*
X22577Y-34563D01*
X22540Y-34600D01*
X22483Y-34619D01*
X22446Y-34619D01*
X22952Y-34356D02*
X22952Y-34619D01*
X22859Y-34206D02*
X22765Y-34488D01*
X23009Y-34488D01*
X23346Y-34225D02*
X23159Y-34225D01*
X23140Y-34413D01*
X23159Y-34394D01*
X23196Y-34375D01*
X23290Y-34375D01*
X23328Y-34394D01*
X23346Y-34413D01*
X23365Y-34450D01*
X23365Y-34544D01*
X23346Y-34581D01*
X23328Y-34600D01*
X23290Y-34619D01*
X23196Y-34619D01*
X23159Y-34600D01*
X23140Y-34581D01*
X23440Y-34657D02*
X23740Y-34657D01*
X23815Y-34263D02*
X23834Y-34244D01*
X23872Y-34225D01*
X23965Y-34225D01*
X24003Y-34244D01*
X24022Y-34263D01*
X24041Y-34300D01*
X24041Y-34338D01*
X24022Y-34394D01*
X23797Y-34619D01*
X24041Y-34619D01*
G54D13*
X15800Y-35642D02*
X15800Y-36071D01*
X15771Y-36157D01*
X15714Y-36214D01*
X15628Y-36242D01*
X15571Y-36242D01*
X16342Y-35642D02*
X16228Y-35642D01*
X16171Y-35671D01*
X16142Y-35700D01*
X16085Y-35785D01*
X16057Y-35900D01*
X16057Y-36128D01*
X16085Y-36185D01*
X16114Y-36214D01*
X16171Y-36242D01*
X16285Y-36242D01*
X16342Y-36214D01*
X16371Y-36185D01*
X16400Y-36128D01*
X16400Y-35985D01*
X16371Y-35928D01*
X16342Y-35900D01*
X16285Y-35871D01*
X16171Y-35871D01*
X16114Y-35900D01*
X16085Y-35928D01*
X16057Y-35985D01*
G54D12*
X15314Y-34619D02*
X15183Y-34431D01*
X15089Y-34619D02*
X15089Y-34225D01*
X15239Y-34225D01*
X15277Y-34244D01*
X15296Y-34263D01*
X15314Y-34300D01*
X15314Y-34356D01*
X15296Y-34394D01*
X15277Y-34413D01*
X15239Y-34431D01*
X15089Y-34431D01*
X15596Y-34225D02*
X15596Y-34506D01*
X15577Y-34563D01*
X15540Y-34600D01*
X15483Y-34619D01*
X15446Y-34619D01*
X15952Y-34356D02*
X15952Y-34619D01*
X15859Y-34206D02*
X15765Y-34488D01*
X16009Y-34488D01*
X16346Y-34225D02*
X16159Y-34225D01*
X16140Y-34413D01*
X16159Y-34394D01*
X16196Y-34375D01*
X16290Y-34375D01*
X16328Y-34394D01*
X16346Y-34413D01*
X16365Y-34450D01*
X16365Y-34544D01*
X16346Y-34581D01*
X16328Y-34600D01*
X16290Y-34619D01*
X16196Y-34619D01*
X16159Y-34600D01*
X16140Y-34581D01*
X16440Y-34657D02*
X16740Y-34657D01*
X16815Y-34263D02*
X16834Y-34244D01*
X16872Y-34225D01*
X16965Y-34225D01*
X17003Y-34244D01*
X17022Y-34263D01*
X17041Y-34300D01*
X17041Y-34338D01*
X17022Y-34394D01*
X16797Y-34619D01*
X17041Y-34619D01*
G54D17*
X14143Y-12950D02*
X14158Y-12964D01*
X14172Y-13007D01*
X14172Y-13035D01*
X14158Y-13078D01*
X14129Y-13107D01*
X14101Y-13121D01*
X14043Y-13135D01*
X14001Y-13135D01*
X13943Y-13121D01*
X13915Y-13107D01*
X13886Y-13078D01*
X13872Y-13035D01*
X13872Y-13007D01*
X13886Y-12964D01*
X13901Y-12950D01*
X13972Y-12692D02*
X14172Y-12692D01*
X13858Y-12764D02*
X14072Y-12835D01*
X14072Y-12650D01*
X15171Y-13167D02*
X15171Y-13310D01*
X15171Y-13239D02*
X14871Y-13239D01*
X14914Y-13263D01*
X14942Y-13286D01*
X14957Y-13310D01*
X14871Y-13013D02*
X14871Y-12989D01*
X14885Y-12965D01*
X14900Y-12953D01*
X14928Y-12941D01*
X14985Y-12929D01*
X15057Y-12929D01*
X15114Y-12941D01*
X15142Y-12953D01*
X15157Y-12965D01*
X15171Y-12989D01*
X15171Y-13013D01*
X15157Y-13036D01*
X15142Y-13048D01*
X15114Y-13060D01*
X15057Y-13072D01*
X14985Y-13072D01*
X14928Y-13060D01*
X14900Y-13048D01*
X14885Y-13036D01*
X14871Y-13013D01*
X14971Y-12715D02*
X15171Y-12715D01*
X14971Y-12822D02*
X15128Y-12822D01*
X15157Y-12810D01*
X15171Y-12786D01*
X15171Y-12751D01*
X15157Y-12727D01*
X15142Y-12715D01*
X15014Y-12513D02*
X15014Y-12596D01*
X15171Y-12596D02*
X14871Y-12596D01*
X14871Y-12477D01*
M02*
