M48
;DRILL file {Pcbnew (22-Jun-2014 BZR 4027)-stable} date Cts 25 Nis 2020 13:27:20 +03
;FORMAT={-:-/ absolute / inch / decimal}
FMAT,2
INCH,TZ
T1C0.025
T2C0.032
T3C0.035
T4C0.040
T5C0.128
%
G90
G05
M72
T1
X1.075Y-1.455
X1.23Y-2.015
X1.395Y-1.69
X1.415Y-2.025
X1.445Y-2.975
X1.535Y-3.17
X1.545Y-0.695
X1.575Y-3.555
X1.615Y-3.115
X1.62Y-0.63
X1.66Y-3.6
X1.695Y-3.055
X1.735Y-3.63
X1.795Y-2.045
X1.83Y-1.27
X1.945Y-1.21
X1.985Y-2.345
X2.01Y-1.83
X2.05Y-1.15
X2.095Y-2.4
X2.13Y-1.39
X2.14Y-2.94
X2.165Y-2.11
X2.195Y-2.875
X2.2Y-2.515
X2.235Y-1.24
X2.235Y-3.17
X2.24Y-0.685
X2.28Y-3.555
X2.315Y-3.115
X2.325Y-0.61
X2.33Y-1.24
X2.36Y-3.595
X2.395Y-3.055
X2.43Y-1.205
X2.44Y-3.635
X2.475Y-1.285
X2.535Y-1.08
X2.645Y-1.21
X2.65Y-0.6
X2.65Y-0.96
X2.775Y-1.15
X2.935Y-3.17
X2.94Y-0.655
X2.98Y-3.55
X2.99Y-1.245
X3.015Y-3.115
X3.025Y-0.605
X3.03Y-2.605
X3.06Y-3.59
X3.1Y-3.06
X3.145Y-1.25
X3.145Y-3.635
X3.17Y-2.475
X3.18Y-2.17
X3.2Y-3.285
X3.205Y-2.9
X3.26Y-0.97
X3.26Y-3.115
X3.295Y-1.34
X3.355Y-3.55
X3.385Y-2.9
X3.425Y-3.29
X3.435Y-2.96
X3.435Y-3.17
X3.445Y-2.315
X3.53Y-2.975
X3.565Y-1.22
X3.605Y-1.16
X3.685Y-1.115
X3.705Y-2.985
X3.765Y-1.055
X3.95Y-1.645
T2
X0.85Y-0.6
X0.85Y-0.75
X0.86Y-3.32
X1.Y-0.95
X1.05Y-3.535
X1.1Y-0.95
X1.15Y-0.6
X1.15Y-0.75
X1.15Y-3.535
X1.16Y-3.32
X1.25Y-1.5
X1.25Y-1.8
X1.25Y-2.2
X1.25Y-2.5
X1.25Y-2.8
X1.35Y-1.5
X1.35Y-1.8
X1.35Y-2.2
X1.35Y-2.5
X1.45Y-1.5
X1.45Y-1.8
X1.45Y-2.2
X1.45Y-2.5
X1.455Y-1.24
X1.455Y-1.34
X1.55Y-1.5
X1.55Y-1.8
X1.55Y-2.2
X1.55Y-2.5
X1.55Y-2.8
X1.65Y-1.5
X1.65Y-1.8
X1.65Y-2.2
X1.65Y-2.5
X1.7Y-2.8
X1.75Y-1.5
X1.75Y-1.8
X1.75Y-2.2
X1.75Y-2.5
X1.85Y-1.5
X1.85Y-1.8
X1.85Y-2.2
X1.85Y-2.5
X1.95Y-2.2
X1.95Y-2.5
X2.Y-2.8
X2.05Y-1.95
X2.05Y-2.05
X2.2Y-1.5
X2.2Y-1.8
X2.25Y-2.8
X2.3Y-1.5
X2.3Y-1.8
X2.35Y-2.2
X2.35Y-2.5
X2.35Y-2.8
X2.4Y-1.5
X2.4Y-1.8
X2.45Y-2.2
X2.45Y-2.5
X2.5Y-1.5
X2.5Y-1.8
X2.55Y-2.2
X2.55Y-2.5
X2.6Y-1.5
X2.6Y-1.8
X2.6Y-2.8
X2.65Y-2.2
X2.65Y-2.5
X2.7Y-1.5
X2.7Y-1.8
X2.75Y-2.2
X2.75Y-2.5
X2.8Y-1.5
X2.8Y-1.8
X2.85Y-2.2
X2.85Y-2.5
X2.9Y-1.5
X2.9Y-1.8
X2.9Y-2.8
X2.95Y-2.2
X2.95Y-2.5
X3.Y-1.5
X3.Y-1.8
X3.055Y-2.8
X3.1Y-1.5
X3.1Y-1.8
X3.25Y-1.95
X3.25Y-2.05
X3.35Y-2.2
X3.35Y-2.5
X3.355Y-2.8
X3.45Y-1.5
X3.45Y-1.8
X3.45Y-2.2
X3.45Y-2.5
X3.55Y-1.5
X3.55Y-1.8
X3.55Y-2.2
X3.55Y-2.5
X3.65Y-1.5
X3.65Y-1.8
X3.65Y-2.2
X3.65Y-2.5
X3.75Y-1.5
X3.75Y-1.8
X3.75Y-2.2
X3.75Y-2.5
X3.85Y-1.5
X3.85Y-1.8
X3.85Y-2.2
X3.85Y-2.5
X3.95Y-1.5
X3.95Y-1.8
X3.95Y-2.2
X3.95Y-2.5
X4.05Y-1.5
X4.05Y-1.8
X4.05Y-2.2
X4.05Y-2.5
T3
X1.455Y-3.28
X1.46Y-0.84
X1.5Y-3.36
X1.505Y-0.92
X1.535Y-3.28
X1.54Y-0.84
X1.58Y-3.36
X1.585Y-0.92
X1.615Y-3.28
X1.62Y-0.84
X1.66Y-3.36
X1.665Y-0.92
X1.695Y-3.28
X1.7Y-0.84
X1.74Y-3.36
X1.745Y-0.92
X2.155Y-3.28
X2.16Y-0.84
X2.2Y-3.36
X2.205Y-0.92
X2.235Y-3.28
X2.24Y-0.84
X2.28Y-3.36
X2.285Y-0.92
X2.315Y-3.28
X2.32Y-0.84
X2.36Y-3.36
X2.365Y-0.92
X2.395Y-3.28
X2.4Y-0.84
X2.44Y-3.36
X2.445Y-0.92
X2.855Y-3.28
X2.86Y-0.84
X2.9Y-3.36
X2.905Y-0.92
X2.935Y-3.28
X2.94Y-0.84
X2.98Y-3.36
X2.985Y-0.92
X3.015Y-3.28
X3.02Y-0.84
X3.06Y-3.36
X3.065Y-0.92
X3.095Y-3.28
X3.1Y-0.84
X3.14Y-3.36
X3.145Y-0.92
X3.555Y-3.28
X3.56Y-0.84
X3.6Y-3.36
X3.605Y-0.92
X3.635Y-3.28
X3.64Y-0.84
X3.68Y-3.36
X3.685Y-0.92
X3.715Y-3.28
X3.72Y-0.84
X3.76Y-3.36
X3.765Y-0.92
X3.795Y-3.28
X3.8Y-0.84
X3.84Y-3.36
X3.845Y-0.92
T4
X0.85Y-1.15
X0.85Y-1.25
X0.85Y-1.35
X0.85Y-1.45
X0.85Y-1.55
X0.85Y-1.65
X0.85Y-1.75
X0.85Y-1.85
X0.85Y-1.95
X0.85Y-2.05
X0.85Y-2.15
X0.85Y-2.25
X0.85Y-2.35
X0.85Y-2.45
X0.85Y-2.55
X0.85Y-2.65
X0.85Y-2.75
X0.85Y-2.85
X0.85Y-2.95
X0.85Y-3.05
X0.95Y-1.15
X0.95Y-1.25
X0.95Y-1.35
X0.95Y-1.45
X0.95Y-1.55
X0.95Y-1.65
X0.95Y-1.75
X0.95Y-1.85
X0.95Y-1.95
X0.95Y-2.05
X0.95Y-2.15
X0.95Y-2.25
X0.95Y-2.35
X0.95Y-2.45
X0.95Y-2.55
X0.95Y-2.65
X0.95Y-2.75
X0.95Y-2.85
X0.95Y-2.95
X0.95Y-3.05
T5
X1.36Y-0.75
X1.36Y-3.45
X1.84Y-0.75
X1.84Y-3.45
X2.06Y-0.75
X2.06Y-3.45
X2.54Y-0.75
X2.54Y-3.45
X2.76Y-0.75
X2.76Y-3.45
X3.24Y-0.75
X3.24Y-3.45
X3.46Y-0.75
X3.46Y-3.45
X3.94Y-0.75
X3.94Y-3.45
T0
M30
